<svg width="28" height="29" fill="none" xmlns="http://www.w3.org/2000/svg"><path d="M26.906.938c.164 0 .328.109.438.218.11.11.218.274.218.438v8.75a.693.693 0 01-.218.492.621.621 0 01-.438.164h-8.75c-.218 0-.383-.055-.492-.164-.11-.11-.164-.274-.164-.492v-.547a.62.62 0 01.164-.438.693.693 0 01.492-.218h6.235c-.985-1.914-2.407-3.446-4.266-4.594A11.549 11.549 0 0014 2.797c-2.078 0-3.938.492-5.688 1.476-1.75.985-3.171 2.352-4.265 4.047-1.094 1.696-1.64 3.555-1.75 5.578 0 .165-.11.329-.219.438a.62.62 0 01-.437.164h-.547c-.219 0-.383-.055-.492-.164-.11-.11-.164-.328-.164-.547.109-2.297.82-4.484 2.023-6.453 1.203-1.969 2.844-3.5 4.922-4.649a13.354 13.354 0 016.672-1.75c2.406 0 4.648.657 6.726 1.86a13.55 13.55 0 014.922 4.867v-6.07a.62.62 0 01.164-.438.693.693 0 01.492-.218h.547zm0 13.562c.164 0 .328.11.438.219a.69.69 0 01.218.492c-.164 2.351-.875 4.484-2.078 6.453a13.383 13.383 0 01-4.867 4.703c-2.078 1.149-4.265 1.695-6.672 1.695-2.406 0-4.648-.601-6.726-1.804a13.282 13.282 0 01-4.922-4.922v6.07c0 .219-.11.383-.219.492a.62.62 0 01-.437.165h-.547c-.219 0-.383-.055-.492-.165-.11-.109-.164-.273-.164-.492v-8.75a.62.62 0 01.164-.437.693.693 0 01.492-.219h8.75c.164 0 .328.11.437.219.11.11.219.273.219.437v.547c0 .219-.11.383-.219.492a.62.62 0 01-.437.164H3.609c.985 1.97 2.407 3.5 4.266 4.649 1.86 1.148 3.883 1.695 6.125 1.695a11.46 11.46 0 005.688-1.476c1.75-.985 3.117-2.297 4.21-3.993 1.094-1.695 1.696-3.554 1.805-5.632a.59.59 0 01.164-.383.693.693 0 01.492-.219h.547z" fill="#01A0E4"/></svg>