<svg width="38" height="27" fill="none" xmlns="http://www.w3.org/2000/svg"><path d="M31.875 11.875c-1.29 0-2.402-.41-3.34-1.348-.937-.937-1.348-2.05-1.348-3.34 0-1.289.41-2.343 1.348-3.28.938-.938 2.05-1.407 3.34-1.407s2.344.469 3.281 1.406c.938.938 1.407 1.992 1.407 3.281 0 1.29-.47 2.403-1.407 3.34-.937.938-1.992 1.348-3.281 1.348zm0-7.5c-.82 0-1.465.293-1.992.82-.586.586-.82 1.23-.82 1.992 0 .82.234 1.465.82 1.993.527.586 1.172.82 1.992.82.762 0 1.406-.234 1.992-.82.528-.528.82-1.172.82-1.992 0-.762-.292-1.407-.82-1.993-.586-.527-1.23-.82-1.992-.82zM18.75 13.75a6.405 6.405 0 01-3.281-.879 5.928 5.928 0 01-2.403-2.402 6.406 6.406 0 01-.879-3.281c0-1.172.293-2.227.88-3.282.585-.996 1.347-1.816 2.402-2.402A6.404 6.404 0 0118.75.625c1.172 0 2.227.293 3.281.879a6.742 6.742 0 012.403 2.402c.585 1.055.878 2.11.878 3.281a6.406 6.406 0 01-.878 3.282c-.586 1.054-1.407 1.816-2.403 2.402-1.054.586-2.11.879-3.281.879zm0-11.25c-1.29 0-2.402.469-3.34 1.406-.937.938-1.348 1.992-1.348 3.281 0 1.29.41 2.403 1.348 3.34.938.938 2.05 1.348 3.34 1.348s2.344-.41 3.281-1.348c.938-.937 1.407-2.05 1.407-3.34 0-1.289-.47-2.343-1.407-3.28C21.094 2.968 20.04 2.5 18.75 2.5zm14.297 11.25c1.172 0 2.226.469 3.105 1.406.88.938 1.348 1.992 1.348 3.281a.97.97 0 01-.293.704c-.176.175-.41.234-.645.234-.292 0-.527-.059-.703-.234-.175-.176-.234-.41-.234-.703 0-.762-.293-1.407-.762-1.993-.527-.527-1.113-.82-1.816-.82h-2.344a2.43 2.43 0 00-.937.176 15.36 15.36 0 00-1.465-1.29c.703-.468 1.523-.761 2.402-.761h2.344zM5.625 11.875c-1.29 0-2.402-.41-3.34-1.348C1.348 9.59.937 8.477.937 7.187c0-1.289.41-2.343 1.348-3.28.938-.938 2.05-1.407 3.34-1.407s2.344.469 3.281 1.406c.938.938 1.406 1.992 1.406 3.281 0 1.29-.468 2.403-1.406 3.34-.937.938-1.992 1.348-3.281 1.348zm0-7.5c-.82 0-1.465.293-1.992.82-.586.586-.82 1.23-.82 1.992 0 .82.234 1.465.82 1.993.527.586 1.172.82 1.992.82.762 0 1.406-.234 1.992-.82.528-.528.82-1.172.82-1.992 0-.762-.292-1.407-.82-1.993-.586-.527-1.23-.82-1.992-.82zm17.813 10.547a6.83 6.83 0 013.046.703 6.086 6.086 0 012.344 2.05C29.59 18.849 30 20.079 30 21.426v2.637c0 .82-.293 1.465-.82 1.993-.586.586-1.23.82-1.992.82H10.313c-.82 0-1.465-.234-1.993-.82-.586-.528-.82-1.172-.82-1.992v-2.637c0-1.348.352-2.578 1.172-3.75.586-.88 1.348-1.582 2.285-2.051.938-.469 1.992-.703 3.105-.703.586 0 1.348.117 2.168.351.88.235 1.7.352 2.52.352.762 0 1.582-.117 2.52-.352.82-.234 1.523-.351 2.168-.351zm4.687 9.14v-2.636c0-.938-.293-1.875-.82-2.695-.47-.587-.996-1.055-1.64-1.407a4.798 4.798 0 00-2.227-.527c-.47 0-1.055.117-1.758.293a10.684 10.684 0 01-5.86 0c-.703-.176-1.289-.293-1.758-.293a5.04 5.04 0 00-2.285.527c-.703.352-1.23.82-1.582 1.406-.586.82-.82 1.758-.82 2.696v2.637c0 .293.059.527.234.703.176.175.41.234.704.234h16.874c.235 0 .47-.059.645-.234a.97.97 0 00.293-.703zm-18.926-9.55c-.586.41-1.054.82-1.465 1.289-.351-.117-.644-.176-.937-.176H4.453c-.703 0-1.348.293-1.816.82a2.834 2.834 0 00-.762 1.992.97.97 0 01-.293.704c-.176.175-.41.234-.645.234-.292 0-.527-.059-.703-.234C.06 18.965 0 18.73 0 18.438c0-1.29.41-2.344 1.29-3.282.878-.937 1.933-1.406 3.163-1.406h2.344c.82 0 1.64.293 2.402.762z" fill="#01A0E4"/></svg>