<svg width="30" height="30" fill="none" xmlns="http://www.w3.org/2000/svg"><path d="M15 .219c2.578 0 5.04.703 7.266 1.992a14.232 14.232 0 015.273 5.273c1.29 2.227 1.992 4.688 1.992 7.266 0 2.637-.703 5.04-1.992 7.266-1.289 2.226-3.047 4.043-5.273 5.332-2.227 1.289-4.688 1.933-7.266 1.933-2.637 0-5.04-.644-7.266-1.933a14.545 14.545 0 01-5.332-5.332C1.113 19.789.47 17.386.47 14.75c0-2.578.644-5.04 1.933-7.266C3.692 5.258 5.508 3.5 7.734 2.211 9.961.92 12.364.219 15 .219zM27.656 14.75c0-2.285-.586-4.395-1.699-6.328a13.462 13.462 0 00-4.629-4.629c-1.992-1.113-4.101-1.7-6.387-1.7-2.285 0-4.394.587-6.328 1.7-1.933 1.172-3.457 2.695-4.57 4.629-1.172 1.992-1.7 4.101-1.7 6.387 0 2.285.528 4.394 1.7 6.328a11.966 11.966 0 004.629 4.57c1.933 1.172 4.043 1.7 6.328 1.7s4.395-.528 6.328-1.7c1.934-1.113 3.457-2.637 4.629-4.629a12.487 12.487 0 001.7-6.328zm-8.73 5.156c.117.117.293.176.527.176.176 0 .352-.117.469-.293l.469-.703c.117-.117.117-.293.117-.469s-.117-.351-.235-.469l-4.16-3.046V6.547c0-.176-.117-.352-.234-.469-.117-.117-.293-.234-.469-.234h-.82a.743.743 0 00-.527.234.665.665 0 00-.176.469v9.375c0 .234.058.41.293.527l4.746 3.457z" fill="#01A0E4"/></svg>