<svg width="32" height="24" fill="none" xmlns="http://www.w3.org/2000/svg"><path d="M31.25 22H2V.75c0-.188-.125-.375-.25-.5S1.437 0 1.25 0h-.5a.792.792 0 00-.563.25.71.71 0 00-.187.5v22.5c0 .25.063.438.188.563.124.125.312.187.562.187h30.5a.71.71 0 00.5-.188.792.792 0 00.25-.562v-.5c0-.188-.125-.375-.25-.5s-.313-.25-.5-.25zm-8-15.875c.188-.125.375-.125.625-.063a.972.972 0 01.5.375L30 20H4v-6l7.5-9.75c.125-.125.25-.25.5-.25s.438.063.625.188L18 9.5l5.25-3.375zM6 14.688V18h21l-3.875-9.5-5.375 3.563L12.187 6.5 6 14.688z" fill="#01A0E4"/></svg>