<svg width="31" height="32" fill="none" xmlns="http://www.w3.org/2000/svg"><path d="M15.5.5c2.75 0 5.375.75 7.75 2.125a15.18 15.18 0 015.625 5.625C30.25 10.625 31 13.25 31 16c0 2.813-.75 5.375-2.125 7.75s-3.25 4.313-5.625 5.688-5 2.062-7.75 2.062c-2.813 0-5.375-.688-7.75-2.063a15.514 15.514 0 01-5.688-5.687C.688 21.375 0 18.812 0 16c0-2.75.688-5.375 2.063-7.75C3.437 5.875 5.374 4 7.75 2.625 10.125 1.25 12.688.5 15.5.5zm0 29c2.438 0 4.688-.563 6.75-1.813 2.063-1.187 3.688-2.812 4.938-4.875C28.375 20.75 29 18.5 29 16a13.32 13.32 0 00-1.813-6.75 14.36 14.36 0 00-4.937-4.938A13.32 13.32 0 0015.5 2.5c-2.5 0-4.75.625-6.813 1.813C6.626 5.563 5 7.188 3.814 9.25 2.563 11.313 2 13.563 2 16c0 2.5.563 4.75 1.813 6.813a13.036 13.036 0 004.874 4.875C10.75 28.938 13 29.5 15.5 29.5zM18 15.687c.813.25 1.5.688 2 1.313.5.688.75 1.438.75 2.25 0 1.063-.375 1.938-1.125 2.688C18.875 22.688 18 23 17 23h-.5v2.5c0 .125-.063.25-.188.375S16.125 26 16 26h-1c-.125 0-.25 0-.375-.125s-.125-.25-.125-.375V23h-.313c-1.25 0-2.312-.375-3.25-1.125a.344.344 0 01-.187-.313c0-.125 0-.312.125-.437l.75-.688a.344.344 0 01.313-.187c.124 0 .187.063.312.125.563.438 1.188.625 1.938.625H17c.438 0 .813-.125 1.188-.5.375-.313.562-.75.562-1.25 0-.375-.125-.688-.375-1-.25-.313-.5-.563-.875-.688l-4.5-1.25c-.875-.187-1.5-.625-2-1.312-.5-.625-.75-1.375-.75-2.25 0-1 .313-1.875 1.063-2.625S12.937 9 14 9h.5V6.5c0-.125 0-.188.125-.313S14.875 6 15 6h1c.125 0 .188.063.313.188s.187.187.187.312V9h.313c1.187 0 2.25.375 3.25 1.125.125.125.187.25.187.375s-.063.25-.125.375l-.75.688c-.125.124-.188.187-.313.187s-.25 0-.312-.125C18.125 11.25 17.5 11 16.812 11H14c-.5 0-.938.188-1.25.5-.375.375-.5.75-.5 1.25 0 .375.063.75.313 1.063.25.312.562.5.937.562l4.5 1.313z" fill="#01A0E4"/></svg>