<svg width="36" height="24" fill="none" xmlns="http://www.w3.org/2000/svg"><path d="M35.563 10.5c.25.5.437 1 .437 1.5 0 .563-.188 1.063-.438 1.5-1.812 3.063-4.25 5.5-7.312 7.25-3.125 1.875-6.563 2.75-10.25 2.75-3.75 0-7.125-.875-10.25-2.75A18.957 18.957 0 01.437 13.5C.126 13.062 0 12.562 0 12c0-.5.125-1 .438-1.5 1.75-3 4.187-5.438 7.312-7.25C10.875 1.437 14.25.5 18 .5c3.688 0 7.125.938 10.25 2.75a20.832 20.832 0 017.313 7.25zM26 10.25a7.685 7.685 0 00-1.063-3.875C24.188 5.187 23.25 4.25 22 3.562 20.75 2.875 19.437 2.5 18 2.5c-1.5 0-2.813.375-4.063 1.063a7.322 7.322 0 00-2.874 2.812C10.313 7.563 10 8.875 10 10.25c0 1.438.313 2.75 1.063 3.938A7.322 7.322 0 0013.937 17c1.25.688 2.563 1 4.063 1 1.438 0 2.75-.313 4-1 1.25-.688 2.188-1.625 2.938-2.813A7.742 7.742 0 0026 10.25zm7.875 2.25c.188-.313.188-.625 0-1a18.339 18.339 0 00-3.438-4.188c-1.375-1.25-2.937-2.25-4.562-3.062C27.25 6 28 8 28 10.25c0 1.75-.5 3.375-1.375 4.875S24.5 17.813 23 18.688 19.812 20 18 20c-1.875 0-3.563-.438-5.063-1.313-1.5-.875-2.75-2.062-3.624-3.562A9.508 9.508 0 018 10.25c0-2.25.688-4.25 2.125-6a18.83 18.83 0 00-4.563 3.063C4.188 8.563 3 10 2.126 11.5c-.25.375-.25.688 0 1 1.625 2.75 3.813 4.938 6.688 6.563C11.624 20.688 14.686 21.5 18 21.5c3.25 0 6.313-.75 9.188-2.375C30 17.5 32.25 15.312 33.874 12.5zM14 10c0 1.125.375 2.125 1.125 2.875S16.875 14 18 14s2.063-.375 2.813-1.125A4.012 4.012 0 0022 10c0-1.125-.438-2.063-1.188-2.813S19.125 6 18 6a3.82 3.82 0 00-1.875.5c.438 0 .813.188 1.125.5.313.313.5.688.5 1.125 0 .5-.188.875-.5 1.188-.313.312-.688.437-1.125.437-.5 0-.875-.125-1.188-.438-.312-.312-.437-.687-.437-1.187-.375.625-.5 1.25-.5 1.875z" fill="#01A0E4"/></svg>