<svg width="32" height="29" fill="none" xmlns="http://www.w3.org/2000/svg"><path d="M15.75 11.875c1.203 0 2.188.438 3.063 1.313.875.874 1.312 1.859 1.312 3.062 0 1.203-.438 2.242-1.313 3.117s-1.859 1.258-3.062 1.258c-1.203 0-2.242-.383-3.117-1.258s-1.258-1.914-1.258-3.117.383-2.188 1.258-3.063c.875-.874 1.914-1.312 3.117-1.312zm0 7c.71 0 1.313-.219 1.86-.766a2.514 2.514 0 00.765-1.859c0-.71-.273-1.313-.766-1.86-.547-.492-1.148-.765-1.859-.765-.766 0-1.367.273-1.86.766-.546.546-.765 1.148-.765 1.859 0 .766.219 1.367.766 1.86.492.546 1.093.765 1.859.765zM28 4c.93 0 1.75.383 2.46 1.04.657.71 1.04 1.53 1.04 2.46V25c0 .984-.383 1.805-1.04 2.46-.71.712-1.53 1.04-2.46 1.04H3.5c-.984 0-1.805-.328-2.46-1.04C.327 26.806 0 25.985 0 25V7.5c0-.93.328-1.75 1.04-2.46C1.694 4.382 2.515 4 3.5 4h8.75V2.25c0-.438.164-.875.492-1.203C13.07.719 13.508.5 14 .5h3.5c.438 0 .875.219 1.203.547.328.328.547.766.547 1.203V4H28zM14 2.25V7.5h3.5V2.25H14zm7 24.5v-1.203c0-.492-.164-.93-.438-1.367-.437-.602-1.039-.93-1.914-.93-.218 0-.546.055-.984.164-.656.219-1.312.273-1.914.273-.656 0-1.258-.054-1.914-.273-.438-.11-.766-.164-.984-.164-.438 0-.82.11-1.149.273-.328.165-.601.383-.765.657-.329.437-.438.875-.438 1.367v1.203H21zM29.75 25V7.5c0-.438-.219-.875-.547-1.203-.328-.328-.765-.547-1.203-.547h-8.75v3.5h-7v-3.5H3.5c-.492 0-.93.219-1.258.547A1.697 1.697 0 001.75 7.5V25c0 .492.164.93.492 1.258.328.328.766.492 1.258.492h5.25v-1.203c0-.82.219-1.586.71-2.352.33-.547.821-.93 1.423-1.258a4.718 4.718 0 011.969-.437c.328 0 .82.11 1.367.219a5.179 5.179 0 001.531.218c.438 0 .984-.054 1.531-.218.547-.11.985-.219 1.422-.219.656 0 1.258.164 1.86.438.601.328 1.093.71 1.476 1.257.438.766.711 1.532.711 2.352v1.203H28c.438 0 .875-.164 1.203-.492.328-.328.547-.766.547-1.258z" fill="#01A0E4"/></svg>