<svg width="16" height="32" fill="none" xmlns="http://www.w3.org/2000/svg"><path d="M12 16.188c1.125.375 2.125 1.125 2.875 2.187C15.625 19.5 16 20.688 16 22c0 1.688-.563 3.125-1.625 4.25C13.25 27.438 11.937 28 10.437 28H9v3.5c0 .125-.063.25-.188.375C8.688 32 8.626 32 8.5 32h-1c-.125 0-.25 0-.375-.125S7 31.625 7 31.5V28H5.812c-1 0-1.937-.188-2.812-.563-.875-.375-1.688-.875-2.375-1.562C.5 25.75.5 25.625.5 25.5s0-.25.125-.375l.75-.688a.477.477 0 01.313-.125c.125 0 .25.063.375.188 1.062 1 2.312 1.5 3.75 1.5h4.625c1 0 1.812-.375 2.5-1.188C13.624 24.063 14 23.125 14 22a4.31 4.31 0 00-.75-2.438c-.5-.687-1.125-1.187-1.875-1.437L4 15.812c-1.188-.374-2.125-1.062-2.875-2.187C.375 12.562 0 11.375 0 10c0-1.625.5-3.063 1.625-4.25C2.688 4.625 4 4 5.563 4H7V.5c0-.125 0-.188.125-.313C7.25.064 7.375 0 7.5 0h1c.125 0 .188.063.313.188C8.937.311 9 .374 9 .5V4h1.188a6.99 6.99 0 012.75.563c.874.375 1.687.937 2.437 1.562.125.125.125.313.125.438s-.063.25-.125.312l-.75.688c-.125.125-.25.125-.375.125s-.25 0-.313-.125C12.813 6.563 11.563 6 10.188 6H5.564c-1 0-1.875.438-2.563 1.188C2.312 8 2 8.938 2 10c0 .938.188 1.75.688 2.438.5.75 1.124 1.187 1.937 1.437L12 16.188z" fill="#01A0E4"/></svg>