<svg width="28" height="28" fill="none" xmlns="http://www.w3.org/2000/svg"><path d="M1.422 7.125c-.106 0-.211 0-.317-.105C1 6.914 1 6.809 1 6.703V5.86c0-.105 0-.158.105-.263.106-.106.211-.159.317-.159h4.64V.798c0-.106 0-.158.106-.264.105-.105.21-.158.316-.158h.844c.106 0 .158.053.264.158.105.106.158.158.158.264v4.64h4.64c.106 0 .159.053.264.159.106.105.159.158.159.263v.844c0 .106-.053.211-.159.317-.105.105-.158.105-.263.105H7.75v4.64c0 .106-.053.212-.158.317-.106.105-.158.105-.264.105h-.844c-.105 0-.21 0-.316-.105-.106-.105-.106-.21-.106-.316V7.125h-4.64zm25.312-5.484c.317.105.633.263.897.58.21.316.369.685.369 1.002 0 4.43-1.107 8.49-3.322 12.234a23.46 23.46 0 01-8.649 8.648c-3.744 2.215-7.804 3.27-12.181 3.27a1.48 1.48 0 01-1.002-.37 1.295 1.295 0 01-.58-.896l-1.213-5.326c-.106-.369-.106-.738.105-1.107.158-.317.422-.58.844-.791l5.695-2.426c.317-.105.686-.158 1.055-.053.316.106.633.264.896.528l2.32 2.847a18.694 18.694 0 004.905-3.533c1.424-1.424 2.584-3.059 3.533-4.904l-2.847-2.32c-.317-.211-.475-.528-.58-.897-.106-.316-.053-.686.105-1.055l2.426-5.695c.158-.37.422-.633.79-.844a1.56 1.56 0 011.108-.105l5.326 1.213zM3.9 25.688c4.008 0 7.805-1.002 11.285-3.06 3.376-1.95 6.065-4.64 8.069-8.068 2.004-3.427 3.058-7.171 3.058-11.285L21.04 2.063l-2.426 5.695 3.85 3.111c-1.266 2.742-2.742 4.957-4.377 6.592-1.688 1.687-3.85 3.111-6.592 4.377l-3.111-3.85-5.695 2.426L3.9 25.687z" fill="#01A0E4"/></svg>