<svg width="30" height="27" fill="none" xmlns="http://www.w3.org/2000/svg"><path d="M28.945 22.594L16.758 1.469a2.495 2.495 0 00-1.32-1.067 2.38 2.38 0 00-1.676 0c-.559.203-.965.559-1.27 1.067L.305 22.594C0 23.152-.051 23.71.05 24.269c.101.56.355 1.016.812 1.422.407.407.965.559 1.575.559h24.375c.609 0 1.117-.152 1.574-.559.406-.406.71-.863.812-1.421.102-.56 0-1.118-.254-1.676zm-1.422.812c.102.305.102.559-.05.813-.153.304-.356.406-.66.406H2.438c-.305 0-.56-.102-.711-.406-.153-.254-.153-.508 0-.813L13.914 2.281a.81.81 0 01.711-.406c.305 0 .508.152.71.406l12.188 21.125zm-12.898-4.265c.406 0 .71.152 1.016.406.254.305.406.61.406 1.015 0 .407-.152.762-.406 1.016-.305.305-.61.406-1.016.406s-.762-.101-1.016-.406c-.304-.254-.406-.61-.406-1.015 0-.407.102-.711.406-1.016.254-.254.61-.406 1.016-.406zm-.559-10.766a.776.776 0 00-.507.203.394.394 0 00-.102.406l.355 8.582c0 .153.051.305.153.407.101.101.254.152.457.152h.406c.152 0 .305-.05.406-.152a.644.644 0 00.204-.457l.355-8.532a.577.577 0 00-.152-.406.644.644 0 00-.457-.203h-1.118zm.559 10.766c.406 0 .71.152 1.016.406.254.305.406.61.406 1.015 0 .407-.152.762-.406 1.016-.305.305-.61.406-1.016.406s-.762-.101-1.016-.406c-.304-.254-.406-.61-.406-1.015 0-.407.102-.711.406-1.016.254-.254.61-.406 1.016-.406z" fill="#01A0E4"/></svg>