<svg width="32" height="29" fill="none" xmlns="http://www.w3.org/2000/svg"><path d="M28.875.5c.71 0 1.313.273 1.86.766.492.546.765 1.148.765 1.859v15.75c0 .766-.273 1.367-.766 1.86-.547.546-1.148.765-1.859.765h-10.5l1.313 5.25h3.937c.219 0 .438.11.602.273a.878.878 0 01.273.602.91.91 0 01-.273.656c-.165.164-.383.219-.602.219H7.875c-.273 0-.492-.055-.656-.219-.164-.164-.219-.383-.219-.656 0-.219.055-.438.219-.602a.906.906 0 01.656-.273h3.938l1.312-5.25h-10.5c-.766 0-1.367-.219-1.86-.766C.22 20.242 0 19.641 0 18.875V3.125c0-.71.219-1.313.766-1.86A2.514 2.514 0 012.625.5h26.25zM13.617 26.75h4.266l-.875-3.5h-2.516l-.875 3.5zm16.133-7.875V16.25h-28v2.625c0 .273.055.492.219.656.164.164.383.219.656.219h26.25c.219 0 .438-.055.602-.219a.906.906 0 00.273-.656zm0-4.375V3.125a.878.878 0 00-.273-.602.878.878 0 00-.602-.273H2.625a.906.906 0 00-.656.273c-.164.164-.219.383-.219.602V14.5h28z" fill="#01A0E4"/></svg>