<svg width="28" height="29" fill="none" xmlns="http://www.w3.org/2000/svg"><path d="M10.5 12.75v7c0 .492-.219.93-.547 1.258a1.697 1.697 0 01-1.203.492H7c-.984 0-1.86-.328-2.516-1.04-.656-.655-.984-1.476-.984-2.46v-3.5c0-.984.328-1.805.984-2.46A3.51 3.51 0 017 11h1.75c.438 0 .875.219 1.203.547.328.328.547.765.547 1.203zm-1.75 7v-7H7c-.492 0-.93.219-1.258.547A1.696 1.696 0 005.25 14.5V18c0 .492.164.93.492 1.258.328.328.766.492 1.258.492h1.75zM21 21.5h-1.75c-.492 0-.93-.164-1.258-.492-.328-.328-.492-.766-.492-1.258v-7c0-.438.164-.875.492-1.203.328-.328.766-.547 1.258-.547H21c.984 0 1.805.383 2.46 1.04.657.655 1.04 1.476 1.04 2.46V18c0 .984-.383 1.805-1.04 2.46-.655.712-1.476 1.04-2.46 1.04zm-1.75-8.75v7H21c.438 0 .875-.164 1.203-.492.328-.328.547-.766.547-1.258v-3.5c0-.438-.219-.875-.547-1.203-.328-.328-.765-.547-1.203-.547h-1.75zM14 .5c2.516 0 4.813.656 7 1.914A14.168 14.168 0 0126.086 7.5C27.344 9.688 28 11.984 28 14.5v9.625c0 1.203-.438 2.242-1.313 3.117S24.828 28.5 23.625 28.5h-10.5c-.766 0-1.367-.219-1.86-.766-.546-.492-.765-1.093-.765-1.859 0-.71.219-1.313.766-1.86a2.514 2.514 0 011.859-.765h3.5c.71 0 1.313.273 1.86.766.492.547.765 1.148.765 1.859 0 .328-.055.602-.164.875h4.539c.71 0 1.313-.219 1.86-.766a2.514 2.514 0 00.765-1.859V14.5c0-2.188-.547-4.266-1.64-6.125a12.585 12.585 0 00-4.485-4.484C18.265 2.797 16.187 2.25 14 2.25c-2.242 0-4.32.602-6.18 1.695C6.016 5.04 4.594 6.57 3.5 8.43c-1.094 1.86-1.695 3.883-1.75 6.07v1.313c0 .109-.055.218-.164.328-.11.109-.164.109-.274.109H.438c-.109 0-.218 0-.328-.11-.11-.108-.11-.217-.11-.327V14.5c.055-2.516.71-4.813 1.969-6.945 1.258-2.133 2.898-3.828 4.976-5.086C9.133 1.156 11.485.5 14 .5zm2.625 26.25c.219 0 .438-.055.602-.219a.906.906 0 00.273-.656.878.878 0 00-.273-.602.878.878 0 00-.602-.273h-3.5a.906.906 0 00-.656.273c-.164.165-.219.383-.219.602 0 .273.055.492.219.656.164.164.383.219.656.219h3.5z" fill="#01A0E4"/></svg>