<svg width="26" height="30" fill="none" xmlns="http://www.w3.org/2000/svg"><path d="M19.484 14.219c.114 0 .17.056.284.17.113.113.17.17.17.283v.906c0 .113-.057.227-.17.34-.114.113-.17.113-.284.113H5.891c-.114 0-.227 0-.34-.113-.114-.113-.114-.227-.114-.34v-.906c0-.113 0-.17.114-.283.113-.114.226-.17.34-.17h13.593zm0 5.437c.114 0 .17.057.284.17.113.113.17.17.17.283v.907c0 .113-.057.226-.17.34-.114.113-.17.113-.284.113H5.891c-.114 0-.227 0-.34-.114-.114-.113-.114-.226-.114-.34v-.906c0-.113 0-.17.114-.283.113-.113.226-.17.34-.17h13.593zM23.676.625c.453 0 .85.17 1.19.51.34.34.509.736.509 1.19v25.6c0 .51-.17.907-.51 1.247-.34.34-.736.453-1.19.453-.34 0-.679-.113-.962-.34L20.22 27.53l-2.153 1.586a2.95 2.95 0 01-1.642.51c-.567 0-1.076-.17-1.53-.51l-2.209-1.586-2.208 1.586a2.65 2.65 0 01-1.586.51 2.65 2.65 0 01-1.586-.51L5.154 27.53l-2.492 1.756c-.34.227-.623.34-.963.34-.453 0-.85-.113-1.19-.453A1.664 1.664 0 010 27.927V2.324c0-.453.17-.85.51-1.19.34-.34.736-.509 1.19-.509.34 0 .622.113.962.34L5.154 2.72l2.153-1.586a2.65 2.65 0 011.586-.51c.566 0 1.132.17 1.585.51l2.21 1.586 2.208-1.586c.454-.34.963-.51 1.53-.51.566 0 1.133.17 1.642.51l2.153 1.586L22.713.965c.283-.227.623-.34.963-.34zm-.113 27.074V2.551L20.22 4.93l-3.229-2.323a.914.914 0 00-.51-.17.957.957 0 00-.566.17L12.687 4.93 9.46 2.607c-.227-.113-.396-.17-.566-.17-.227 0-.397.057-.51.17L5.154 4.93 1.813 2.55V27.7l3.341-2.436 3.229 2.379c.113.113.283.17.51.17a.957.957 0 00.566-.17l3.229-2.38 3.228 2.38c.17.113.34.17.566.17.17 0 .34-.057.51-.17l3.229-2.38 1.076.794 2.265 1.642zm-4.08-18.918c.114 0 .17.057.284.17.113.113.17.17.17.283v.907c0 .113-.057.226-.17.34-.114.113-.17.113-.284.113H5.891c-.114 0-.227 0-.34-.114-.114-.113-.114-.226-.114-.34v-.906c0-.113 0-.17.114-.283.113-.113.226-.17.34-.17h13.593z" fill="#01A0E4"/></svg>