<svg width="33" height="26" fill="none" xmlns="http://www.w3.org/2000/svg"><path d="M20.39 16.563c-.113 0-.226 0-.34-.114-.113-.113-.113-.226-.113-.34v-.906c0-.113 0-.17.114-.283.113-.113.226-.17.34-.17h6.343c.114 0 .17.057.284.17.113.113.17.17.17.283v.906c0 .114-.057.227-.17.34-.114.113-.17.113-.284.113h-6.343zm0-3.625c-.113 0-.226 0-.34-.114-.113-.113-.113-.226-.113-.34v-.906c0-.113 0-.17.114-.283.113-.113.226-.17.34-.17h6.343c.114 0 .17.057.284.17.113.113.17.17.17.283v.906c0 .114-.057.227-.17.34-.114.114-.17.114-.284.114h-6.343zm0 7.25c-.113 0-.226 0-.34-.114-.113-.113-.113-.226-.113-.34v-.906c0-.113 0-.17.114-.283.113-.113.226-.17.34-.17h6.343c.114 0 .17.057.284.17.113.113.17.17.17.283v.906c0 .114-.057.227-.17.34-.114.113-.17.113-.284.113h-6.343zm-9.515-1.813c-1.246 0-2.322-.396-3.229-1.303-.906-.906-1.302-1.982-1.302-3.228 0-1.246.396-2.266 1.302-3.172.907-.906 1.983-1.36 3.229-1.36s2.266.454 3.172 1.36c.906.906 1.36 1.926 1.36 3.172 0 1.246-.454 2.322-1.36 3.228-.906.907-1.926 1.303-3.172 1.303zm0-7.25c-.793 0-1.416.283-1.926.793-.566.566-.793 1.19-.793 1.926 0 .793.227 1.416.793 1.926.51.566 1.133.793 1.926.793.736 0 1.36-.227 1.926-.793.51-.51.793-1.133.793-1.926 0-.737-.284-1.36-.793-1.926-.567-.51-1.19-.793-1.926-.793zM29 .25c.963 0 1.813.396 2.549 1.076.68.736 1.076 1.586 1.076 2.549V22c0 1.02-.397 1.87-1.076 2.549-.736.736-1.586 1.076-2.549 1.076H3.625c-1.02 0-1.87-.34-2.549-1.076C.34 23.869 0 23.019 0 22V3.875c0-.963.34-1.813 1.076-2.549C1.756.646 2.606.25 3.625.25H29zM15.406 23.813v-.85c0-.397-.113-.793-.34-1.133-.34-.453-.85-.736-1.529-.736-.227 0-.51.056-.85.17-.68.17-1.246.226-1.812.226-.566 0-1.19-.056-1.813-.226-.396-.114-.68-.17-.85-.17-.679 0-1.189.283-1.528.736-.227.34-.34.736-.34 1.133v.85h9.062zM30.812 22V7.5h-29V22c0 .51.17.963.51 1.303.34.34.793.51 1.303.51h.906v-.85c0-.793.17-1.473.623-2.152.34-.454.737-.85 1.303-1.133.566-.227 1.133-.397 1.756-.397.34 0 .793.114 1.246.227.453.113.963.17 1.416.17.453 0 .906-.057 1.36-.17.453-.113.906-.227 1.302-.227.566 0 1.133.17 1.7.397a3.84 3.84 0 011.359 1.133c.396.68.623 1.359.623 2.152v.85H29c.453 0 .906-.17 1.246-.51.34-.34.567-.793.567-1.303zm0-16.313V3.875c0-.453-.226-.906-.566-1.246-.34-.34-.793-.567-1.246-.567H3.625c-.51 0-.963.227-1.303.567-.34.34-.51.793-.51 1.246v1.813h29z" fill="#01A0E4"/></svg>