<svg width="26" height="29" fill="none" xmlns="http://www.w3.org/2000/svg"><path d="M20.742 10.781a3.163 3.163 0 012.133-.273c.766.164 1.367.547 1.86 1.094.492.601.765 1.312.765 2.078v4.758c0 .273-.055.546-.11.765l-1.53 6.727c-.22.765-.602 1.422-1.15 1.86-.6.491-1.257.71-2.023.71h-10.17c-.547 0-1.04-.11-1.477-.328-.492-.219-.875-.602-1.148-1.04L1.6 18.438c-.546-.765-.71-1.585-.546-2.46.11-.875.547-1.586 1.258-2.133a2.97 2.97 0 011.859-.656c.656 0 1.312.218 1.914.546V3.781c0-.875.273-1.64.93-2.297C7.672.828 8.437.5 9.312.5c.876 0 1.641.328 2.297.984.657.657.985 1.422.985 2.297v4.813a3.035 3.035 0 011.969 0c.656.219 1.203.547 1.64 1.094.766-.438 1.586-.602 2.461-.383.875.218 1.531.71 2.078 1.476zM5.484 15.594c-.382-.492-.875-.711-1.421-.602-.547.11-.985.383-1.204.875-.273.492-.218.985.164 1.531l6.29 8.696c.273.437.656.656 1.203.656h10.171c.329 0 .602-.11.875-.328a1.69 1.69 0 00.602-.875l1.531-6.727c0-.11.055-.218.055-.383V13.68c0-.602-.273-1.04-.766-1.313-.547-.219-1.039-.219-1.53 0-.493.274-.712.711-.712 1.313 0 .164-.055.273-.164.328-.11.11-.164.11-.273.11h-.438c-.11 0-.219 0-.328-.11-.11-.055-.11-.164-.11-.328v-1.15c0-.656-.273-1.094-.765-1.367a1.743 1.743 0 00-1.477 0c-.546.274-.765.711-.765 1.367v1.149c0 .164-.055.273-.164.328-.11.11-.164.11-.274.11h-.382c-.11 0-.22 0-.329-.11-.109-.055-.109-.164-.109-.328v-1.97c0-.6-.273-1.038-.766-1.312-.546-.218-1.039-.218-1.53 0-.548.274-.766.711-.766 1.313v1.969c0 .164-.055.273-.11.328-.11.11-.219.11-.328.11h-.383c-.11 0-.219 0-.328-.11-.11-.055-.11-.164-.11-.328V3.78c0-.601-.273-1.039-.765-1.312a1.743 1.743 0 00-1.476 0c-.547.273-.766.71-.766 1.312v13.672c.11.219.055.383-.055.547-.11.164-.273.219-.492.164-.219-.055-.273-.219-.273-.437l-1.532-2.133zm5.36 6.836c0 .11 0 .218.11.328.108.11.218.11.327.11h.383c.11 0 .219 0 .328-.11.055-.11.11-.219.11-.328v-4.758c0-.11-.055-.164-.11-.274-.11-.109-.219-.164-.328-.164h-.383c-.11 0-.219.055-.328.164-.11.11-.11.165-.11.274v4.758zm4.32 0c0 .11 0 .218.11.328.109.11.218.11.328.11h.382c.11 0 .164 0 .274-.11.11-.11.164-.219.164-.328v-4.758c0-.11-.055-.164-.164-.274-.11-.109-.164-.164-.274-.164h-.382c-.11 0-.22.055-.329.164-.109.11-.109.165-.109.274v4.758zm4.266 0c0 .11 0 .218.11.328.108.11.218.11.327.11h.438c.11 0 .164 0 .273-.11.11-.11.164-.219.164-.328v-4.758c0-.11-.055-.164-.164-.274-.11-.109-.164-.164-.273-.164h-.438c-.11 0-.219.055-.328.164-.11.11-.11.165-.11.274v4.758z" fill="#01A0E4"/></svg>