<svg width="34" height="27" fill="none" xmlns="http://www.w3.org/2000/svg"><path fill-rule="evenodd" clip-rule="evenodd" d="M3.632 2.71A2.586 2.586 0 016.217.126h18.816a2.585 2.585 0 012.585 2.586v2.907h-1.75V2.711a.835.835 0 00-.835-.836H6.217a.836.836 0 00-.835.836v13.15H18.96v1.75H1.875v.297a2.546 2.546 0 002.546 2.546h14.54v1.75H4.42a4.296 4.296 0 01-4.296-4.296v-.829c0-.672.545-1.217 1.217-1.217h2.29V2.71z" fill="#009EE2"/><path fill-rule="evenodd" clip-rule="evenodd" d="M23.362 10.105V25.25h8.645V10.105h-8.645zm-.04-1.75a1.71 1.71 0 00-1.71 1.711V25.29c0 .944.766 1.71 1.71 1.71h8.724a1.71 1.71 0 001.71-1.71V10.066a1.71 1.71 0 00-1.71-1.71h-8.724z" fill="#009EE2"/></svg>