<svg width="30" height="27" fill="none" xmlns="http://www.w3.org/2000/svg"><path d="M5.625 8.125c.469 0 .938-.176 1.29-.527.35-.352.585-.82.585-1.348 0-.469-.234-.938-.586-1.29-.351-.35-.82-.585-1.289-.585-.527 0-.996.234-1.348.586-.351.351-.527.82-.527 1.289 0 .527.176.996.527 1.348.352.351.82.527 1.348.527zm7.5-1.875c0 .527-.234.996-.586 1.348-.351.351-.82.527-1.289.527-.527 0-.996-.176-1.348-.527-.351-.352-.527-.82-.527-1.348 0-.469.176-.938.527-1.29.352-.35.82-.585 1.348-.585.469 0 .938.234 1.29.586.35.351.585.82.585 1.289zm5.625 0c0 .527-.234.996-.586 1.348a1.82 1.82 0 01-1.289.527c-.527 0-.996-.176-1.348-.527-.351-.352-.527-.82-.527-1.348 0-.469.176-.938.527-1.29.352-.35.82-.585 1.348-.585.469 0 .938.234 1.29.586.35.351.585.82.585 1.289zM30 3.437c0-.761-.293-1.406-.82-1.992-.586-.527-1.23-.82-1.992-.82H2.813c-.82 0-1.465.293-1.993.82C.234 2.031 0 2.675 0 3.437v20.625c0 .82.234 1.465.82 1.993.528.586 1.172.82 1.993.82h24.375c.761 0 1.406-.234 1.992-.82.527-.528.82-1.172.82-1.992V3.438zm-1.875 8.438v12.188a.97.97 0 01-.293.703c-.176.175-.41.234-.645.234H2.813c-.292 0-.527-.059-.703-.234-.175-.176-.234-.41-.234-.703V11.874h26.25zm0-1.875H1.875V3.437c0-.234.059-.468.234-.644a.97.97 0 01.704-.293h24.375c.234 0 .468.117.644.293s.293.41.293.644V10z" fill="#01A0E4"/></svg>