<svg width="28" height="29" fill="none" xmlns="http://www.w3.org/2000/svg"><path d="M28 14.5c0 .273-.11.547-.219.766a1.709 1.709 0 01-.601.492l-5.414 2.351 5.414 2.352c.218.11.437.328.601.547.11.219.219.492.219.765 0 .274-.11.493-.219.711a1.71 1.71 0 01-.601.493l-12.305 5.359A2.72 2.72 0 0114 28.5c-.328 0-.602-.055-.875-.164L.82 22.976c-.273-.109-.492-.273-.601-.492-.164-.218-.219-.437-.219-.71 0-.274.055-.547.219-.766.11-.219.328-.438.601-.547l5.414-2.352L.82 15.758c-.273-.11-.492-.274-.601-.492C.055 15.046 0 14.773 0 14.5c0-.219.055-.492.219-.71.11-.22.328-.438.601-.548l5.47-2.351L.82 8.539c-.273-.109-.492-.273-.6-.492C.055 7.828 0 7.555 0 7.28c0-.273.055-.547.219-.765.11-.22.328-.383.601-.493L13.125.664c.547-.219 1.148-.219 1.75 0l12.305 5.36c.218.109.437.273.601.492.11.218.219.492.219.765 0 .274-.11.547-.219.766a1.71 1.71 0 01-.601.492l-5.47 2.352 5.47 2.351c.218.11.437.328.601.547.11.219.219.492.219.711zM2.46 7.281l11.376 4.922c.11.055.219.055.328 0L25.54 7.281 14.164 2.36a.349.349 0 00-.328 0L2.46 7.281zM25.54 21.72l-6.071-2.625-4.594 2.023c-.328.11-.602.164-.875.164-.328 0-.602-.054-.875-.164l-4.594-2.023-6.07 2.625 11.375 4.922c.11.109.219.109.328 0l11.375-4.922zm-11.376-2.297L25.54 14.5l-6.07-2.625-4.594 1.969a1.876 1.876 0 01-.875.219c-.328 0-.602-.055-.875-.22l-4.594-1.968-6.07 2.625 11.375 4.922c.11.055.219.055.328 0z" fill="#01A0E4"/></svg>