<svg width="30" height="31" fill="none" xmlns="http://www.w3.org/2000/svg"><path d="M29.121 17.508c.117.703.176 1.406.059 2.11-.117.76-.293 1.405-.645 1.933.117.703.059 1.406-.117 2.11-.234.702-.527 1.347-.938 1.816 0 1.64-.41 2.93-1.347 3.867-.938.937-2.285 1.406-3.985 1.406h-2.402c-1.172 0-2.46-.176-3.867-.527-.82-.176-1.992-.528-3.399-1.055l-1.757-.586c-.586-.117-.996-.234-1.348-.234v.527c0 .527-.234.996-.586 1.348-.351.351-.82.527-1.289.527H1.875c-.527 0-.996-.176-1.348-.527C.176 29.87 0 29.403 0 28.875v-15c0-.469.176-.938.527-1.29.352-.35.82-.585 1.348-.585H7.5c.645 0 1.172.293 1.523.82.176 0 .352-.058.47-.117.35-.176.76-.586 1.347-1.23.351-.352.879-.996 1.582-1.934.82-1.172 1.465-1.934 1.875-2.285.234-.234.41-.586.586-1.113.117-.293.234-.762.351-1.465.47-2.578 1.407-3.926 2.754-3.926 1.64 0 2.871.469 3.692 1.406.761.938 1.172 2.285 1.172 4.043 0 .762-.118 1.524-.352 2.227-.176.469-.41.996-.762 1.699l-.117.176h4.102c1.172 0 2.168.469 2.988 1.289.82.879 1.289 1.875 1.289 3.047 0 1.172-.293 2.11-.879 2.87zM1.875 28.875H7.5v-15H1.875v15zm24.844-11.953c.468-.117.82-.352 1.054-.82.235-.41.352-.938.352-1.524a2.31 2.31 0 00-.703-1.64c-.469-.47-1.055-.762-1.7-.762H19.16c0-.528.059-1.055.293-1.582.117-.293.293-.762.586-1.348.293-.586.527-1.055.645-1.406.175-.527.293-1.055.293-1.64 0-1.055-.176-1.876-.41-2.345-.47-.82-1.29-1.23-2.579-1.23a2.266 2.266 0 00-.586 1.055c-.117.293-.234.761-.351 1.347-.176.88-.293 1.524-.41 1.875-.293.703-.645 1.29-1.055 1.7-.41.41-1.055 1.171-1.875 2.285-.938 1.23-1.64 2.05-2.11 2.52-.82.82-1.582 1.171-2.226 1.171v11.895c.469 0 1.055.117 1.758.293.41.117 1.113.351 2.11.703 1.288.468 2.343.761 3.046.937 1.23.352 2.402.469 3.457.469h2.402c1.172 0 2.11-.293 2.696-.938.644-.703.879-1.757.644-3.222.528-.235.88-.762 1.114-1.524.234-.761.117-1.464-.235-2.109.41-.176.703-.586.88-1.172.116-.586.175-1.172.058-1.758-.117-.586-.293-.996-.586-1.23zm-20.625 9.14c0-.351-.176-.703-.41-.996-.293-.234-.645-.41-.997-.41-.41 0-.761.176-.996.41-.293.293-.41.645-.41.997 0 .41.117.761.41.996.235.293.586.41.997.41.351 0 .703-.117.996-.41.234-.235.41-.586.41-.997z" fill="#01A0E4"/></svg>