<svg width="23" height="31" fill="none" xmlns="http://www.w3.org/2000/svg"><path d="M22.5 9.188c0 1.113-.352 2.109-1.055 2.93a4.523 4.523 0 01-2.636 1.64c-.059 1.465-.41 2.637-1.114 3.515-.703.88-1.699 1.465-2.93 1.817-.82.234-2.05.469-3.69.586-1.055.117-1.759.234-2.227.293-.762.117-1.407.293-1.875.527a2.3 2.3 0 00-1.055 1.055c.996.293 1.816.879 2.46 1.699.645.82.997 1.758.997 2.813 0 1.289-.469 2.402-1.406 3.34-.938.937-1.992 1.347-3.282 1.347-1.289 0-2.402-.41-3.34-1.348C.41 28.465 0 27.352 0 26.062c0-1.113.352-2.109 1.055-2.988.703-.82 1.582-1.347 2.695-1.582V10.008c-1.113-.176-1.992-.703-2.695-1.582C.352 7.606 0 6.609 0 5.437c0-1.289.41-2.343 1.348-3.28C2.285 1.218 3.398.75 4.688.75c1.289 0 2.343.469 3.28 1.406.938.938 1.407 1.992 1.407 3.281 0 1.172-.352 2.168-1.055 2.989a4.297 4.297 0 01-2.695 1.582v9.14c.117-.117.352-.234.586-.351a11.53 11.53 0 012.226-.645c.528-.117 1.348-.234 2.461-.351 1.407-.117 2.461-.235 3.106-.41.996-.235 1.7-.645 2.168-1.23.469-.587.703-1.349.762-2.345-1.114-.234-2.051-.761-2.754-1.64-.703-.82-1.055-1.817-1.055-2.989 0-1.289.41-2.343 1.348-3.28.937-.938 2.05-1.407 3.34-1.407 1.289 0 2.343.469 3.28 1.406.938.938 1.407 1.992 1.407 3.282zM1.875 5.438c0 .82.234 1.464.82 1.992.528.586 1.172.82 1.993.82.761 0 1.406-.234 1.992-.82.527-.528.82-1.172.82-1.992 0-.762-.293-1.407-.82-1.993-.586-.527-1.23-.82-1.992-.82-.82 0-1.465.293-1.993.82-.586.586-.82 1.23-.82 1.993zM7.5 26.063c0-.762-.293-1.407-.82-1.993-.586-.527-1.23-.82-1.992-.82-.82 0-1.465.293-1.993.82-.586.586-.82 1.23-.82 1.992 0 .82.234 1.465.82 1.993.528.586 1.172.82 1.993.82.761 0 1.406-.234 1.992-.82.527-.528.82-1.172.82-1.992zm11.016-14.18v.058a3.299 3.299 0 001.523-.996 2.879 2.879 0 00.586-1.758c0-.761-.293-1.406-.82-1.992-.586-.527-1.23-.82-1.992-.82-.82 0-1.465.293-1.993.82-.586.586-.82 1.23-.82 1.992 0 .82.234 1.465.82 1.993.528.586 1.172.82 1.992.82l.704-.117z" fill="#01A0E4"/></svg>