<svg width="34" height="31" fill="none" xmlns="http://www.w3.org/2000/svg"><path d="M29.707 15.75c1.172 0 2.168.469 2.93 1.406.703.938 1.113 1.992 1.113 3.282 0 1.289-.41 2.46-1.113 3.398-.762.937-1.7 1.406-2.871 1.406a3.626 3.626 0 01-1.7-.41c-.41-.117-.937-.41-1.523-.82-.586-.41-.996-.645-1.23-.762-.47-.117-.762 0-.938.293-.469.586-.586 1.816-.293 3.574.117.938.352 1.875.703 2.93v.058c-1.055 0-2.52.118-4.394.293-1.817.235-3.106.293-3.809.235-1.23-.059-2.11-.352-2.695-.88-.586-.468-.88-1.171-.88-1.991 0-.586.118-1.114.352-1.582.118-.235.41-.645.762-1.114.293-.351.469-.585.586-.82.176-.293.293-.644.293-.996 0-.469-.234-.82-.586-1.172-.527-.469-1.289-.703-2.285-.703-.82 0-1.465.176-1.934.41-.586.352-.82.82-.82 1.465 0 .469.059.879.293 1.29.117.233.293.585.645.995.292.469.527.762.644.938.176.351.293.761.293 1.113 0 1.172-.527 1.992-1.582 2.52-.879.468-2.05.644-3.457.644-1.758 0-3.867-.293-6.211-.879V9.656a26.32 26.32 0 004.688.82c2.167.235 3.632.06 4.335-.527.293-.176.41-.41.352-.761-.059-.176-.234-.528-.527-.997-.41-.527-.703-.996-.82-1.406-.294-.586-.41-1.289-.41-1.992 0-1.172.468-2.168 1.523-2.988.937-.703 2.05-1.055 3.457-1.055 1.23 0 2.285.41 3.105 1.113.82.703 1.29 1.64 1.29 2.813 0 .586-.177 1.23-.411 1.816-.234.352-.527.88-.879 1.465-.351.527-.586.879-.644 1.055-.118.351-.118.586.117.761.644.586 2.168.762 4.629.528 1.406-.059 3.047-.293 4.98-.645-.937 4.16-1.055 6.739-.234 7.735.176.234.41.293.703.175.176 0 .469-.175.937-.527.586-.352 1.055-.645 1.465-.82a4.597 4.597 0 012.051-.469zm.059 7.617c.468 0 .937-.234 1.406-.703.469-.527.703-1.289.703-2.227 0-.761-.234-1.406-.586-1.992-.41-.527-.937-.82-1.582-.82-.469 0-.938.117-1.348.293-.293.176-.644.41-1.113.703-.469.352-.762.527-.996.586-.41.234-.762.293-1.113.293-1.465 0-2.403-.82-2.754-2.578-.352-1.29-.352-2.93 0-4.98-2.461.351-4.395.41-5.86.175-2.285-.293-3.398-1.172-3.398-2.695 0-.527.117-1.055.352-1.582.117-.235.41-.645.761-1.172a5.41 5.41 0 00.645-.938c.117-.351.234-.703.234-1.054 0-.703-.293-1.23-.82-1.582a3.204 3.204 0 00-1.7-.469c-.82 0-1.523.176-2.109.527-.703.47-.996.996-.996 1.641 0 .469.059.879.293 1.348.117.293.293.644.586 1.054.293.47.527.762.645.996.117.352.234.704.234 1.055 0 1.758-1.113 2.754-3.281 3.047-1.64.293-3.633.176-6.094-.293v16.406a21.09 21.09 0 004.512.469c1.992 0 2.988-.41 2.988-1.29 0-.116-.176-.468-.527-.937C7.91 25.477 7.5 24.363 7.5 23.25s.41-1.992 1.23-2.695c.82-.703 1.934-1.055 3.34-1.055 1.407 0 2.578.352 3.457 1.055.88.703 1.348 1.64 1.348 2.695 0 .586-.176 1.172-.469 1.758-.175.351-.468.762-.82 1.289-.41.586-.645.937-.703 1.172-.117.351-.059.586.176.82.351.352 1.171.527 2.46.469.704 0 1.876-.059 3.458-.293l1.406-.176c-.352-1.875-.41-3.398-.117-4.629.351-1.523 1.289-2.285 2.754-2.285.527 0 1.054.117 1.582.352.234.175.644.41 1.171.761.352.293.704.469.938.586.352.235.703.293 1.055.293z" fill="#01A0E4"/></svg>