<svg width="34" height="31" fill="none" xmlns="http://www.w3.org/2000/svg"><path d="M9.375 25.125V23.25h3.75v1.875h-3.75zm1.875-11.25c.469 0 .938.234 1.29.586.35.351.585.82.585 1.289 0 .527-.234.996-.586 1.348-.351.351-.82.527-1.289.527-.527 0-.996-.176-1.348-.527-.351-.352-.527-.82-.527-1.348 0-.469.176-.938.527-1.29.352-.35.82-.585 1.348-.585zm11.25 0c.469 0 .938.234 1.29.586.35.351.585.82.585 1.289 0 .527-.234.996-.586 1.348a1.82 1.82 0 01-1.289.527c-.527 0-.996-.176-1.348-.527-.351-.352-.527-.82-.527-1.348 0-.469.176-.938.527-1.29.352-.35.82-.585 1.348-.585zm9.375 0c.469 0 .938.234 1.29.586.35.351.585.82.585 1.289v7.5c0 .527-.234.996-.586 1.348a1.82 1.82 0 01-1.289.527H30V27c0 1.055-.41 1.934-1.113 2.637-.762.761-1.64 1.113-2.637 1.113H7.5c-1.055 0-1.934-.352-2.637-1.113C4.102 28.934 3.75 28.055 3.75 27v-1.875H1.875c-.527 0-.996-.176-1.348-.527C.176 24.246 0 23.778 0 23.25v-7.5c0-.469.176-.938.527-1.29.352-.35.82-.585 1.348-.585H3.75V12c0-1.523.527-2.871 1.64-3.984C6.446 6.96 7.794 6.375 9.376 6.375h6.563V1.687c0-.234.058-.468.234-.644a.97.97 0 01.703-.293c.234 0 .469.117.645.293.175.176.293.41.293.645v4.687h6.562c1.523 0 2.871.586 3.984 1.64C29.414 9.13 30 10.478 30 12v1.875h1.875zM3.75 23.25v-7.5H1.875v7.5H3.75zM28.125 27V12c0-.996-.41-1.875-1.113-2.637-.762-.703-1.64-1.113-2.637-1.113h-15c-1.055 0-1.934.41-2.637 1.113-.761.762-1.113 1.64-1.113 2.637v15c0 .527.176.996.527 1.348.352.351.82.527 1.348.527h18.75c.469 0 .938-.176 1.29-.527.35-.352.585-.82.585-1.348zm3.75-3.75v-7.5H30v7.5h1.875zm-11.25 1.875V23.25h3.75v1.875h-3.75zm-5.625 0V23.25h3.75v1.875H15z" fill="#01A0E4"/></svg>