<svg width="27" height="27" fill="none" xmlns="http://www.w3.org/2000/svg"><path d="M23.438.625c.761 0 1.406.293 1.992.82.527.586.82 1.23.82 1.992v20.625c0 .82-.293 1.465-.82 1.993-.586.586-1.23.82-1.992.82H2.813c-.82 0-1.465-.234-1.993-.82-.586-.528-.82-1.172-.82-1.992V3.438c0-.762.234-1.407.82-1.993a2.696 2.696 0 011.993-.82h20.625zm.937 23.438V3.438a.938.938 0 00-.293-.645c-.176-.176-.41-.293-.645-.293H2.813a.97.97 0 00-.703.293c-.175.176-.234.41-.234.644v20.625c0 .293.059.528.234.704.176.175.41.234.704.234h20.625c.234 0 .468-.059.644-.234a.97.97 0 00.293-.703zm-11.25-5.391c.469 0 .82.176 1.172.469.293.351.469.703.469 1.172 0 .468-.176.878-.47 1.171-.35.352-.702.47-1.171.47-.469 0-.879-.118-1.172-.47-.351-.293-.469-.703-.469-1.172 0-.468.118-.82.47-1.171a1.636 1.636 0 011.171-.47zm.469-1.406a.665.665 0 00.469-.176.742.742 0 00.234-.527c0-.47.176-.938.527-1.407.235-.234.645-.527 1.348-.996.82-.527 1.465-.996 1.816-1.465.528-.644.82-1.465.82-2.46 0-1.407-.585-2.52-1.64-3.4-1.113-.82-2.461-1.288-4.043-1.288-1.29 0-2.344.234-3.223.703-.761.469-1.464 1.113-2.168 1.934-.117.175-.175.351-.117.527 0 .234.117.351.293.469l.762.527c.117.117.293.176.527.117.176 0 .293-.117.41-.234.47-.586.938-.996 1.465-1.29a5.092 5.092 0 012.051-.41c1.055 0 1.934.294 2.52.762.527.47.82.996.82 1.582 0 .528-.235.996-.586 1.348-.234.234-.645.586-1.29.996-.878.586-1.464 1.055-1.816 1.406-.585.704-.82 1.582-.82 2.579 0 .234.059.41.176.527.117.117.293.176.527.176h.938z" fill="#01A0E4"/></svg>