<svg width="30" height="31" fill="none" xmlns="http://www.w3.org/2000/svg"><path d="M13.125 6.375L12.187 4.5l-1.874-.938 1.874-.937.938-1.875.938 1.875 1.874.938-1.874.937-.938 1.875zm-8.438 3.75L3.106 7.02 0 5.438l3.105-1.583L4.688.75 6.27 3.855l3.105 1.583L6.27 7.02l-1.582 3.105zm0-5.625a.97.97 0 00-.703.293c-.175.176-.234.41-.234.644 0 .293.059.528.234.704.176.175.41.234.704.234.234 0 .468-.059.644-.234a.97.97 0 00.293-.704c0-.234-.117-.468-.293-.644s-.41-.293-.644-.293zm20.625 13.125l1.582 3.105L30 22.313l-3.105 1.582L25.313 27l-1.582-3.105-3.106-1.582 3.105-1.582 1.582-3.106zm0 5.625c.235 0 .47-.059.645-.234a.97.97 0 00.293-.703.938.938 0 00-.293-.645c-.176-.176-.41-.293-.645-.293a.97.97 0 00-.703.293c-.175.176-.234.41-.234.645 0 .293.059.527.234.703.176.175.41.234.703.234zm4.16-17.93c.352.352.528.82.528 1.348 0 .527-.176.937-.527 1.289L7.207 30.223c-.352.351-.82.527-1.348.527-.527 0-.937-.176-1.289-.527L.527 26.18A1.723 1.723 0 010 24.89c0-.527.176-.995.527-1.347L22.793 1.277A1.723 1.723 0 0124.082.75c.527 0 .996.176 1.348.527l4.043 4.043zM5.919 28.875l15.117-15.117-4.043-4.043L1.875 24.832l4.043 4.043zM22.383 12.41l5.742-5.742-4.043-4.043-5.742 5.742 4.043 4.043z" fill="#01A0E4"/></svg>