<svg width="32" height="28" fill="none" xmlns="http://www.w3.org/2000/svg"><path d="M0 6c0 .25.063.438.188.563.124.125.312.187.562.187h6.063l5.375 5.75 1.312-1.438L7.937 5c-.187-.125-.375-.25-.562-.25H.75A.792.792 0 00.187 5 .71.71 0 000 5.5V6zm31.438 17.438c.375-.375.562-.875.562-1.438 0-.5-.188-1-.563-1.438l-4-4C27 16.188 26.5 16 26 16c-.563 0-1.063.188-1.438.563-.375.375-.562.875-.562 1.437v3.25h-1.063l-5.312-5.813-1.375 1.5L21.875 23c.125.188.25.25.5.25H24V26c0 .625.188 1.063.563 1.438.375.375.875.562 1.437.562.5 0 1-.188 1.438-.563l4-4zm-1.25-1.625c.125.125.125.25 0 .375l-4 4c-.125.125-.188.125-.313.062-.125 0-.125-.125-.125-.25v-8c0-.125 0-.188.125-.25.125 0 .188 0 .313.063l4 4zm1.25-14.375C31.813 7.063 32 6.563 32 6c0-.5-.188-1-.563-1.438l-4-4C27 .188 26.5 0 26 0c-.563 0-1.063.188-1.438.563C24.188.938 24 1.438 24 2v2.75h-1.625a.792.792 0 00-.563.25l-15 16.25H.75a.792.792 0 00-.563.25A.71.71 0 000 22v.5c0 .25.063.438.188.563.124.125.312.187.562.187h6.625c.188 0 .375-.063.563-.25l15-16.25H24V10c0 .625.188 1.063.563 1.438.375.374.875.562 1.437.562.5 0 1-.188 1.438-.563l4-4zm-1.25-1.625c.125.125.125.25 0 .375l-4 4c-.125.124-.188.124-.313.062-.125 0-.125-.125-.125-.25V2c0-.125 0-.188.125-.25.125 0 .188 0 .313.063l4 4z" fill="#01A0E4"/></svg>