<svg width="34" height="27" fill="none" xmlns="http://www.w3.org/2000/svg"><path d="M30 .625c.996 0 1.875.41 2.637 1.113.703.762 1.113 1.64 1.113 2.637v18.75c0 1.055-.41 1.934-1.113 2.637-.762.761-1.64 1.113-2.637 1.113H3.75c-1.055 0-1.934-.352-2.637-1.113C.352 25.059 0 24.18 0 23.125V4.375C0 3.379.352 2.5 1.113 1.738 1.816 1.035 2.695.625 3.75.625H30zm1.875 22.5V4.375c0-.469-.234-.938-.586-1.29-.352-.35-.82-.585-1.289-.585H3.75c-.527 0-.996.234-1.348.586a1.82 1.82 0 00-.527 1.289v18.75c0 .527.176.996.527 1.348.352.351.82.527 1.348.527H30c.469 0 .938-.176 1.29-.527.35-.352.585-.82.585-1.348zm-4.219-7.5c.117 0 .176.059.293.176.117.117.176.176.176.293v.937c0 .117-.059.235-.176.352-.117.117-.176.117-.293.117h-6.562c-.117 0-.235 0-.352-.117-.117-.117-.117-.235-.117-.352v-.937c0-.117 0-.176.117-.293.117-.117.235-.176.352-.176h6.562zm0-3.75c.117 0 .176.059.293.176.117.117.176.176.176.293v.937c0 .117-.059.235-.176.352-.117.117-.176.117-.293.117h-6.562c-.117 0-.235 0-.352-.117-.117-.117-.117-.235-.117-.352v-.937c0-.117 0-.176.117-.293.117-.117.235-.176.352-.176h6.562zm0-3.75c.117 0 .176.059.293.176.117.117.176.176.176.293v.937c0 .117-.059.235-.176.352-.117.117-.176.117-.293.117h-6.562c-.117 0-.235 0-.352-.117-.117-.117-.117-.235-.117-.352v-.937c0-.117 0-.176.117-.293.117-.117.235-.176.352-.176h6.562zm-15.468 7.5c-1.29 0-2.403-.41-3.34-1.348-.938-.937-1.348-2.05-1.348-3.34 0-1.289.41-2.343 1.348-3.28.937-.938 2.05-1.407 3.34-1.407 1.289 0 2.343.469 3.28 1.406.938.938 1.407 1.992 1.407 3.282 0 1.289-.469 2.402-1.406 3.34-.938.937-1.992 1.347-3.281 1.347zm0-7.5c-.82 0-1.465.293-1.993.82-.586.586-.82 1.23-.82 1.992 0 .82.234 1.465.82 1.993.528.586 1.172.82 1.992.82.762 0 1.407-.234 1.993-.82.527-.528.82-1.172.82-1.992 0-.762-.293-1.407-.82-1.993-.586-.527-1.23-.82-1.992-.82zm2.753 8.438c.586 0 1.172.175 1.758.41a3.968 3.968 0 011.406 1.172c.41.703.645 1.406.645 2.226v1.348c0 .117-.059.234-.117.351-.117.117-.235.117-.352.117h-.937c-.117 0-.235 0-.352-.117-.117-.117-.117-.234-.117-.351V20.37c0-.41-.117-.82-.352-1.172-.351-.469-.878-.762-1.582-.762-.234 0-.527.06-.879.176a7.451 7.451 0 01-1.874.235 7.146 7.146 0 01-1.876-.235c-.41-.117-.703-.175-.878-.175-.704 0-1.23.293-1.582.761A2.113 2.113 0 007.5 20.37v1.348c0 .117-.059.234-.176.351-.117.117-.176.117-.293.117h-.937c-.117 0-.235 0-.352-.117-.117-.117-.117-.234-.117-.351V20.37c0-.82.176-1.523.645-2.226.351-.47.761-.88 1.347-1.172.586-.235 1.172-.41 1.817-.41.351 0 .82.117 1.289.234a6.26 6.26 0 001.464.176 5.78 5.78 0 001.407-.176c.469-.117.937-.235 1.347-.235z" fill="#01A0E4"/></svg>