<svg width="37" height="28" fill="none" xmlns="http://www.w3.org/2000/svg"><path d="M34.25 22.125c.375.813.938 1.625 1.563 2.438.374.625.687.937.812 1 .188.25.313.5.375.75 0 .312 0 .562-.125.812s-.25.5-.5.625c-.25.188-.563.25-.813.25-2.75 0-5.312-.813-7.812-2.438-1.25.313-2.5.438-3.75.438-2.688 0-5.125-.563-7.25-1.688C14.562 23.188 13 21.75 12 19.875c-.625-.063-1.188-.188-1.75-.313C7.75 21.188 5.187 22 2.437 22c-.312 0-.562-.063-.812-.25-.25-.125-.375-.375-.5-.625s-.188-.5-.125-.813c.063-.25.188-.5.375-.687.188-.188.5-.563.875-1.063a25.66 25.66 0 001.5-2.437C1.875 14.375 1 12.312 1 10c0-1.75.563-3.438 1.75-5 1.125-1.5 2.688-2.75 4.688-3.625C9.438.5 11.625 0 14 0c2.625 0 5.063.563 7.25 1.688C23.375 2.813 25 4.313 26 6.125c2 .25 3.875.875 5.563 1.813 1.687.937 3 2.125 4 3.5C36.5 12.874 37 14.374 37 16c0 2.313-.938 4.375-2.75 6.125zM9.875 17.437l.813.188c1.062.25 2.187.375 3.312.375 2 0 3.813-.313 5.5-1.063 1.688-.687 3-1.625 4-2.875S25 11.5 25 10c0-1.438-.5-2.75-1.5-4s-2.313-2.188-4-2.938A14.374 14.374 0 0014 2c-2 0-3.875.375-5.563 1.063-1.687.75-3 1.687-4 2.937C3.438 7.25 3 8.563 3 10c0 1.75.688 3.313 2.188 4.688l1 1.062-.625 1.313c-.5 1-1.125 1.937-1.875 2.875 1.874-.188 3.75-.875 5.5-2.063l.687-.438zm18.938 6.438c1.75 1.188 3.562 1.875 5.5 2.063A16.607 16.607 0 0132.437 23l-.624-1.25 1-1.063C34.25 19.313 35 17.75 35 16c0-1.813-.813-3.438-2.313-4.875-1.562-1.438-3.5-2.375-5.874-2.875A9.29 9.29 0 0127 10c0 1.75-.563 3.438-1.688 4.938-1.125 1.5-2.687 2.75-4.562 3.624-1.938.875-4 1.375-6.25 1.438.938 1.25 2.25 2.188 3.938 2.938C20.125 23.688 22 24 24 24c1.125 0 2.188-.125 3.313-.375l.812-.188.688.438zM26.438 7.187h.062-.063z" fill="#01A0E4"/></svg>