<svg width="32" height="24" fill="none" xmlns="http://www.w3.org/2000/svg"><path d="M31.25 22H2V.75c0-.188-.125-.375-.25-.5S1.437 0 1.25 0h-.5a.792.792 0 00-.563.25.71.71 0 00-.187.5v22.5c0 .25.063.438.188.563.124.125.312.187.562.187h30.5a.71.71 0 00.5-.188.792.792 0 00.25-.562v-.5c0-.188-.125-.375-.25-.5s-.313-.25-.5-.25zM10 17.625c0 .125-.063.188-.125.25-.125.125-.188.125-.25.125h-1.25c-.125 0-.188 0-.25-.125C8 17.812 8 17.75 8 17.625v-5.25c0-.063 0-.125.125-.25.063-.063.125-.125.25-.125h1.25c.063 0 .125.063.25.125.063.125.125.188.125.25v5.25zm18 0c0 .125-.063.188-.125.25-.125.125-.188.125-.25.125h-1.25c-.125 0-.188 0-.25-.125-.125-.063-.125-.125-.125-.25V2.375c0-.063 0-.125.125-.25.063-.063.125-.125.25-.125h1.25c.063 0 .125.063.25.125.063.125.125.188.125.25v15.25zm-6 0c0 .125-.063.188-.125.25-.125.125-.188.125-.25.125h-1.25c-.125 0-.188 0-.25-.125-.125-.063-.125-.125-.125-.25v-9.25c0-.063 0-.125.125-.25.063-.063.125-.125.25-.125h1.25c.063 0 .125.063.25.125.063.125.125.188.125.25v9.25zm-6 0c0 .125-.063.188-.125.25-.125.125-.188.125-.25.125h-1.25c-.125 0-.188 0-.25-.125-.125-.063-.125-.125-.125-.25V4.375c0-.063 0-.125.125-.25.063-.063.125-.125.25-.125h1.25c.063 0 .125.063.25.125.063.125.125.188.125.25v13.25z" fill="#01A0E4"/></svg>