<svg width="41" height="34" fill="none" xmlns="http://www.w3.org/2000/svg"><path d="M34.688 13.25c.124.313.374.5.687.625.313.125.625.188 1 .063a6.3 6.3 0 002.125-1.126c.25-.25.438-.5.5-.874.063-.376 0-.688-.125-1.063l-.188-.25c.126-.188.25-.438.376-.688h.312c.375 0 .688-.062.938-.312s.437-.5.562-.875a7.969 7.969 0 000-2.438c-.125-.312-.313-.562-.563-.812a1.234 1.234 0 00-.874-.375h-.376c-.124-.25-.25-.438-.374-.688l.187-.25c.125-.312.188-.625.125-1-.063-.374-.188-.687-.438-.937-.624-.5-1.374-.938-2.124-1.188-.376-.125-.688-.125-1 0a1.18 1.18 0 00-.75.688L34.5 2h-.75l-.188-.25c-.187-.313-.437-.563-.75-.688-.374-.125-.687-.125-1 0-.812.313-1.5.688-2.125 1.188a1.72 1.72 0 00-.5.938c-.062.374 0 .687.188.937l.188.313c-.188.25-.313.437-.375.687h-.563c-.375 0-.75.125-1 .375s-.438.5-.5.813a5.352 5.352 0 000 2.437c.063.375.25.625.5.875s.625.313 1 .313h.563c.062.25.187.5.375.687l-.188.25c-.188.375-.25.688-.188 1.063.063.374.25.624.563.812.563.5 1.25.938 2.125 1.188.313.124.625.062.938-.063a1.46 1.46 0 00.75-.625l.187-.25c.25.063.5.063.75 0l.188.25zm.75-2.125l-.626.125c-.5.125-.937.125-1.374 0l-.626-.125-.624 1.125A2.494 2.494 0 0131 11.562l.688-1.124L31.25 10c-.313-.375-.563-.75-.688-1.25l-.187-.563h-1.313a2.344 2.344 0 010-1.312h1.313l.188-.625c.125-.375.375-.813.687-1.188l.438-.437L31 3.437a7.07 7.07 0 011.188-.624l.624 1.124.626-.124a5.06 5.06 0 011.374 0l.626.124.624-1.124a7.07 7.07 0 011.188.624l-.625 1.188.375.438c.25.375.5.812.688 1.187l.187.625h1.313c.062.438.062.875 0 1.313h-1.313l-.188.624C37.5 9.25 37.25 9.626 37 10l-.375.438.625 1.124a3.888 3.888 0 01-1.188.688l-.624-1.125zm-25.376 18.25c0 .375.063.75.313 1s.5.438.875.5c1.125.25 2.188.375 3.188.375.937 0 2-.125 3.187-.375.313-.063.563-.25.813-.5s.375-.563.375-.938v-2c.75-.375 1.5-.812 2.25-1.312l1.687 1c.313.188.625.25 1 .188.313-.063.625-.25.875-.5 2-2.125 3.125-3.938 3.5-5.563.063-.25.063-.563-.063-.875-.125-.25-.375-.5-.625-.688l-1.75-1.125a9.234 9.234 0 000-2.625l1.563-1c.25-.124.5-.374.625-.75.125-.312.125-.624 0-1-.375-1-.75-1.937-1.25-2.812-.5-.875-1.188-1.75-2-2.688-.25-.25-.5-.375-.875-.437-.375-.063-.688 0-1 .125l-1.688 1c-.75-.5-1.5-.938-2.25-1.313V5.125c0-.375-.125-.688-.375-.938s-.5-.437-.812-.562c-1.25-.25-2.313-.375-3.25-.375-1 0-2 .125-3.125.375-.375.125-.625.313-.875.563-.25.25-.313.562-.313.937v1.938c-.874.375-1.624.812-2.25 1.312l-1.75-1a1.782 1.782 0 00-1-.125c-.375.063-.625.188-.812.438-.813.875-1.438 1.687-1.938 2.5-.5.874-.874 1.874-1.25 3-.125.374-.062.687.063 1 .125.374.313.624.625.75l1.688 1a9.234 9.234 0 000 2.624l-1.688 1a1.46 1.46 0 00-.625.75c-.125.375-.188.688-.063 1 .375 1.188.75 2.188 1.25 3 .5.875 1.126 1.688 1.938 2.5.188.25.438.438.813.5.375.063.687 0 1-.187l1.75-1a8.16 8.16 0 002.25 1.313v1.937zm2-.375v-2.938l-.624-.25a7.78 7.78 0 01-2.876-1.687L8 23.687l-2.563 1.5C4.313 24 3.563 22.625 3.063 21.125l2.563-1.5-.125-.688a7.688 7.688 0 010-3.375l.125-.687-2.563-1.438c.5-1.5 1.25-2.874 2.376-4.124L8 10.813l.563-.438a7.78 7.78 0 012.874-1.688l.626-.25V5.5a12.15 12.15 0 014.75 0v2.938l.625.25c1.062.374 2 .937 2.875 1.687l.562.438 2.563-1.5c1.375 1.562 2.25 2.937 2.625 4.062l-2.563 1.5.125.688a9.822 9.822 0 010 3.312l-.125.75 2.563 1.5c-.375 1.188-1.25 2.563-2.625 4.063l-2.563-1.5-.563.437c-.875.75-1.812 1.313-2.875 1.688l-.625.187v3c-1.625.375-3.187.375-4.75 0zm2.438-6.563c1.375 0 2.625-.5 3.625-1.5s1.563-2.25 1.563-3.687c0-1.375-.563-2.625-1.563-3.625s-2.25-1.563-3.688-1.563c-1.437 0-2.624.563-3.624 1.563s-1.5 2.25-1.5 3.625c0 1.438.5 2.688 1.5 3.688s2.187 1.5 3.687 1.5zm0-8.375c.875 0 1.625.313 2.25.938s.938 1.375.938 2.25-.313 1.625-.938 2.25a3.069 3.069 0 01-2.25.938 3.069 3.069 0 01-2.25-.938 3.069 3.069 0 01-.938-2.25c0-.875.313-1.625.938-2.25a3.069 3.069 0 012.25-.938zm20.188 18.25c.124.313.374.5.687.626.313.124.625.124 1 0a6.3 6.3 0 002.125-1.126c.25-.25.438-.5.5-.875.063-.375 0-.687-.125-1.062l-.188-.25c.126-.188.25-.375.376-.625h.312c.375 0 .688-.063.938-.313s.437-.562.562-.937a7.565 7.565 0 000-2.375c-.125-.375-.313-.625-.563-.875a1.234 1.234 0 00-.874-.375h-.376c-.124-.25-.25-.438-.374-.688l.187-.25c.125-.312.188-.625.125-1s-.188-.625-.438-.875c-.624-.5-1.374-.937-2.124-1.187-.376-.125-.688-.125-1 0a1.28 1.28 0 00-.75.625l-.188.313h-.75l-.188-.313c-.187-.25-.437-.5-.75-.625-.374-.125-.687-.125-1 0-.812.25-1.5.688-2.125 1.188-.25.25-.437.5-.5.875-.062.375 0 .687.188 1l.188.25c-.188.25-.313.437-.375.687h-.563c-.375 0-.75.125-1 .375s-.438.5-.5.813c-.188.875-.188 1.687 0 2.437.063.375.25.688.5.938s.625.312 1 .312h.563c.062.25.187.438.375.625l-.188.25c-.188.375-.25.688-.188 1.063.063.375.25.625.563.875.563.5 1.25.875 2.125 1.125.313.124.625.124.938 0a1.46 1.46 0 00.75-.626l.187-.25h.75l.188.25zm.75-2.187l-.626.125c-.5.125-.937.125-1.374 0l-.626-.125-.624 1.125c-.5-.125-.876-.375-1.188-.625l.688-1.188L31.25 29c-.313-.375-.563-.75-.688-1.188l-.187-.625h-1.313c-.125-.375-.125-.812 0-1.312h1.313l.188-.563c.125-.375.375-.812.687-1.187l.438-.5L31 22.5c.375-.25.75-.5 1.188-.688l.624 1.125.626-.125a5.06 5.06 0 011.374 0l.626.125.624-1.125c.438.188.813.438 1.188.688l-.625 1.125.375.5c.25.375.5.75.688 1.188l.187.562h1.313c.062.5.062.938 0 1.313h-1.313l-.188.625c-.187.437-.437.812-.687 1.187l-.375.438.625 1.187c-.375.25-.813.5-1.188.625l-.624-1.125zM36 26.5c0 .563-.25 1.063-.625 1.438A1.939 1.939 0 0134 28.5c-.563 0-1.063-.188-1.438-.563-.374-.375-.562-.875-.562-1.437 0-.5.188-1 .563-1.375.374-.375.874-.625 1.437-.625.5 0 1 .25 1.375.625S36 26 36 26.5zm0-19c0 .563-.25 1.063-.625 1.438A1.939 1.939 0 0134 9.5c-.563 0-1.063-.188-1.438-.563C32.188 8.563 32 8.063 32 7.5c0-.563.188-1.063.563-1.438.374-.375.874-.562 1.437-.562.5 0 1 .188 1.375.563.375.375.625.875.625 1.437z" fill="#01A0E4"/></svg>