<svg width="40" height="32" fill="none" xmlns="http://www.w3.org/2000/svg"><path d="M38 22c.5 0 1 .25 1.375.625S40 23.5 40 24v6c0 .563-.25 1.063-.625 1.438A1.939 1.939 0 0138 32h-6c-.563 0-1.063-.188-1.438-.563C30.188 31.063 30 30.563 30 30v-6c0-.5.188-1 .563-1.375.375-.375.875-.625 1.437-.625h2v-6H21v6h2c.5 0 1 .25 1.375.625S25 23.5 25 24v6c0 .563-.25 1.063-.625 1.438A1.939 1.939 0 0123 32h-6c-.563 0-1.063-.188-1.438-.563C15.188 31.063 15 30.563 15 30v-6c0-.5.188-1 .563-1.375.374-.375.874-.625 1.437-.625h2v-6H6v6h2c.5 0 1 .25 1.375.625S10 23.5 10 24v6c0 .563-.25 1.063-.625 1.438A1.939 1.939 0 018 32H2c-.563 0-1.063-.188-1.438-.563C.188 31.063 0 30.563 0 30v-6c0-.5.188-1 .563-1.375C.938 22.25 1.438 22 2 22h2v-6.125c0-.5.188-.938.563-1.313.375-.374.812-.562 1.312-.562H19v-4h-3c-.563 0-1.063-.188-1.438-.563C14.188 9.063 14 8.563 14 8V2c0-.5.188-1 .563-1.375C14.937.25 15.437 0 16 0h8c.5 0 1 .25 1.375.625S26 1.5 26 2v6c0 .563-.25 1.063-.625 1.438A1.939 1.939 0 0124 10h-3v4h13.125c.5 0 .938.188 1.313.563.374.374.562.812.562 1.312V22h2zM8 24H2v6h6v-6zm15 0h-6v6h6v-6zM16 8h8V2h-8v6zm22 22v-6h-6v6h6z" fill="#01A0E4"/></svg>