<svg width="32" height="29" fill="none" xmlns="http://www.w3.org/2000/svg"><path d="M.602 14.281C.164 13.844 0 13.351 0 12.75c0-.547.164-1.094.602-1.531l9.625-10.063c.437-.437.93-.656 1.53-.656a2.19 2.19 0 011.587.656c.437.438.656.93.656 1.532V7.5c3.445.055 6.29.328 8.531.875 2.844.656 4.977 1.75 6.453 3.227 1.641 1.75 2.516 4.046 2.516 7 0 2.296-.602 4.375-1.75 6.234-.82 1.312-1.86 2.406-3.117 3.336-.438.328-.93.383-1.422.273-.492-.11-.875-.328-1.148-.765-.274-.438-.329-.875-.165-1.422.657-2.352.766-4.102.274-5.305-.547-1.148-1.64-1.969-3.39-2.406-1.423-.328-3.665-.492-6.782-.547v4.813c0 .656-.219 1.148-.656 1.585-.438.438-.985.602-1.586.602-.602 0-1.094-.219-1.531-.656L.602 14.28zm1.257-1.86c-.109.11-.109.22-.109.329 0 .11 0 .219.11.328l9.624 10.063c.11.109.274.164.493.054.164-.054.273-.164.273-.383V16.25c3.719 0 6.508.164 8.258.492 2.406.492 4.101 1.422 4.976 2.844.93 1.64.985 3.992.11 7.164a10.806 10.806 0 002.789-3.117 9.764 9.764 0 001.367-5.031c0-2.735-.875-4.813-2.625-6.29-1.531-1.257-3.664-2.132-6.508-2.57-2.023-.328-4.812-.492-8.367-.492V2.687c0-.164-.11-.273-.273-.382-.22-.055-.383-.055-.493.054L1.86 12.422z" fill="#01A0E4"/></svg>