<svg width="32" height="28" fill="none" xmlns="http://www.w3.org/2000/svg"><path d="M29 4c.813 0 1.5.313 2.125.875C31.688 5.5 32 6.188 32 7v18c0 .875-.313 1.563-.875 2.125C30.5 27.75 29.812 28 29 28H3c-.875 0-1.563-.25-2.125-.875C.25 26.562 0 25.875 0 25V7c0-.813.25-1.5.875-2.125C1.438 4.312 2.125 4 3 4h7V1.5c0-.375.125-.75.438-1.063.25-.25.624-.437 1.062-.437h9c.375 0 .75.188 1.063.438.25.312.437.687.437 1.062V4h7zM12 2v2h8V2h-8zm18 23v-9H20v2.5c0 .438-.188.813-.438 1.063A1.464 1.464 0 0118.5 20h-5c-.438 0-.813-.125-1.063-.438-.312-.25-.437-.625-.437-1.062V16H2v9c0 .313.063.563.25.75.188.188.438.25.75.25h26c.25 0 .5-.063.688-.25.187-.188.312-.438.312-.75zm-16-9v2h4v-2h-4zM2 14h28V7c0-.25-.125-.5-.313-.688C29.5 6.125 29.25 6 29 6H3c-.313 0-.563.125-.75.313C2.062 6.5 2 6.75 2 7v7z" fill="#01A0E4"/></svg>