<svg width="34" height="33" fill="none" xmlns="http://www.w3.org/2000/svg"><path d="M30 .25c.438-.25.938-.313 1.438-.188.5.126.875.438 1.187.813.313.438.438.938.375 1.438l-4 26.062a2.082 2.082 0 01-1.063 1.438c-.562.375-1.125.375-1.687.125l-7.938-3.313-3.75 4.625c-.374.5-.874.75-1.437.75-.625.063-1.125-.125-1.5-.5-.438-.375-.625-.875-.625-1.5v-6.375L2.25 20c-.5-.188-.875-.5-1.063-1-.25-.438-.25-.938-.125-1.438s.438-.875.938-1.125L30 .25zM13 30l3.438-4.125L13 24.437V30zm14-1.938L31 2 3 18.125l7.125 2.938L26.063 7.5c.125-.125.312-.125.5 0 .125.188.125.375 0 .5L14.124 22.75 27 28.063z" fill="#01A0E4"/></svg>