<svg width="34" height="26" fill="none" xmlns="http://www.w3.org/2000/svg"><path d="M30.813.5c.863 0 1.593.332 2.257.93.598.664.93 1.394.93 2.258v19.125c0 .93-.332 1.66-.93 2.257-.664.664-1.394.93-2.258.93H3.188c-.93 0-1.66-.266-2.257-.93-.664-.597-.93-1.328-.93-2.258V3.688c0-.863.266-1.593.93-2.257C1.527.832 2.258.5 3.187.5h27.625zm1.062 22.313V3.688c0-.266-.133-.532-.332-.731-.2-.2-.465-.332-.73-.332H3.188a1.1 1.1 0 00-.797.332c-.2.2-.266.465-.266.73v19.125c0 .332.066.598.266.797.199.2.464.266.796.266h27.625c.266 0 .532-.066.731-.266.2-.199.332-.465.332-.797zM7.437 11.655c-1.062 0-1.925-.332-2.656-1.062C4.051 9.864 3.72 9 3.72 7.938c0-.997.332-1.86 1.062-2.59.73-.73 1.594-1.13 2.657-1.13.996 0 1.859.4 2.59 1.13.73.73 1.128 1.593 1.128 2.59 0 1.062-.398 1.925-1.129 2.656-.73.73-1.593 1.062-2.59 1.062zm0-5.312c-.464 0-.863.199-1.128.465-.332.332-.465.73-.465 1.128 0 .465.133.864.465 1.13.265.331.664.464 1.128.464.399 0 .797-.133 1.13-.465.265-.265.464-.664.464-1.129 0-.398-.199-.796-.465-1.128-.332-.266-.73-.465-1.129-.465zM21.184 7.87a1.602 1.602 0 011.128-.465c.399 0 .797.2 1.13.465l5.843 5.844c.266.332.465.73.465 1.129v6.11a.842.842 0 01-.266.597.754.754 0 01-.53.199H5.046c-.266 0-.465-.066-.598-.2-.133-.132-.199-.331-.199-.597v-1.86c0-.398.133-.796.465-1.128l5.844-5.844a1.602 1.602 0 011.129-.465c.398 0 .796.2 1.128.465l2.059 2.059 6.309-6.309zm6.441 11.754v-4.582L22.312 9.73l-7.437 7.438-3.188-3.188-5.312 5.313v.332h21.25z" fill="#01A0E4"/></svg>