<svg width="30" height="27" fill="none" xmlns="http://www.w3.org/2000/svg"><path d="M22.5 15.625c1.055 0 1.934.41 2.637 1.113.703.762 1.113 1.64 1.113 2.637v3.75c0 1.055-.41 1.934-1.113 2.637-.703.761-1.582 1.113-2.637 1.113h-1.875c-.527 0-.996-.176-1.348-.527-.351-.352-.527-.82-.527-1.348v-7.5c0-.469.176-.938.527-1.29.352-.35.82-.585 1.348-.585H22.5zm1.875 7.5v-3.75c0-.469-.234-.938-.586-1.29-.352-.35-.82-.585-1.289-.585h-1.875V25H22.5c.469 0 .938-.176 1.29-.527.35-.352.585-.82.585-1.348zm-15-7.5c.469 0 .938.234 1.29.586.35.352.585.82.585 1.289V25c0 .527-.234.996-.586 1.348-.351.351-.82.527-1.289.527H7.5c-1.055 0-1.992-.352-2.695-1.113-.703-.703-1.055-1.582-1.055-2.637v-3.75c0-.996.352-1.875 1.055-2.637A3.762 3.762 0 017.5 15.625h1.875zm0 9.375v-7.5H7.5c-.527 0-.996.234-1.348.586a1.82 1.82 0 00-.527 1.289v3.75c0 .527.176.996.527 1.348.352.351.82.527 1.348.527h1.875zM15 .625c2.695 0 5.156.703 7.5 2.05a15.179 15.179 0 015.45 5.45c1.347 2.344 2.05 4.805 2.05 7.5v7.031c0 .117-.059.235-.176.352-.117.117-.176.117-.293.117h-.937c-.117 0-.235 0-.352-.117-.117-.117-.117-.235-.117-.352v-7.031c0-2.344-.586-4.57-1.758-6.563a13.484 13.484 0 00-4.805-4.804C19.57 3.086 17.345 2.5 15 2.5c-2.402 0-4.629.586-6.621 1.758C6.387 5.43 4.805 7.07 3.633 9.062c-1.172 1.993-1.758 4.22-1.758 6.563v7.031c0 .117-.059.235-.176.352-.117.117-.176.117-.293.117H.47c-.117 0-.235 0-.352-.117C0 22.89 0 22.773 0 22.656v-7.031c0-2.695.645-5.156 1.992-7.5A14.894 14.894 0 017.5 2.675 14.575 14.575 0 0115 .626z" fill="#01A0E4"/></svg>