<svg width="27" height="31" fill="none" xmlns="http://www.w3.org/2000/svg"><path d="M23.027 9.012c.996 1.172 1.758 2.52 2.344 3.984.586 1.524.879 3.047.879 4.629 0 2.402-.586 4.629-1.758 6.621-1.172 1.992-2.812 3.574-4.805 4.746-1.992 1.172-4.218 1.758-6.562 1.758-2.402 0-4.629-.586-6.621-1.758a13.162 13.162 0 01-4.746-4.746C.586 22.254 0 20.027 0 17.625c0-2.227.527-4.336 1.582-6.27C2.637 9.422 4.102 7.84 5.977 6.61c1.875-1.171 3.925-1.875 6.152-2.05V2.625H10.78c-.234 0-.41-.059-.527-.176-.117-.117-.176-.293-.176-.527v-.469c0-.176.059-.351.176-.469A.743.743 0 0110.78.75h4.688c.176 0 .351.117.469.234.117.118.234.293.234.47v.468a.74.74 0 01-.235.527.665.665 0 01-.468.176h-1.465V4.5c2.93.234 5.508 1.29 7.734 3.223l.996-1.055c.118-.117.293-.176.528-.176.175 0 .351.059.468.176l.352.352a.665.665 0 01.176.468c0 .235-.059.41-.176.528l-1.055.996zm-9.902 19.863c1.992 0 3.867-.469 5.625-1.523 1.7-.997 3.047-2.344 4.102-4.102a10.943 10.943 0 001.523-5.625c0-1.992-.527-3.867-1.523-5.625a12.475 12.475 0 00-4.102-4.102c-1.758-.996-3.633-1.523-5.625-1.523-2.05 0-3.926.527-5.625 1.523C5.742 8.953 4.395 10.301 3.398 12c-1.054 1.758-1.523 3.633-1.523 5.625 0 2.05.469 3.926 1.523 5.625A10.613 10.613 0 007.5 27.352c1.7 1.054 3.574 1.523 5.625 1.523zm.234-7.5a.665.665 0 00.47-.176.743.743 0 00.233-.527v-9.844c0-.176-.117-.351-.234-.469-.117-.117-.293-.234-.469-.234h-.468a.743.743 0 00-.528.234.665.665 0 00-.175.47v9.843c0 .234.058.41.175.527.117.117.293.176.528.176h.468z" fill="#01A0E4"/></svg>