<svg width="30" height="23" fill="none" xmlns="http://www.w3.org/2000/svg"><path d="M29.297 21.125H1.875V1.203c0-.176-.117-.351-.234-.469C1.523.617 1.348.5 1.17.5H.704a.743.743 0 00-.527.234.665.665 0 00-.176.47v21.093c0 .234.059.41.176.527.117.117.293.176.527.176h28.594a.665.665 0 00.469-.176.743.743 0 00.234-.527v-.469c0-.176-.117-.351-.234-.469-.118-.117-.293-.234-.47-.234zM9.375 17.023c0 .118-.059.176-.117.235-.117.117-.176.117-.235.117H7.852c-.118 0-.176 0-.235-.117-.117-.059-.117-.117-.117-.235v-4.921c0-.059 0-.118.117-.235.059-.058.117-.117.235-.117h1.171c.059 0 .118.059.235.117.058.117.117.176.117.235v4.921zm16.875 0c0 .118-.059.176-.117.235-.117.117-.176.117-.235.117h-1.171c-.118 0-.176 0-.235-.117-.117-.059-.117-.117-.117-.235V2.727c0-.059 0-.118.117-.235.059-.058.117-.117.235-.117h1.171c.059 0 .118.059.235.117.058.117.117.176.117.235v14.296zm-5.625 0c0 .118-.059.176-.117.235-.117.117-.176.117-.235.117h-1.171c-.118 0-.176 0-.235-.117-.117-.059-.117-.117-.117-.235V8.352c0-.059 0-.118.117-.235.059-.058.117-.117.235-.117h1.171c.059 0 .118.059.235.117.058.117.117.176.117.235v8.671zm-5.625 0c0 .118-.059.176-.117.235-.117.117-.176.117-.235.117h-1.171c-.118 0-.176 0-.235-.117-.117-.059-.117-.117-.117-.235V4.602c0-.059 0-.118.117-.235.059-.058.117-.117.235-.117h1.171c.059 0 .118.059.235.117.058.117.117.176.117.235v12.421z" fill="#01A0E4"/></svg>