<svg width="30" height="23" fill="none" xmlns="http://www.w3.org/2000/svg"><path d="M29.297 21.125H1.875V1.203c0-.176-.117-.351-.234-.469C1.523.617 1.348.5 1.17.5H.704a.743.743 0 00-.527.234.665.665 0 00-.176.47v21.093c0 .234.059.41.176.527.117.117.293.176.527.176h28.594a.665.665 0 00.469-.176.743.743 0 00.234-.527v-.469c0-.176-.117-.351-.234-.469-.118-.117-.293-.234-.47-.234zm-7.5-14.883c.176-.117.351-.117.586-.058a.911.911 0 01.469.351l5.273 12.715H3.75v-5.625l7.031-9.14c.117-.118.235-.235.469-.235a.99.99 0 01.586.176l5.039 4.98 4.922-3.164zM5.625 14.27v3.106h19.688L21.68 8.469l-5.04 3.34-5.214-5.215-5.801 7.676z" fill="#01A0E4"/></svg>