<svg width="23" height="31" fill="none" xmlns="http://www.w3.org/2000/svg"><path d="M21.68 6.492c.527.586.82 1.23.82 1.992v19.453c0 .82-.293 1.465-.82 1.993-.586.586-1.23.82-1.992.82H2.813c-.82 0-1.465-.234-1.993-.82-.586-.528-.82-1.172-.82-1.992V3.563C0 2.8.234 2.155.82 1.57A2.696 2.696 0 012.813.75h11.953c.761 0 1.406.293 1.992.82l4.922 4.922zM20.332 7.84L15.41 2.918c-.117-.117-.293-.176-.41-.293V8.25h5.625c-.117-.117-.176-.293-.293-.41zm-.645 21.035c.235 0 .47-.059.645-.234a.97.97 0 00.293-.703V10.125h-6.094c-.41 0-.761-.117-.996-.41-.293-.235-.41-.586-.41-.996V2.625H2.812a.97.97 0 00-.703.293c-.175.176-.234.41-.234.644v24.375c0 .293.059.528.234.704.176.175.41.234.704.234h16.875zm-2.812-14.297c0-.176-.117-.351-.234-.469-.118-.117-.293-.234-.47-.234H6.329a.743.743 0 00-.527.234.665.665 0 00-.176.47v.468c0 .234.059.41.176.527.117.117.293.176.527.176h9.844a.665.665 0 00.469-.176.743.743 0 00.234-.527v-.469zm0 3.75c0-.176-.117-.351-.234-.469-.118-.117-.293-.234-.47-.234H6.329a.743.743 0 00-.527.234.665.665 0 00-.176.47v.468c0 .234.059.41.176.527.117.117.293.176.527.176h9.844a.665.665 0 00.469-.176.743.743 0 00.234-.527v-.469zm0 3.75c0-.176-.117-.351-.234-.469-.118-.117-.293-.234-.47-.234H6.329a.743.743 0 00-.527.234.665.665 0 00-.176.47v.468c0 .234.059.41.176.527.117.117.293.176.527.176h9.844a.665.665 0 00.469-.176.743.743 0 00.234-.527v-.469z" fill="#01A0E4"/></svg>