<svg width="28" height="32" fill="none" xmlns="http://www.w3.org/2000/svg"><path d="M14 26.25c.313 0 .625-.125.875-.375s.375-.5.375-.875v-4c0-.313-.125-.625-.375-.875A1.234 1.234 0 0014 19.75c-.375 0-.625.125-.875.375s-.375.563-.375.875v4c0 .375.125.625.375.875s.5.375.875.375zM28 17c0-.813-.313-1.5-.875-2.125C26.5 14.312 25.812 14 25 14h-1v-3.938c0-1.75-.5-3.437-1.375-5-.875-1.5-2.125-2.75-3.625-3.687C17.5.5 15.812 0 14 0c-1.813 0-3.5.5-5 1.375A9.781 9.781 0 005.312 5 10.132 10.132 0 004 10v4H3c-.875 0-1.563.313-2.125.875C.25 15.5 0 16.188 0 17v12c0 .875.25 1.563.875 2.125C1.438 31.75 2.125 32 3 32h22c.813 0 1.5-.25 2.125-.875.563-.563.875-1.25.875-2.125V17zM6 14v-4c0-1.438.313-2.75 1.063-4 .687-1.25 1.625-2.188 2.875-2.938C11.188 2.375 12.5 2 14 2c1.438 0 2.75.375 4 1.063A8.268 8.268 0 0120.938 6C21.625 7.25 22 8.563 22 10v4H6zm20 15c0 .313-.125.563-.313.75-.187.188-.437.25-.687.25H3c-.313 0-.563-.063-.75-.25-.188-.188-.25-.438-.25-.75V17c0-.25.063-.5.25-.688.188-.187.438-.312.75-.312h22c.25 0 .5.125.688.313.187.187.312.437.312.687v12z" fill="#01A0E4"/></svg>