<svg width="29" height="29" fill="none" xmlns="http://www.w3.org/2000/svg"><path d="M1.133.984a.718.718 0 00-.51.227.643.643 0 00-.17.453V9.82c0 .227.057.397.17.51.113.113.283.17.51.17h8.156c.17 0 .34-.057.453-.17a.718.718 0 00.227-.51v-.566c0-.17-.114-.34-.227-.453-.113-.114-.283-.227-.453-.227H3.74c1.017-1.982 2.49-3.568 4.415-4.758 1.926-1.189 4.022-1.812 6.344-1.812 2.152 0 4.191.566 6.06 1.642 1.87 1.133 3.342 2.606 4.419 4.418 1.076 1.87 1.642 3.909 1.642 6.061 0 2.209-.566 4.248-1.642 6.117-1.133 1.87-2.606 3.342-4.418 4.418-1.87 1.076-3.909 1.586-6.061 1.586-1.586 0-3.059-.226-4.418-.793-1.36-.566-2.605-1.303-3.682-2.322a.914.914 0 00-.51-.17c-.17 0-.34.113-.452.227l-.397.396c-.113.113-.17.283-.17.51 0 .226.057.34.227.453a13.419 13.419 0 004.304 2.662c1.586.68 3.286.963 5.098.963 2.492 0 4.871-.623 7.023-1.87a13.757 13.757 0 005.098-5.097c1.246-2.152 1.926-4.474 1.926-7.023 0-2.55-.623-4.928-1.87-7.08a13.758 13.758 0 00-5.097-5.098C19.428.758 17.05.078 14.5.078c-2.549 0-4.871.623-7.023 1.87a13.757 13.757 0 00-5.098 5.097v-5.38c0-.17-.113-.34-.227-.454C2.04 1.098 1.87.984 1.7.984h-.566zM19.37 18.826c-.113.17-.283.283-.453.283-.227.057-.396 0-.51-.113l-4.814-3.512V6.195c0-.17.056-.34.17-.453a.718.718 0 01.51-.226h.453c.17 0 .34.113.453.226.113.113.226.283.226.453v8.383l4.078 2.945c.114.114.227.284.227.454 0 .226 0 .396-.113.51l-.227.34z" fill="#01A0E4"/></svg>