<svg width="28" height="29" fill="none" xmlns="http://www.w3.org/2000/svg"><path d="M13.563.938c2.406 0 4.703.656 6.78 1.859a13.283 13.283 0 014.923 4.922c1.203 2.078 1.859 4.375 1.859 6.781 0 2.46-.656 4.703-1.86 6.781-1.203 2.078-2.843 3.774-4.921 4.977a13.397 13.397 0 01-6.782 1.805c-2.46 0-4.703-.602-6.78-1.805a13.574 13.574 0 01-4.977-4.977C.602 19.203 0 16.961 0 14.5c0-2.406.602-4.703 1.805-6.781C3.008 5.64 4.703 4 6.78 2.797 8.858 1.594 11.1.937 13.562.937zM24.117 9.25a11.617 11.617 0 00-2.844-3.664c-1.203-1.04-2.515-1.805-4.046-2.297 1.093 1.531 1.859 3.5 2.406 5.961h4.484zm-5.742 5.25c0-1.148-.11-2.297-.219-3.5H8.97a25.593 25.593 0 00-.219 3.5c0 1.203.055 2.352.219 3.5h9.187c.11-1.148.219-2.297.219-3.5zM13.562 2.687c-.765 0-1.585.602-2.351 1.75-.875 1.204-1.477 2.844-1.914 4.813h8.531c-.437-1.969-1.094-3.61-1.914-4.813-.82-1.148-1.586-1.75-2.351-1.75zm-3.664.602a11.675 11.675 0 00-4.101 2.297C4.594 6.625 3.664 7.828 3.007 9.25h4.485c.492-2.406 1.313-4.43 2.406-5.96zM1.75 14.5c0 1.203.164 2.406.547 3.5h4.922A24.294 24.294 0 017 14.555c0-1.149.055-2.352.219-3.555H2.297a10.89 10.89 0 00-.547 3.5zm1.258 5.25a10.92 10.92 0 002.789 3.719C7 24.508 8.367 25.273 9.898 25.71c-1.093-1.477-1.914-3.445-2.406-5.961H3.008zm10.555 6.563c.765 0 1.53-.547 2.351-1.75.82-1.204 1.477-2.79 1.914-4.813H9.297c.437 2.023 1.039 3.61 1.914 4.813.766 1.203 1.586 1.75 2.351 1.75zm3.718-.602c1.477-.438 2.79-1.203 3.992-2.242 1.204-1.04 2.133-2.297 2.844-3.719h-4.484c-.547 2.46-1.313 4.43-2.352 5.96zM19.906 18h4.922c.328-1.094.547-2.297.547-3.5 0-1.203-.219-2.352-.547-3.5h-4.922c.11 1.203.219 2.352.219 3.5 0 1.148-.11 2.297-.219 3.5z" fill="#01A0E4"/></svg>