<svg width="30" height="31" fill="none" xmlns="http://www.w3.org/2000/svg"><path d="M11.25 13.875v7.5c0 .527-.234.996-.586 1.348-.351.351-.82.527-1.289.527H7.5c-1.055 0-1.992-.352-2.695-1.113-.703-.703-1.055-1.582-1.055-2.637v-3.75c0-1.055.352-1.934 1.055-2.637A3.762 3.762 0 017.5 12h1.875c.469 0 .938.234 1.29.586.35.351.585.82.585 1.289zm-1.875 7.5v-7.5H7.5c-.527 0-.996.234-1.348.586-.351.351-.527.82-.527 1.289v3.75c0 .527.176.996.527 1.348.352.351.82.527 1.348.527h1.875zM22.5 23.25h-1.875c-.527 0-.996-.176-1.348-.527-.351-.352-.527-.82-.527-1.348v-7.5c0-.469.176-.938.527-1.29.352-.35.82-.585 1.348-.585H22.5c1.055 0 1.934.41 2.637 1.113.703.703 1.113 1.582 1.113 2.637v3.75c0 1.055-.41 1.934-1.113 2.637-.703.761-1.582 1.113-2.637 1.113zm-1.875-9.375v7.5H22.5c.469 0 .938-.176 1.29-.527.35-.352.585-.82.585-1.348v-3.75c0-.469-.234-.938-.586-1.29-.352-.35-.82-.585-1.289-.585h-1.875zM15 .75c2.695 0 5.156.703 7.5 2.05a15.179 15.179 0 015.45 5.45c1.347 2.344 2.05 4.805 2.05 7.5v10.313c0 1.289-.469 2.402-1.406 3.34-.938.937-1.992 1.347-3.282 1.347h-11.25c-.82 0-1.464-.234-1.992-.82-.586-.528-.82-1.172-.82-1.992 0-.762.234-1.407.82-1.993a2.694 2.694 0 011.992-.82h3.75c.762 0 1.407.293 1.993.82.527.586.82 1.23.82 1.992 0 .352-.059.645-.176.938h4.863c.762 0 1.407-.234 1.993-.82.527-.528.82-1.172.82-1.992V15.75c0-2.344-.586-4.57-1.758-6.563a13.484 13.484 0 00-4.805-4.804C19.57 3.21 17.345 2.625 15 2.625c-2.402 0-4.629.645-6.621 1.816C6.445 5.613 4.922 7.254 3.75 9.246c-1.172 1.992-1.816 4.16-1.875 6.504v1.406c0 .117-.059.235-.176.352-.117.117-.176.117-.293.117H.47c-.117 0-.235 0-.352-.117C0 17.39 0 17.273 0 17.156V15.75c.059-2.695.762-5.156 2.11-7.441 1.347-2.286 3.105-4.102 5.331-5.45C9.785 1.453 12.305.75 15 .75zm2.813 28.125c.234 0 .468-.059.644-.234a.97.97 0 00.293-.703.938.938 0 00-.293-.645c-.176-.176-.41-.293-.645-.293h-3.75a.97.97 0 00-.703.293c-.175.176-.234.41-.234.645 0 .293.059.527.234.703.176.175.41.234.704.234h3.75z" fill="#01A0E4"/></svg>