<svg width="32" height="28" fill="none" xmlns="http://www.w3.org/2000/svg"><path d="M6 8c.5 0 1-.188 1.375-.563C7.75 7.063 8 6.563 8 6c0-.5-.25-1-.625-1.375S6.5 4 6 4c-.563 0-1.063.25-1.438.625A1.939 1.939 0 004 6c0 .563.188 1.063.563 1.438C4.938 7.813 5.438 8 6 8zm8-2c0 .563-.25 1.063-.625 1.438A1.939 1.939 0 0112 8c-.563 0-1.063-.188-1.438-.563C10.188 7.063 10 6.563 10 6c0-.5.188-1 .563-1.375C10.937 4.25 11.437 4 12 4c.5 0 1 .25 1.375.625S14 5.5 14 6zm6 0c0 .563-.25 1.063-.625 1.438A1.939 1.939 0 0118 8c-.563 0-1.063-.188-1.438-.563C16.188 7.063 16 6.563 16 6c0-.5.188-1 .563-1.375C16.938 4.25 17.438 4 18 4c.5 0 1 .25 1.375.625S20 5.5 20 6zm12-3c0-.813-.313-1.5-.875-2.125C30.5.312 29.812 0 29 0H3C2.125 0 1.437.313.875.875.25 1.5 0 2.188 0 3v22c0 .875.25 1.563.875 2.125C1.438 27.75 2.125 28 3 28h26c.813 0 1.5-.25 2.125-.875.563-.563.875-1.25.875-2.125V3zm-2 9v13c0 .313-.125.563-.313.75-.187.188-.437.25-.687.25H3c-.313 0-.563-.063-.75-.25-.188-.188-.25-.438-.25-.75V12h28zm0-2H2V3c0-.25.063-.5.25-.688C2.438 2.126 2.688 2 3 2h26c.25 0 .5.125.688.313.187.187.312.437.312.687v7z" fill="#01A0E4"/></svg>