<svg width="30" height="31" fill="none" xmlns="http://www.w3.org/2000/svg"><path d="M26.25.75c.996 0 1.875.41 2.637 1.113C29.59 2.625 30 3.503 30 4.5v16.875c0 1.055-.41 1.934-1.113 2.637-.762.761-1.64 1.113-2.637 1.113h-8.438l-7.324 5.508c-.117.117-.293.117-.468.117a.665.665 0 01-.47-.176c-.116-.117-.175-.293-.175-.527v-4.922H3.75c-1.055 0-1.934-.352-2.637-1.113C.352 23.309 0 22.43 0 21.375V4.5c0-.996.352-1.875 1.113-2.637C1.816 1.16 2.695.75 3.75.75h22.5zm1.875 20.625V4.5c0-.469-.234-.938-.586-1.29-.352-.35-.82-.585-1.289-.585H3.75c-.527 0-.996.234-1.348.586A1.82 1.82 0 001.875 4.5v16.875c0 .527.176.996.527 1.348.352.351.82.527 1.348.527h7.5v4.453l5.918-4.453h9.082c.469 0 .938-.176 1.29-.527.35-.352.585-.82.585-1.348zm-7.91-12.773l.703.703c.059.117.117.234.117.351a.448.448 0 01-.117.293l-7.324 7.324c-.117.118-.235.118-.352.118a.322.322 0 01-.293-.176l-3.867-3.809c-.117-.058-.117-.176-.117-.293 0-.117 0-.234.117-.351l.703-.703a.448.448 0 01.293-.118c.117 0 .235.059.352.118l2.87 2.87 6.27-6.269a.322.322 0 01.293-.176c.117 0 .235.059.352.118z" fill="#01A0E4"/></svg>