<svg width="29" height="30" fill="none" xmlns="http://www.w3.org/2000/svg"><path d="M26.395 5.383c.51.226.906.51 1.246.963.283.453.453.963.453 1.529 0 3.908-.737 7.477-2.153 10.705a24.498 24.498 0 01-4.984 7.137c-1.756 1.699-3.568 2.945-5.438 3.681-.68.34-1.359.34-2.039 0-2.152-.85-4.134-2.265-5.947-4.191-2.039-2.039-3.568-4.475-4.701-7.307C1.529 14.785.906 11.443.906 7.875c0-.566.114-1.076.453-1.53.284-.452.68-.736 1.246-.962L13.48.852a2.553 2.553 0 012.04 0l10.875 4.53zM14.84 27.756c1.926-.736 3.738-2.04 5.437-3.908 1.813-1.926 3.229-4.248 4.248-6.854 1.133-2.889 1.756-5.947 1.756-9.119 0-.396-.226-.68-.566-.85L14.84 2.495a1.38 1.38 0 00-.68 0L3.285 7.024c-.396.17-.566.454-.566.85 0 3.172.566 6.23 1.756 9.12 1.02 2.605 2.435 4.927 4.248 6.853 1.699 1.869 3.511 3.172 5.437 3.908a.722.722 0 00.68 0zm8.213-16.992c.113-.114.17-.227.17-.454 0-.17-.057-.34-.17-.51l-.51-.452c-.113-.114-.283-.227-.453-.227a.718.718 0 00-.51.227l-9.232 9.175-3.909-3.964a.643.643 0 00-.453-.17c-.226 0-.396.056-.51.17l-.453.51a.515.515 0 00-.226.452c0 .227.057.397.17.51l4.87 4.871c.114.17.284.227.51.227.17 0 .34-.057.454-.227l10.252-10.138z" fill="#01A0E4"/></svg>