<svg width="30" height="30" fill="none" xmlns="http://www.w3.org/2000/svg"><path d="M1.172 1.156a.743.743 0 00-.527.235.665.665 0 00-.176.468v8.438c0 .234.058.41.176.527.117.117.292.176.527.176h8.437a.665.665 0 00.47-.176.743.743 0 00.233-.527V9.71c0-.176-.117-.352-.234-.469-.117-.117-.293-.234-.469-.234H3.867c1.055-2.051 2.578-3.692 4.57-4.922C10.43 2.856 12.598 2.21 15 2.21c2.227 0 4.336.586 6.27 1.7 1.933 1.171 3.457 2.694 4.57 4.57 1.113 1.933 1.7 4.042 1.7 6.269a12.49 12.49 0 01-1.7 6.328c-1.172 1.934-2.695 3.457-4.57 4.57-1.934 1.114-4.043 1.641-6.27 1.641-1.64 0-3.164-.234-4.57-.82-1.407-.586-2.696-1.348-3.809-2.403a.945.945 0 00-.527-.175c-.176 0-.352.117-.469.234l-.41.41c-.117.117-.176.293-.176.527 0 .235.059.352.234.47a13.881 13.881 0 004.454 2.753c1.64.703 3.398.996 5.273.996 2.578 0 5.04-.644 7.266-1.933a14.232 14.232 0 005.273-5.274c1.29-2.226 1.992-4.629 1.992-7.265 0-2.637-.644-5.098-1.933-7.325a14.232 14.232 0 00-5.274-5.273C20.098.92 17.637.219 15 .219c-2.637 0-5.04.644-7.266 1.933a14.232 14.232 0 00-5.273 5.274V1.859c0-.175-.117-.351-.234-.468-.118-.118-.293-.235-.47-.235h-.585zm18.867 18.457c-.117.176-.293.293-.469.293-.234.059-.41 0-.527-.117l-4.98-3.633v-9.61c0-.175.058-.35.175-.468a.743.743 0 01.528-.234h.468c.176 0 .352.117.47.234.116.117.233.293.233.469v8.672l4.22 3.047c.116.117.234.293.234.468 0 .235 0 .41-.118.528l-.234.351z" fill="#01A0E4"/></svg>