<svg width="27" height="27" fill="none" xmlns="http://www.w3.org/2000/svg"><path d="M15.469 13.457c.761.234 1.406.645 1.875 1.23.468.645.703 1.348.703 2.11 0 .996-.352 1.816-1.055 2.52-.703.703-1.523.995-2.46.995h-.47v2.344c0 .117-.058.235-.175.352-.117.117-.176.117-.293.117h-.938c-.117 0-.234 0-.351-.117-.117-.117-.117-.235-.117-.352v-2.343h-.293c-1.172 0-2.168-.352-3.047-1.055a.322.322 0 01-.176-.293c0-.117 0-.293.117-.41l.703-.645a.322.322 0 01.293-.176c.117 0 .176.059.293.118.527.41 1.113.585 1.817.585h2.636c.41 0 .762-.117 1.114-.468.351-.293.527-.703.527-1.172 0-.352-.117-.645-.352-.938-.234-.293-.468-.527-.82-.644l-4.219-1.172c-.82-.176-1.406-.586-1.875-1.23-.469-.586-.703-1.29-.703-2.11 0-.937.293-1.758.996-2.46.703-.704 1.524-1.056 2.52-1.056h.469V4.845c0-.117 0-.176.117-.293.117-.117.234-.176.351-.176h.938c.117 0 .176.059.293.176.117.117.175.176.175.293v2.343h.293c1.114 0 2.11.352 3.047 1.055.117.117.176.235.176.352 0 .117-.058.234-.117.351l-.703.645c-.117.117-.176.176-.293.176-.117 0-.235 0-.293-.118-.586-.351-1.172-.585-1.817-.585H11.72c-.469 0-.88.175-1.172.468-.352.352-.469.703-.469 1.172 0 .352.059.703.293.996.234.293.527.469.879.528l4.219 1.23zM23.438.625c.761 0 1.406.293 1.992.82.527.586.82 1.23.82 1.992v20.625c0 .82-.293 1.465-.82 1.993-.586.586-1.23.82-1.992.82H2.813c-.82 0-1.465-.234-1.993-.82-.586-.528-.82-1.172-.82-1.992V3.438c0-.762.234-1.407.82-1.993a2.696 2.696 0 011.993-.82h20.625zm.937 23.438V3.438a.938.938 0 00-.293-.645c-.176-.176-.41-.293-.645-.293H2.813a.97.97 0 00-.703.293c-.175.176-.234.41-.234.644v20.625c0 .293.059.528.234.704.176.175.41.234.704.234h20.625c.234 0 .468-.059.644-.234a.97.97 0 00.293-.703z" fill="#01A0E4"/></svg>