<svg width="30" height="29" fill="none" xmlns="http://www.w3.org/2000/svg"><path d="M15 1.453c0-.176.059-.351.234-.469a.743.743 0 01.528-.234c2.168.117 4.16.762 6.035 1.875a14.675 14.675 0 014.453 4.453c1.113 1.875 1.758 3.867 1.875 6.035 0 .235-.117.41-.234.528a.533.533 0 01-.47.234H15V1.453zm1.875 1.29V12h9.258c-.41-2.344-1.465-4.336-3.164-6.094-1.758-1.699-3.75-2.754-6.094-3.164zm-.469 13.007h12.422c.176 0 .352.117.469.234.117.176.234.352.234.528-.117 1.465-.41 2.87-.996 4.277a14.287 14.287 0 01-2.285 3.75.716.716 0 01-.527.234c-.235 0-.41-.058-.528-.234l-8.789-8.789zm9.2 6.563a12.808 12.808 0 001.933-4.688h-6.621l4.688 4.688zM13.124 15.75l8.79 8.79a.945.945 0 01.175.526c0 .235-.117.41-.235.528-2.05 1.816-4.394 2.87-6.972 3.222-2.461.352-4.805-.058-7.09-1.113-2.344-1.055-4.16-2.578-5.566-4.629C.703 20.906 0 18.445 0 15.75c0-2.285.527-4.395 1.64-6.387C2.696 7.43 4.22 5.848 6.095 4.676a13.702 13.702 0 016.27-2.051c.175 0 .35.117.527.234.117.118.234.293.234.47V15.75zm-11.25 0c0 2.227.586 4.277 1.758 6.035 1.054 1.758 2.52 3.047 4.336 3.985a11.052 11.052 0 005.8 1.23c2.11-.059 4.102-.762 5.86-2.05l-8.086-8.145c-.176-.117-.293-.235-.293-.293V4.617c-1.758.352-3.34.996-4.746 2.051a10.952 10.952 0 00-3.399 3.926c-.82 1.64-1.23 3.34-1.23 5.156z" fill="#01A0E4"/></svg>