<svg width="29" height="29" fill="none" xmlns="http://www.w3.org/2000/svg"><path d="M14.5 28.172c-2.549 0-4.871-.623-7.023-1.87a14.06 14.06 0 01-5.155-5.154C1.076 18.996.453 16.674.453 14.125c0-2.492.623-4.871 1.87-7.023 1.244-2.153 3-3.852 5.153-5.098C9.629.758 11.95.078 14.5.078c2.492 0 4.871.68 7.023 1.926a13.757 13.757 0 015.098 5.098c1.246 2.152 1.926 4.53 1.926 7.023 0 2.549-.68 4.871-1.926 7.023-1.246 2.153-2.945 3.909-5.098 5.155-2.152 1.246-4.53 1.869-7.023 1.869zM2.266 14.125c0 2.266.51 4.305 1.642 6.174a11.568 11.568 0 004.475 4.418c1.869 1.133 3.908 1.642 6.117 1.642s4.248-.51 6.117-1.642c1.87-1.076 3.342-2.549 4.475-4.475a12.072 12.072 0 001.642-6.117c0-2.209-.566-4.248-1.642-6.117a13.014 13.014 0 00-4.475-4.475c-1.926-1.076-3.965-1.642-6.174-1.642-2.209 0-4.248.566-6.117 1.642C6.457 4.666 4.984 6.14 3.908 8.008c-1.133 1.926-1.642 3.965-1.642 6.117zm18.804-1.02c.453.284.68.68.68 1.19 0 .566-.227.963-.68 1.19l-9.968 5.72c-.454.283-.907.283-1.36 0-.453-.226-.68-.623-.68-1.19V8.236c0-.51.227-.907.68-1.19a1.444 1.444 0 011.36 0l9.968 6.06zm-10.195 5.551c0 .114.057.227.17.284.113.113.226.113.34 0l7.646-4.362a.432.432 0 00.114-.283c0-.113 0-.227-.114-.34l-7.646-4.588a.361.361 0 00-.34 0 .311.311 0 00-.17.283v9.006z" fill="#01A0E4"/></svg>