<svg width="32" height="32" fill="none" xmlns="http://www.w3.org/2000/svg"><path d="M16 31.5c-2.813 0-5.375-.688-7.75-2.063a15.514 15.514 0 01-5.688-5.687C1.188 21.375.5 18.812.5 16c0-2.75.688-5.375 2.063-7.75C3.937 5.875 5.874 4 8.25 2.625 10.625 1.25 13.188.5 16 .5c2.75 0 5.375.75 7.75 2.125a15.18 15.18 0 015.625 5.625c1.375 2.375 2.125 5 2.125 7.75 0 2.813-.75 5.375-2.125 7.75s-3.25 4.313-5.625 5.688-5 2.062-7.75 2.062zM2.5 16c0 2.5.563 4.75 1.813 6.813a12.765 12.765 0 004.937 4.875c2.063 1.25 4.313 1.812 6.75 1.812 2.438 0 4.688-.563 6.75-1.813 2.063-1.187 3.688-2.812 4.938-4.937A13.32 13.32 0 0029.5 16a13.32 13.32 0 00-1.813-6.75 14.36 14.36 0 00-4.937-4.938C20.625 3.125 18.375 2.5 15.937 2.5a13.32 13.32 0 00-6.75 1.813C7.126 5.563 5.5 7.188 4.314 9.25 3.063 11.375 2.5 13.625 2.5 16zM13 10v12-12zm-.625 0c-.125 0-.188.063-.25.125-.125.125-.125.188-.125.25v11.25c0 .125 0 .188.125.25.063.125.125.125.25.125h1.25c.063 0 .125 0 .25-.125.063-.063.125-.125.125-.25v-11.25c0-.063-.063-.125-.125-.25-.125-.063-.188-.125-.25-.125h-1.25zm6 0c-.125 0-.188.063-.25.125-.125.125-.125.188-.125.25v11.25c0 .125 0 .188.125.25.063.125.125.125.25.125h1.25c.063 0 .125 0 .25-.125.063-.063.125-.125.125-.25v-11.25c0-.063-.063-.125-.125-.25-.125-.063-.188-.125-.25-.125h-1.25z" fill="#01A0E4"/></svg>