<svg width="27" height="31" fill="none" xmlns="http://www.w3.org/2000/svg"><path d="M13.125 25.36c.293 0 .586-.118.82-.352.235-.235.352-.469.352-.82v-3.75c0-.293-.117-.586-.352-.82a1.157 1.157 0 00-.82-.352c-.352 0-.586.117-.82.351a1.157 1.157 0 00-.352.82v3.75c0 .352.117.586.352.82.234.235.468.352.82.352zm13.125-8.672c0-.762-.293-1.407-.82-1.993-.586-.527-1.23-.82-1.992-.82H22.5v-3.691c0-1.641-.469-3.223-1.29-4.688-.82-1.406-1.991-2.578-3.398-3.457C16.407 1.22 14.825.75 13.125.75c-1.7 0-3.281.469-4.688 1.29A9.17 9.17 0 004.98 5.436a9.499 9.499 0 00-1.23 4.688v3.75h-.938c-.82 0-1.464.293-1.992.82-.586.586-.82 1.23-.82 1.992v11.25c0 .82.234 1.465.82 1.993.528.586 1.172.82 1.993.82h20.625c.761 0 1.406-.234 1.992-.82.527-.528.82-1.172.82-1.992v-11.25zM5.625 13.874v-3.75c0-1.348.293-2.578.996-3.75.645-1.172 1.524-2.05 2.695-2.754 1.172-.644 2.403-.996 3.809-.996 1.348 0 2.578.352 3.75.996a7.75 7.75 0 012.754 2.754c.644 1.172.996 2.402.996 3.75v3.75h-15zm18.75 14.063a.97.97 0 01-.293.703c-.176.175-.41.234-.645.234H2.813c-.292 0-.527-.059-.703-.234-.175-.176-.234-.41-.234-.703v-11.25c0-.235.059-.47.234-.645a.97.97 0 01.704-.293h20.625c.234 0 .468.117.644.293s.293.41.293.645v11.25z" fill="#01A0E4"/></svg>