<svg width="30" height="28" fill="none" xmlns="http://www.w3.org/2000/svg"><path d="M22.031 13.75c0 .41.117.762.41.996.235.293.586.41.997.41.351 0 .703-.117.996-.41.234-.234.41-.586.41-.996 0-.352-.176-.703-.41-.996-.293-.234-.645-.41-.997-.41-.41 0-.761.176-.996.41-.293.293-.41.644-.41.996zm-2.343 1.406c-.41 0-.762-.117-.997-.41-.293-.234-.41-.586-.41-.996 0-.352.117-.703.41-.996.235-.234.586-.41.997-.41.351 0 .703.176.996.41.234.293.41.644.41.996 0 .41-.176.762-.41.996-.293.293-.645.41-.997.41zM30 7.656V2.97c0-.762-.293-1.406-.82-1.992-.586-.528-1.23-.82-1.992-.82H2.813c-.82 0-1.465.292-1.993.82C.234 1.563 0 2.207 0 2.969v4.687c0 .703.234 1.348.703 1.875C.234 10.117 0 10.703 0 11.406v4.688c0 .703.234 1.347.703 1.875C.234 18.555 0 19.14 0 19.844v4.687c0 .82.234 1.465.82 1.992.528.586 1.172.82 1.993.82h24.375c.761 0 1.406-.234 1.992-.82.527-.527.82-1.171.82-1.992v-4.687c0-.703-.234-1.29-.703-1.875A2.764 2.764 0 0030 16.094v-4.688c0-.703-.234-1.289-.703-1.875A2.764 2.764 0 0030 7.656zm-28.125 0V2.97c0-.235.059-.469.234-.645a.97.97 0 01.704-.293h24.375c.234 0 .468.117.644.293s.293.41.293.645v4.687a.97.97 0 01-.293.703c-.176.176-.41.235-.645.235H2.813c-.292 0-.527-.059-.703-.235-.175-.175-.234-.41-.234-.703zm25.313 2.813c.234 0 .468.117.644.293.176.175.293.41.293.644v4.688a.97.97 0 01-.293.703c-.176.176-.41.234-.645.234H2.813c-.292 0-.527-.058-.703-.234-.175-.176-.234-.41-.234-.703v-4.688c0-.234.059-.469.234-.644a.97.97 0 01.704-.293h24.375zm.937 9.375v4.687a.97.97 0 01-.293.703c-.176.176-.41.235-.645.235H2.813c-.292 0-.527-.059-.703-.235-.175-.175-.234-.41-.234-.703v-4.687c0-.235.059-.469.234-.645a.97.97 0 01.704-.293h24.375c.234 0 .468.117.644.293s.293.41.293.645zM23.437 6.719c-.41 0-.761-.117-.996-.41-.293-.235-.41-.586-.41-.997 0-.351.117-.703.41-.996.235-.234.586-.41.997-.41.351 0 .703.176.996.41.234.293.41.645.41.997 0 .41-.176.761-.41.996-.293.293-.645.41-.997.41zm-3.75 0c-.41 0-.761-.117-.996-.41-.293-.235-.41-.586-.41-.997 0-.351.117-.703.41-.996.235-.234.586-.41.997-.41.351 0 .703.176.996.41.234.293.41.645.41.997 0 .41-.176.761-.41.996-.293.293-.645.41-.997.41zm3.75 14.062c.352 0 .704.176.997.41.234.293.41.645.41.997 0 .41-.176.761-.41.996-.293.293-.645.41-.997.41-.41 0-.761-.117-.996-.41-.293-.235-.41-.586-.41-.997 0-.351.117-.703.41-.996.235-.234.586-.41.997-.41zm-3.75 0c.352 0 .704.176.997.41.234.293.41.645.41.997 0 .41-.176.761-.41.996-.293.293-.645.41-.997.41-.41 0-.761-.117-.996-.41-.293-.235-.41-.586-.41-.997 0-.351.117-.703.41-.996.235-.234.586-.41.997-.41z" fill="#01A0E4"/></svg>