<svg width="36" height="32" fill="none" xmlns="http://www.w3.org/2000/svg"><path d="M32 10c1.063 0 2 .438 2.813 1.188C35.563 12 36 12.938 36 14v10c0 1.125-.438 2.063-1.188 2.813C34 27.625 33.063 28 32 28h-2v3.25c0 .25-.125.438-.25.563a.71.71 0 01-.5.187c-.188 0-.313 0-.438-.125L22 28h-6c-1.125 0-2.063-.375-2.813-1.188C12.376 26.063 12 25.125 12 24v-4.875L14 18v6c0 .563.188 1.063.563 1.438.374.375.874.562 1.437.562h6.563L28 29.125V26h4c.5 0 1-.188 1.375-.563.375-.375.625-.875.625-1.437V14c0-.5-.25-1-.625-1.375S32.5 12 32 12h-6v2c0 1.125-.438 2.063-1.188 2.813C24 17.625 23.063 18 22 18h-8l-6.813 3.875c-.125.125-.312.125-.5.125a.71.71 0 01-.5-.188C6.063 21.688 6 21.5 6 21.25V18H4c-1.125 0-2.063-.375-2.813-1.188C.375 16.063 0 15.126 0 14V4c0-1.063.375-2 1.188-2.813C1.938.438 2.875 0 4 0h18c1.063 0 2 .438 2.813 1.188C25.563 2 26 2.938 26 4v6h6zm-8 4V4c0-.5-.25-1-.625-1.375S22.5 2 22 2H4c-.563 0-1.063.25-1.438.625A1.939 1.939 0 002 4v10c0 .563.188 1.063.563 1.438.374.374.874.562 1.437.562h4v3.125L13.5 16H22c.5 0 1-.188 1.375-.563.375-.374.625-.874.625-1.437z" fill="#01A0E4"/></svg>