<svg width="30" height="31" fill="none" xmlns="http://www.w3.org/2000/svg"><path d="M26.25.75c.996 0 1.875.41 2.637 1.113C29.59 2.625 30 3.503 30 4.5v16.875c0 1.055-.41 1.934-1.113 2.637-.762.761-1.64 1.113-2.637 1.113h-8.438l-7.324 5.508c-.117.117-.293.117-.468.117a.665.665 0 01-.47-.176c-.116-.117-.175-.293-.175-.527v-4.922H3.75c-1.055 0-1.934-.352-2.637-1.113C.352 23.309 0 22.43 0 21.375V4.5c0-.996.352-1.875 1.113-2.637C1.816 1.16 2.695.75 3.75.75h22.5zm1.875 20.625V4.5c0-.469-.234-.938-.586-1.29-.352-.35-.82-.585-1.289-.585H3.75c-.527 0-.996.234-1.348.586A1.82 1.82 0 001.875 4.5v16.875c0 .527.176.996.527 1.348.352.351.82.527 1.348.527h7.5v4.453l5.918-4.453h9.082c.469 0 .938-.176 1.29-.527.35-.352.585-.82.585-1.348zm-8.672-6.738a.721.721 0 01.586-.293c.234 0 .469.058.703.234.176.176.293.41.352.645 0 .234-.059.468-.235.644-.703.88-1.582 1.524-2.636 1.992a7.78 7.78 0 01-3.223.703 7.864 7.864 0 01-3.281-.703 6.66 6.66 0 01-2.578-1.992c-.176-.176-.235-.41-.235-.644 0-.235.117-.47.352-.645.176-.176.41-.234.644-.234.235 0 .47.117.645.293.527.703 1.172 1.172 1.992 1.523a5.802 5.802 0 002.461.527c.82 0 1.64-.175 2.46-.527a5.5 5.5 0 001.993-1.523zM11.25 11.53c-.41 0-.762-.117-.996-.41-.293-.234-.41-.586-.41-.996 0-.352.117-.703.41-.996.234-.234.586-.41.996-.41.352 0 .703.176.996.41.234.293.41.644.41.996 0 .41-.176.762-.41.996-.293.293-.644.41-.996.41zm7.5 0c-.41 0-.762-.117-.996-.41-.293-.234-.41-.586-.41-.996 0-.352.117-.703.41-.996.234-.234.586-.41.996-.41.352 0 .703.176.996.41.235.293.41.644.41.996 0 .41-.175.762-.41.996-.293.293-.644.41-.996.41z" fill="#01A0E4"/></svg>