<svg width="37" height="26" fill="none" xmlns="http://www.w3.org/2000/svg"><path d="M30.813 11.313c-1.247 0-2.323-.397-3.229-1.303-.906-.906-1.303-1.983-1.303-3.229s.397-2.265 1.303-3.172c.906-.906 1.982-1.359 3.229-1.359 1.246 0 2.265.453 3.171 1.36.907.906 1.36 1.925 1.36 3.171 0 1.246-.453 2.323-1.36 3.229-.906.906-1.925 1.303-3.172 1.303zm0-7.25c-.793 0-1.416.283-1.926.792-.567.567-.793 1.19-.793 1.926 0 .793.226 1.416.793 1.926.51.566 1.133.793 1.925.793.737 0 1.36-.227 1.926-.793.51-.51.793-1.133.793-1.926 0-.736-.283-1.36-.793-1.926-.566-.51-1.19-.793-1.925-.793zm-12.688 9.062a6.192 6.192 0 01-3.172-.85 5.73 5.73 0 01-2.322-2.322 6.192 6.192 0 01-.85-3.172c0-1.133.284-2.152.85-3.172.566-.963 1.303-1.755 2.322-2.322a6.192 6.192 0 013.172-.85c1.133 0 2.152.284 3.172.85a6.517 6.517 0 012.322 2.322c.567 1.02.85 2.04.85 3.172a6.192 6.192 0 01-.85 3.172c-.566 1.02-1.36 1.756-2.322 2.322-1.02.567-2.04.85-3.172.85zm0-10.875c-1.246 0-2.322.453-3.229 1.36-.906.906-1.302 1.925-1.302 3.171 0 1.246.396 2.323 1.303 3.229.906.906 1.982 1.303 3.228 1.303 1.246 0 2.266-.397 3.172-1.303.906-.906 1.36-1.983 1.36-3.229s-.454-2.265-1.36-3.172c-.906-.906-1.926-1.359-3.172-1.359zm13.82 10.875c1.133 0 2.153.453 3.002 1.36.85.906 1.303 1.925 1.303 3.171 0 .284-.113.51-.283.68-.17.17-.397.227-.623.227-.284 0-.51-.057-.68-.227-.17-.17-.227-.396-.227-.68 0-.736-.283-1.36-.736-1.925-.51-.51-1.076-.793-1.756-.793H29.68c-.34 0-.623.056-.907.17-.453-.454-.906-.85-1.416-1.247.68-.453 1.473-.736 2.323-.736h2.265zM5.437 11.312c-1.246 0-2.322-.396-3.228-1.302C1.303 9.104.906 8.027.906 6.78s.397-2.264 1.304-3.17c.906-.906 1.982-1.359 3.228-1.359 1.247 0 2.266.453 3.172 1.36.907.906 1.36 1.925 1.36 3.171 0 1.246-.453 2.323-1.36 3.229-.906.906-1.925 1.303-3.171 1.303zm0-7.25c-.792 0-1.416.284-1.925.793-.567.567-.793 1.19-.793 1.926 0 .793.226 1.416.793 1.926.51.566 1.133.793 1.925.793.737 0 1.36-.227 1.926-.793.51-.51.793-1.133.793-1.926 0-.736-.283-1.36-.793-1.926-.566-.51-1.19-.793-1.926-.793zm17.22 10.196a6.6 6.6 0 012.945.68 5.883 5.883 0 012.265 1.982C28.603 18.053 29 19.242 29 20.545v2.549a2.6 2.6 0 01-.793 1.925c-.566.567-1.19.794-1.926.794H9.97c-.793 0-1.416-.227-1.926-.793-.566-.51-.793-1.133-.793-1.926v-2.55c0-1.302.34-2.491 1.133-3.624.566-.85 1.303-1.53 2.209-1.983.906-.453 1.926-.68 3.002-.68.566 0 1.303.114 2.096.34.85.227 1.642.34 2.435.34.736 0 1.53-.113 2.436-.34.793-.226 1.472-.34 2.095-.34zm4.53 8.836v-2.55c0-.905-.283-1.812-.793-2.605-.453-.566-.962-1.02-1.585-1.359-.68-.34-1.36-.51-2.153-.51-.453 0-1.02.114-1.699.284a10.33 10.33 0 01-5.664 0c-.68-.17-1.246-.284-1.7-.284-.792 0-1.528.17-2.208.51-.68.34-1.19.793-1.53 1.36-.566.792-.793 1.699-.793 2.605v2.549c0 .283.057.51.227.68.17.17.397.226.68.226H26.28c.227 0 .453-.057.623-.227a.938.938 0 00.284-.68zM8.893 13.86a7.683 7.683 0 00-1.416 1.246c-.34-.113-.623-.17-.907-.17H4.305c-.68 0-1.303.284-1.756.793a2.74 2.74 0 00-.736 1.926c0 .284-.114.51-.284.68-.17.17-.396.227-.623.227-.283 0-.51-.057-.68-.227-.17-.17-.226-.396-.226-.68 0-1.246.396-2.265 1.246-3.172.85-.906 1.87-1.359 3.059-1.359H6.57c.793 0 1.586.283 2.323.736z" fill="#01A0E4"/></svg>