<svg width="32" height="32" fill="none" xmlns="http://www.w3.org/2000/svg"><path d="M17.422 29.188c.219.546.547.93 1.094 1.148a1.996 1.996 0 001.586 0l1.968-.82c.547-.22.93-.602 1.149-1.149.218-.547.164-1.039-.055-1.586l-2.297-5.742h3.555c.547 0 1.039-.164 1.422-.602.383-.382.601-.875.656-1.421 0-.547-.164-1.094-.547-1.532L12.555 3.156c-.438-.437-.93-.656-1.477-.656s-1.039.219-1.476.602c-.438.437-.602.93-.602 1.53v20.509c0 .656.164 1.148.602 1.53.437.384.93.548 1.476.548.547 0 1.04-.219 1.477-.711l2.57-2.844 2.297 5.523zm-1.75-8.805l-4.43 4.976c-.11.11-.219.164-.328.11-.11-.055-.164-.164-.164-.383V4.633c0-.164.055-.274.164-.328.11-.055.219-.055.328.054l13.399 14.329a.335.335 0 01.054.382c-.054.164-.164.22-.273.22h-6.18l3.336 8.148v.273c-.055.11-.11.219-.164.219l-1.969.82c-.218.11-.328 0-.383-.219l-3.39-8.148z" fill="#01A0E4"/></svg>