<svg width="32" height="32" fill="none" xmlns="http://www.w3.org/2000/svg"><path d="M24.031 5.25c.737 0 1.36.283 1.926.793.51.566.793 1.19.793 1.926v19.937c0 .793-.283 1.416-.793 1.926-.566.566-1.19.793-1.926.793H7.72c-.793 0-1.416-.227-1.926-.793-.566-.51-.793-1.133-.793-1.926V7.97c0-.737.227-1.36.793-1.926a2.603 2.603 0 011.926-.793h5.04c-.056-.113-.056-.283-.056-.453 0-.85.283-1.586.906-2.21.623-.622 1.36-.962 2.266-.962.85 0 1.586.34 2.209.963s.963 1.36.963 2.209c0 .17-.057.34-.057.453h5.041zm-8.156-1.813c-.396 0-.736.17-.963.397a1.327 1.327 0 00-.396.963c0 .396.113.736.396.963.227.283.566.396.963.396.34 0 .68-.113.963-.396a1.37 1.37 0 00.396-.963c0-.34-.17-.68-.396-.963-.283-.227-.623-.397-.963-.397zm9.063 24.47V7.968c0-.227-.114-.453-.284-.623-.17-.17-.396-.284-.623-.284h-2.718v1.133a.718.718 0 01-.227.51.643.643 0 01-.453.17h-9.516c-.226 0-.396-.057-.51-.17-.113-.113-.17-.283-.17-.51V7.062H7.72a.938.938 0 00-.68.284c-.17.17-.226.396-.226.623v19.937c0 .284.056.51.226.68.17.17.397.227.68.227h16.31c.227 0 .453-.057.623-.227a.938.938 0 00.284-.68zm-3.342-13.368l.51.453c.113.17.17.34.17.51 0 .226-.057.34-.17.453l-7.647 7.59a.914.914 0 01-.51.17c-.226 0-.34-.057-.453-.17l-3.795-3.852c-.17-.113-.226-.226-.226-.453 0-.17.056-.34.226-.51l.453-.453c.114-.113.284-.226.453-.226.17 0 .34.113.51.226l2.832 2.832 6.684-6.627c.113-.113.283-.17.51-.17.17 0 .34.114.453.227z" fill="#01A0E4"/></svg>