<svg width="103" height="85" fill="none" xmlns="http://www.w3.org/2000/svg"><path d="M4 38.5c0-1.188.445-2.375 1.336-3.266.89-.89 2.078-1.484 3.414-1.484h4.75v28.5H8.75c-1.336 0-2.523-.445-3.414-1.336C4.446 60.024 4 58.836 4 57.5v-19zm68.875-23.75c3.266 0 5.938 1.188 8.313 3.563 2.374 2.375 3.562 5.046 3.562 8.312V67c0 2.672-1.04 4.898-2.82 6.68-1.93 1.93-4.157 2.82-6.68 2.82h-47.5c-2.672 0-4.898-.89-6.68-2.82-1.93-1.782-2.82-4.008-2.82-6.68V26.625c0-3.266 1.04-5.938 3.414-8.313 2.375-2.375 5.195-3.562 8.461-3.562H46.75v-9.5c0-1.188.445-2.375 1.336-3.266C48.976 1.094 50.164.5 51.5.5c1.188 0 2.375.594 3.266 1.484.89.891 1.484 2.079 1.484 3.266v9.5h16.625zM42 62.25V57.5h-9.5v4.75H42zm-4.75-17.813c1.633 0 2.969-.445 4.156-1.632 1.188-1.188 1.782-2.524 1.782-4.305 0-1.633-.594-2.969-1.782-4.156-1.187-1.188-2.523-1.782-4.156-1.782-1.781 0-3.117.594-4.305 1.782-1.187 1.187-1.633 2.523-1.633 4.156 0 1.781.446 3.117 1.633 4.305 1.188 1.187 2.524 1.633 4.305 1.633zm19 17.813V57.5h-9.5v4.75h9.5zm14.25 0V57.5H61v4.75h9.5zm-4.75-17.813c1.633 0 2.969-.445 4.156-1.632 1.188-1.188 1.781-2.524 1.781-4.305 0-1.633-.593-2.969-1.78-4.156-1.188-1.188-2.524-1.782-4.157-1.782-1.781 0-3.117.594-4.305 1.782-1.187 1.187-1.633 2.523-1.633 4.156 0 1.781.446 3.117 1.633 4.305 1.188 1.187 2.524 1.633 4.305 1.633zm28.5-10.687c1.188 0 2.375.594 3.266 1.484.89.891 1.484 2.078 1.484 3.266v19c0 1.336-.594 2.523-1.484 3.414a4.605 4.605 0 01-3.266 1.336H89.5v-28.5h4.75z" fill="#fff" filter="url(#a)"/><defs><filter id="a" x="0" y=".5" width="103" height="84" filterUnits="userSpaceOnUse" color-interpolation-filters="sRGB"><feFlood flood-opacity="0" result="BackgroundImageFix"/><feColorMatrix in="SourceAlpha" values="0 0 0 0 0 0 0 0 0 0 0 0 0 0 0 0 0 0 127 0"/><feOffset dy="4"/><feGaussianBlur stdDeviation="2"/><feColorMatrix values="0 0 0 0 0 0 0 0 0 0 0 0 0 0 0 0 0 0 0.25 0"/><feBlend in2="BackgroundImageFix" result="effect1_dropShadow"/><feBlend in="SourceGraphic" in2="effect1_dropShadow" result="shape"/></filter></defs></svg>