<svg width="16" height="16" fill="none" xmlns="http://www.w3.org/2000/svg"><path d="M.557 1.607c-.176.03-.293.118-.41.235a.872.872 0 00-.147.44c0 2.46.615 4.745 1.846 6.855 1.23 2.05 2.841 3.691 4.892 4.892a13.37 13.37 0 006.856 1.846c.176 0 .322-.03.44-.146a.468.468 0 00.234-.41l.703-3.048c.058-.146.029-.293-.059-.468a.553.553 0 00-.352-.323l-3.28-1.406c-.118-.058-.264-.058-.44-.03-.147.03-.264.118-.381.235l-1.436 1.758a10.059 10.059 0 01-3.046-2.139 10.599 10.599 0 01-2.14-3.046l1.759-1.465a.583.583 0 00.234-.352c.059-.146.03-.293-.03-.469l-1.405-3.28a.681.681 0 00-.323-.323.835.835 0 00-.468-.059l-3.047.703z" fill="#01A0E4"/></svg>