<svg width="100" height="46" fill="none" xmlns="http://www.w3.org/2000/svg"><mask id="a" fill="#fff"><path fill-rule="evenodd" clip-rule="evenodd" d="M18.5 0C8.283 0 0 8.283 0 18.5S8.283 37 18.5 37h23.575l.01 8.079L53.986 37H81.5c10.217 0 18.5-8.283 18.5-18.5S91.717 0 81.5 0h-63z"/></mask><path d="M42.075 37l1-.001-.001-.999h-.999v1zm.01 8.079h-1l.003 1.886 1.56-1.06-.562-.826zM53.986 37v-1h-.307l-.255.173.562.827zM1 18.5C1 8.835 8.835 1 18.5 1v-2C7.73-1-1 7.73-1 18.5h2zM18.5 36C8.835 36 1 28.165 1 18.5h-2C-1 29.27 7.73 38 18.5 38v-2zm23.575 0H18.5v2h23.575v-2zm1.01 9.077L43.076 37l-2 .002.01 8.079 2-.003zm10.338-8.904L41.524 44.25l1.124 1.655 11.899-8.079-1.124-1.654zM81.5 36H53.985v2H81.5v-2zM99 18.5C99 28.165 91.165 36 81.5 36v2c10.77 0 19.5-8.73 19.5-19.5h-2zM81.5 1C91.165 1 99 8.835 99 18.5h2C101 7.73 92.27-1 81.5-1v2zm-63 0h63v-2h-63v2z" fill="#C4C4C4" mask="url(#a)"/><circle cx="21.5" cy="18.5" r="4" stroke="#01A0E4" stroke-width="3"/><circle cx="50.5" cy="18.5" r="4" stroke="#01A0E4" stroke-width="3"/><circle cx="78.5" cy="18.5" r="4" stroke="#01A0E4" stroke-width="3"/></svg>