<svg width="19" height="20" fill="none" xmlns="http://www.w3.org/2000/svg"><path d="M18.958 2.76c0-.55-.211-1.015-.592-1.438-.423-.381-.889-.593-1.439-.593H2.031a1.952 1.952 0 00-1.439.593A1.917 1.917 0 000 2.76v14.896c0 .593.17 1.058.592 1.44.381.422.847.592 1.44.592h8.336v-7.49H7.786V9.32h2.582V7.204c0-1.185.296-2.074.973-2.75.677-.678 1.566-1.016 2.709-1.016.846 0 1.608.042 2.2.127v2.539h-1.523c-.55 0-.931.127-1.143.38-.17.254-.254.593-.254 1.016v1.82h2.92l-.38 2.877h-2.54v7.49h3.597c.55 0 1.016-.169 1.439-.592.38-.38.592-.846.592-1.439V2.761z" fill="#4267B2"/></svg>