<svg width="137" height="90" xmlns="http://www.w3.org/2000/svg" xmlns:xlink="http://www.w3.org/1999/xlink"><use xlink:href="#a" transform="translate(0 75)" fill="#D9D9D9"/><g transform="translate(0 -1)"><use xlink:href="#b" fill="#4267B2"/><use xlink:href="#c" fill="#0278B6"/><use xlink:href="#d" fill="#1EA1F3"/><use xlink:href="#e" fill="red"/></g><defs><path id="a" d="M14 1.781a.783.783 0 00-.25-.562c-.156-.125-.344-.219-.531-.219H.78a.775.775 0 00-.562.219A.753.753 0 000 1.78v12.44c0 .219.063.406.219.562.125.156.312.219.562.219H7.47V9.562H5.656V7.47H7.47V5.906c0-.875.25-1.562.75-2.062.5-.469 1.156-.719 1.969-.719.624 0 1.187.031 1.624.063v1.906h-1.124c-.407 0-.688.093-.844.281-.125.156-.188.406-.188.75v1.344h2.094l-.281 2.093H9.656V15h3.563a.753.753 0 00.562-.219.898.898 0 00.219-.562V1.78zM52 1c.25 0 .5.125.688.313.187.187.312.437.312.687v12c0 .281-.125.531-.313.719A.97.97 0 0152 15H40a.99.99 0 01-.719-.281A.99.99 0 0139 14V2c0-.25.094-.5.281-.688C39.47 1.125 39.72 1 40 1h12zm-8.781 12h.031V6.312h-2.094V13h2.063zm-1.032-7.594c.313 0 .594-.093.844-.343s.375-.532.375-.844c0-.313-.125-.594-.375-.844S42.5 3 42.188 3a1.07 1.07 0 00-.844.375c-.25.25-.344.531-.344.844 0 .312.094.593.344.843.218.25.5.344.843.344zM51 13V9.344c0-1.031-.156-1.781-.438-2.281-.406-.594-1.093-.907-2.03-.907-.5 0-.907.125-1.282.344-.313.188-.563.438-.688.719h-.03v-.907h-2V13h2.062V9.687c0-.5.062-.906.218-1.187.188-.344.532-.531 1.032-.531.468 0 .781.218.937.593.094.25.157.657.157 1.188V13H51zm41.344-8.25A7.234 7.234 0 0094 3.031c-.625.281-1.25.469-1.875.531.688-.437 1.188-1.03 1.438-1.812-.657.375-1.344.656-2.094.781a3.787 3.787 0 00-1.094-.75 3.094 3.094 0 00-1.313-.281c-.593 0-1.124.156-1.624.438a3.41 3.41 0 00-1.188 1.218c-.313.5-.438 1.063-.438 1.625 0 .25 0 .5.063.75-1.344-.062-2.594-.375-3.781-1a8.645 8.645 0 01-2.969-2.437 3.25 3.25 0 00-.469 1.656c0 .563.125 1.094.406 1.563.25.5.626.875 1.063 1.187a2.698 2.698 0 01-1.469-.438v.063c0 .781.25 1.469.75 2.063.5.624 1.125 1 1.875 1.156a4.394 4.394 0 01-.875.094c-.187 0-.406 0-.594-.032.188.656.563 1.188 1.126 1.625.562.438 1.187.625 1.937.625-1.219.938-2.594 1.406-4.094 1.406-.312 0-.562 0-.781-.03 1.5 1 3.188 1.468 5.031 1.468 1.906 0 3.594-.469 5.094-1.469A8.862 8.862 0 0091.281 9.5c.719-1.375 1.094-2.844 1.094-4.344 0-.187-.031-.312-.031-.406zm43.844-.875c.124.563.25 1.438.312 2.563L136.531 8l-.031 1.563c-.062 1.187-.188 2.03-.312 2.593a2.366 2.366 0 01-.563.938 2.038 2.038 0 01-.969.562c-.562.156-1.812.25-3.812.313L128 14l-2.844-.031c-2-.063-3.281-.156-3.812-.313a1.902 1.902 0 01-.969-.562 1.817 1.817 0 01-.563-.938c-.156-.562-.25-1.406-.312-2.594L119.469 8c0-.438 0-.969.031-1.563.062-1.125.156-2 .312-2.562.094-.375.282-.688.563-.969.25-.25.594-.437.969-.562.531-.125 1.812-.25 3.812-.313L128 2l2.844.031c2 .063 3.25.188 3.812.313.375.125.688.312.969.562.25.281.437.594.563.969zm-9.938 6.688L130.719 8l-4.469-2.531v5.093z"/><path id="b" d="M14 1.781a.783.783 0 00-.25-.562c-.156-.125-.344-.219-.531-.219H.78a.775.775 0 00-.562.219A.753.753 0 000 1.78v12.44c0 .219.063.406.219.562.125.156.312.219.562.219H7.47V9.562H5.656V7.47H7.47V5.906c0-.875.25-1.562.75-2.062.5-.469 1.156-.719 1.969-.719.624 0 1.187.031 1.624.063v1.906h-1.124c-.407 0-.688.093-.844.281-.125.156-.188.406-.188.75v1.344h2.094l-.281 2.093H9.656V15h3.563a.753.753 0 00.562-.219.898.898 0 00.219-.562V1.78z"/><path id="c" d="M52 1c.25 0 .5.125.688.313.187.187.312.437.312.687v12c0 .281-.125.531-.313.719A.97.97 0 0152 15H40a.99.99 0 01-.719-.281A.99.99 0 0139 14V2c0-.25.094-.5.281-.688C39.47 1.125 39.72 1 40 1h12zm-8.781 12h.031V6.312h-2.094V13h2.063zm-1.032-7.594c.313 0 .594-.093.844-.343s.375-.532.375-.844c0-.313-.125-.594-.375-.844S42.5 3 42.188 3a1.07 1.07 0 00-.844.375c-.25.25-.344.531-.344.844 0 .312.094.593.344.843.218.25.5.344.843.344zM51 13V9.344c0-1.031-.156-1.781-.438-2.281-.406-.594-1.093-.907-2.03-.907-.5 0-.907.125-1.282.344-.313.188-.563.438-.688.719h-.03v-.907h-2V13h2.062V9.687c0-.5.062-.906.218-1.187.188-.344.532-.531 1.032-.531.468 0 .781.218.937.593.094.25.157.657.157 1.188V13H51z"/><path id="d" d="M92.344 4.75A7.234 7.234 0 0094 3.031c-.625.281-1.25.469-1.875.531.688-.437 1.188-1.03 1.438-1.812-.657.375-1.344.656-2.094.781a3.787 3.787 0 00-1.094-.75 3.094 3.094 0 00-1.313-.281c-.593 0-1.124.156-1.624.438a3.41 3.41 0 00-1.188 1.218c-.313.5-.438 1.063-.438 1.625 0 .25 0 .5.063.75-1.344-.062-2.594-.375-3.781-1a8.645 8.645 0 01-2.969-2.437 3.25 3.25 0 00-.469 1.656c0 .563.125 1.094.406 1.563.25.5.626.875 1.063 1.187a2.698 2.698 0 01-1.469-.438v.063c0 .781.25 1.469.75 2.063.5.624 1.125 1 1.875 1.156a4.394 4.394 0 01-.875.094c-.187 0-.406 0-.594-.032.188.656.563 1.188 1.126 1.625.562.438 1.187.625 1.937.625-1.219.938-2.594 1.406-4.094 1.406-.312 0-.562 0-.781-.03 1.5 1 3.188 1.468 5.031 1.468 1.906 0 3.594-.469 5.094-1.469A8.862 8.862 0 0091.281 9.5c.719-1.375 1.094-2.844 1.094-4.344 0-.187-.031-.312-.031-.406z"/><path id="e" d="M136.188 3.875c.124.563.25 1.438.312 2.563L136.531 8l-.031 1.563c-.062 1.187-.188 2.03-.312 2.593a2.366 2.366 0 01-.563.938 2.038 2.038 0 01-.969.562c-.562.156-1.812.25-3.812.313L128 14l-2.844-.031c-2-.063-3.281-.156-3.812-.313a1.902 1.902 0 01-.969-.562 1.817 1.817 0 01-.563-.938c-.156-.562-.25-1.406-.312-2.594L119.469 8c0-.438 0-.969.031-1.563.062-1.125.156-2 .312-2.562.094-.375.282-.688.563-.969.25-.25.594-.437.969-.562.531-.125 1.812-.25 3.812-.313L128 2l2.844.031c2 .063 3.25.188 3.812.313.375.125.688.312.969.562.25.281.437.594.563.969zm-9.938 6.688L130.719 8l-4.469-2.531v5.093z"/></defs></svg>