<svg width="118" height="54" fill="none" xmlns="http://www.w3.org/2000/svg"><path d="M106.149 43.119c0 5.848-4.557 10.294-10.53 10.288-5.972-.006-10.502-4.461-10.499-10.317.003-5.855 4.57-10.304 10.53-10.295 5.96.01 10.505 4.476 10.499 10.324zm-5.327 0c0-2.95-2.233-5.22-5.156-5.236-2.923-.015-5.218 2.252-5.224 5.215 0 2.932 2.264 5.237 5.156 5.252 2.926.01 5.22-2.285 5.224-5.234v.003zm-54.738 7.477c0-.603.024-1.207-.01-1.801-.022-.412.07-.504.488-.39 1.66.452 3.348.699 5.076.587a4.847 4.847 0 001.871-.437c1.207-.594 1.313-1.878.23-2.671-.592-.433-1.288-.637-1.974-.851-1.25-.39-2.46-.85-3.543-1.617-3.236-2.288-2.778-7.53.566-9.476 1.475-.858 3.078-1.157 4.751-1.146 1.487.028 2.967.205 4.418.53.302.063.408.177.402.502a94.85 94.85 0 000 3.469c0 .302-.06.372-.378.294-1.358-.336-2.73-.58-4.142-.493a3.925 3.925 0 00-1.81.486c-.877.521-.966 1.508-.198 2.18.453.396 1.01.578 1.566.764.995.332 2.018.582 2.96 1.065 2.112 1.08 3.381 2.731 3.392 5.157.012 2.531-1.102 4.438-3.388 5.607-1.358.697-2.828.986-4.341 1.042-1.868.07-3.717-.151-5.558-.453-.302-.046-.395-.16-.385-.452.023-.635.007-1.266.007-1.896zm33.731-11.755a9.266 9.266 0 00-4.628-1.032c-2.875.109-5.037 2.296-5.102 5.194a5.186 5.186 0 004.857 5.373 8.952 8.952 0 004.548-.848.452.452 0 01.325-.09v4.171c0 1.117 0 1.126-1.118 1.385-2.792.644-5.555.641-8.194-.591-3.697-1.727-5.651-4.685-5.847-8.749-.174-3.596 1.086-6.596 4.007-8.788 2.062-1.546 4.438-2.128 6.99-2.057 1.291.038 2.573.24 3.813.603.184.053.358.079.356.36-.015 1.662-.007 3.334-.007 5.069zm-52.468 0a9.221 9.221 0 00-4.631-1.032c-2.891.11-5.054 2.322-5.097 5.248-.044 2.836 2.035 5.098 4.87 5.32a9.044 9.044 0 004.79-.967c.116.128.065.267.065.392 0 1.487 0 2.975.009 4.46 0 .314-.064.468-.403.56-3.018.803-6.006.925-8.903-.413-3.753-1.744-5.689-4.76-5.86-8.877-.136-3.31.988-6.128 3.542-8.296 1.64-1.394 3.572-2.128 5.697-2.358a14.596 14.596 0 015.526.518c.286.08.407.184.402.511-.018 1.616-.007 3.237-.007 4.934zm6.906-22.381v12.972c0 1.34-.777 2.365-1.961 2.614-1.555.326-2.958-.773-3.04-2.382V3.449c0-1.005.327-1.832 1.206-2.367a2.363 2.363 0 012.525-.048c.88.493 1.282 1.28 1.284 2.271.005 3.663.005 7.327 0 10.992-.01.726-.014 1.447-.014 2.163zm49.857-.056V3.338c0-1.37.788-2.356 2.036-2.58A2.482 2.482 0 0189.08 3.12v26.223a2.905 2.905 0 01-.387 1.594 2.49 2.49 0 01-4.098.187 2.453 2.453 0 01-.491-1.517c-.01-3.605 0-7.209 0-10.814.005-.796.008-1.593.008-2.39zM39.3 43.087c0 3.168 0 6.335.01 9.503 0 .383-.11.47-.477.464a155.374 155.374 0 00-4.192 0c-.288 0-.379-.069-.379-.37.01-6.383.01-12.765 0-19.148 0-.314.083-.406.4-.403 1.382.017 2.765.023 4.147 0 .392 0 .504.088.502.492-.02 3.156-.01 6.308-.01 9.462zm63.491-24.458c0 2.027.015 4.053 0 6.08-.013 1.271-.935 2.238-2.236 2.413a2.462 2.462 0 01-2.656-1.757 2.738 2.738 0 01-.114-.754c-.007-3.993-.007-7.987 0-11.981 0-1.056.48-1.854 1.444-2.305.926-.433 1.82-.302 2.625.31.649.498.943 1.188.943 2.002v5.99l-.006.002zM15.542 18.6c0-1.997-.01-3.994 0-5.991a2.496 2.496 0 013.362-2.367 2.5 2.5 0 011.235.99c.27.419.411.908.405 1.407 0 3.979.01 7.96 0 11.939 0 1.467-1.122 2.588-2.515 2.573-1.393-.015-2.48-1.127-2.487-2.603-.007-1.984 0-3.966 0-5.948zm27.413.02c0-1.997-.012-3.995 0-5.992.01-1.056.488-1.85 1.452-2.3.928-.433 1.82-.302 2.621.324a2.359 2.359 0 01.927 1.922c.01 4.024.016 8.049 0 12.067a2.487 2.487 0 01-2.49 2.51c-1.396 0-2.496-1.112-2.507-2.584-.013-1.983-.003-3.965-.003-5.947zm32.415.027c0 1.98.01 3.962 0 5.943-.008 1.009-.454 1.8-1.359 2.271a2.356 2.356 0 01-2.518-.15c-.821-.548-1.117-1.358-1.115-2.326.009-3.391 0-6.788 0-10.174 0-.57-.022-1.142.016-1.71.095-1.435 1.215-2.484 2.556-2.423 1.384.062 2.407 1.139 2.415 2.578.013 2 .004 3.995.004 5.99zM1.835 22.05v-2.52c.014-1.47 1.09-2.583 2.497-2.59 1.38 0 2.484 1.087 2.505 2.532.024 1.71.024 3.419 0 5.128-.02 1.453-1.113 2.551-2.493 2.551-1.379 0-2.49-1.115-2.508-2.58-.009-.841-.001-1.681-.001-2.521zm59.821.006c0 .855.018 1.712 0 2.564-.036 1.357-.922 2.335-2.245 2.504-1.138.15-2.273-.614-2.625-1.754a2.861 2.861 0 01-.119-.844c0-1.681-.013-3.363 0-5.045.014-1.225.804-2.22 1.915-2.474a2.487 2.487 0 012.78 1.266c.203.403.305.85.294 1.303.003.828 0 1.655 0 2.48zm54.835.012c0 .87.021 1.742 0 2.612-.039 1.332-.972 2.31-2.301 2.454-1.133.124-2.263-.662-2.577-1.81a3.297 3.297 0 01-.103-.844 358.761 358.761 0 010-4.866c.011-1.415.839-2.432 2.105-2.625 1.518-.246 2.832.878 2.866 2.47.018.867.01 1.739.01 2.609z" fill="#059FD8"/></svg>