<svg width="173" height="54" fill="none" xmlns="http://www.w3.org/2000/svg"><path d="M17.56 11.018a1.56 1.56 0 011.556 1.579 1.56 1.56 0 01-1.556 1.578h-.087c-.778 0-1.47-.701-1.47-1.49 0-.44.172-.878.432-1.141.26-.351.692-.527 1.125-.527zm0-2.018c-1.99 0-3.633 1.754-3.547 3.772.087 1.842 1.557 3.333 3.374 3.421h.172c1.99 0 3.547-1.667 3.547-3.597S19.462 9 17.559 9zm-2.422 25.35c1.99 0 3.633 1.667 3.633 3.685 0 2.017-1.644 3.684-3.633 3.684h-3.893c-1.99 0-3.633-1.667-3.633-3.684 0-2.018 1.644-3.684 3.633-3.684h3.893zm0-2.456h-3.893c-3.287 0-5.968 2.72-5.968 6.053 0 3.334 2.681 6.053 5.968 6.053h3.893c3.287 0 5.968-2.72 5.968-6.053 0-3.333-2.681-6.053-5.968-6.053zm-.001-11.754c1.99 0 3.633 1.667 3.633 3.685 0 2.017-1.643 3.684-3.633 3.684H5.968c-1.989 0-3.632-1.667-3.632-3.684 0-2.018 1.643-3.685 3.632-3.685h9.17zm0-2.368H5.968C2.682 17.772 0 20.492 0 23.825c0 3.333 2.682 6.052 5.968 6.052h9.17c3.286 0 5.968-2.72 5.968-6.052 0-3.334-2.682-6.053-5.969-6.053z" fill="#FF4F1F"/><path d="M168.761 18.123h-.865v-.351h2.076v.35h-.865v2.282h-.346v-2.281zm2.768 2.28l-.692-2.28v2.28h-.432v-2.631h.605l.692 2.193.692-2.193H173v2.632h-.346v-2.281l-.692 2.28h-.433zM67.556 44v-2.632H55.62v-9.386h10.726V29.44H55.62v-9.035h11.937v-2.632H53.024V44h14.532zm42.904 0v-2.632H98.523v-9.386h10.726V29.44H98.523v-9.035h11.937v-2.632H95.928V44h14.532zm31.573 0V33.123l8.736-15.351h-2.854l-7.093 12.544-7.18-12.544h-2.941l8.737 15.35V44h2.595zm-51.468 0V17.772H87.97v21.404L75.168 17.771h-2.595V44h2.595V22.596L87.97 44h2.595zM39.357 32.772h6.228v2.105c0 5.176-3.2 6.93-6.228 6.93-3.027 0-6.228-1.842-6.228-6.93V27.07c0-5.175 3.2-6.93 6.228-6.93 3.287 0 5.536 2.018 6.055 5.351h2.595c-.605-4.824-3.979-7.982-8.65-7.982-5.276 0-8.823 3.86-8.823 9.561v7.895c0 5.702 3.547 9.561 8.823 9.561 5.277 0 8.823-3.86 8.823-9.561v-4.65h-8.823v2.457zm74.304 3.333c.086 3.772 2.508 8.334 8.39 8.334 4.758 0 7.699-2.72 7.699-7.193 0-4.035-2.682-6.228-5.19-6.93l-4.498-1.228c-2.163-.614-3.374-2.193-3.374-4.474 0-2.72 1.903-4.561 4.844-4.561 2.768 0 4.671 1.579 5.277 4.649h2.595c-.519-3.597-2.768-7.193-7.872-7.193-4.411 0-7.439 2.895-7.439 7.105 0 3.509 1.903 6.228 5.104 7.105l4.325 1.228c2.249.614 3.546 2.193 3.546 4.386 0 2.983-1.816 4.562-5.103 4.562s-5.536-2.193-5.796-5.702l-2.508-.088zm38.233 0c.086 3.772 2.508 8.334 8.39 8.334 4.758 0 7.699-2.72 7.699-7.193 0-4.035-2.682-6.228-5.19-6.93l-4.498-1.228c-2.163-.614-3.374-2.193-3.374-4.474 0-2.72 1.903-4.561 4.844-4.561 2.768 0 4.671 1.579 5.277 4.649h2.595c-.519-3.597-2.768-7.193-7.872-7.193-4.411 0-7.439 2.895-7.439 7.105 0 3.509 1.903 6.228 5.104 7.105l4.325 1.228c2.249.614 3.546 2.193 3.546 4.386 0 2.983-1.816 4.562-5.103 4.562s-5.536-2.193-5.796-5.702l-2.508-.088z" fill="#4E5054"/></svg>