<svg width="14" height="15" fill="none" xmlns="http://www.w3.org/2000/svg"><path d="M6.781.969c1.203 0 2.352.328 3.39.93a6.642 6.642 0 012.462 2.46c.601 1.04.93 2.188.93 3.391 0 1.23-.329 2.352-.93 3.39a6.715 6.715 0 01-2.461 2.489 6.698 6.698 0 01-3.39.902c-1.231 0-2.352-.3-3.391-.902A6.787 6.787 0 01.902 11.14 6.626 6.626 0 010 7.75c0-1.203.3-2.352.902-3.39a6.715 6.715 0 012.489-2.462c1.039-.601 2.16-.93 3.39-.93zm4.895 4.375a5.15 5.15 0 00-1.121-1.532 6.068 6.068 0 00-1.559-1.066c.383.738.656 1.613.848 2.598h1.832zM6.78 2.28c-.273 0-.574.274-.902.793-.383.602-.656 1.367-.82 2.27h3.445c-.191-.903-.465-1.668-.82-2.27-.329-.52-.63-.793-.903-.793zM1.313 7.75c0 .383.027.738.109 1.094h2.133C3.5 8.46 3.5 8.078 3.5 7.75c0-.328 0-.684.055-1.094H1.422c-.082.383-.11.739-.11 1.094zm.574 2.406a4.747 4.747 0 001.093 1.531 5.77 5.77 0 001.586 1.067c-.382-.711-.683-1.586-.847-2.598H1.887zm1.832-4.812a8.79 8.79 0 01.847-2.598A5.77 5.77 0 002.98 3.813a5.07 5.07 0 00-1.093 1.53h1.832zm3.062 7.875c.274 0 .574-.246.903-.793.355-.602.628-1.34.82-2.27H5.059c.164.93.437 1.668.82 2.27.328.547.629.793.902.793zm1.914-4.375c.028-.41.055-.766.055-1.094 0-.328-.027-.684-.055-1.094H4.867c-.054.41-.054.766-.054 1.094 0 .328 0 .71.054 1.094h3.828zm.301 3.91a6.067 6.067 0 001.559-1.066c.465-.438.847-.93 1.12-1.532h-1.83c-.192 1.012-.465 1.887-.848 2.598zm1.012-3.91h2.133c.054-.356.109-.711.109-1.094 0-.355-.055-.71-.11-1.094h-2.132c.027.41.055.766.055 1.094 0 .328-.028.71-.055 1.094z" fill="#333"/></svg>