<svg width="19" height="20" fill="none" xmlns="http://www.w3.org/2000/svg"><path d="M17.604.73c.339 0 .677.169.931.422.254.254.423.593.423.931v16.25c0 .381-.169.72-.423.974s-.592.38-.93.38H1.354c-.382 0-.72-.126-.974-.38S0 18.714 0 18.333V2.083c0-.338.127-.677.38-.93.255-.254.593-.424.974-.424h16.25zM5.713 16.98h.042V7.922H2.92v9.056h2.793zM4.316 6.695c.424 0 .804-.127 1.143-.465.339-.339.508-.72.508-1.143 0-.423-.17-.804-.508-1.143-.339-.338-.72-.507-1.143-.507a1.45 1.45 0 00-1.142.507c-.339.339-.466.72-.466 1.143 0 .423.127.804.466 1.143.296.338.677.465 1.142.465zM16.25 16.98v-4.95c0-1.397-.212-2.413-.592-3.09-.55-.804-1.482-1.227-2.751-1.227a3.32 3.32 0 00-1.735.465c-.423.254-.762.593-.931.973h-.042V7.923H7.49v9.056h2.793v-4.485c0-.678.085-1.228.296-1.608.254-.466.72-.72 1.397-.72.635 0 1.058.296 1.27.804.126.339.211.889.211 1.608v4.401h2.793z" fill="#ADADAD"/></svg>