<svg width="98" height="80" fill="none" xmlns="http://www.w3.org/2000/svg"><path d="M39.86 36.844l-8.157-8.297C31.141 28.266 31 27.703 31 27c0-.563.14-1.125.703-1.547l8.156-8.297c.422-.281.985-.562 1.547-.562.563 0 1.125.281 1.688.562l1.547 1.688c.422.422.703.984.703 1.547 0 .703-.282 1.265-.703 1.547L39.578 27l5.063 5.063c.422.421.703.984.703 1.546 0 .703-.282 1.266-.703 1.547l-1.547 1.688a2.703 2.703 0 01-1.688.562c-.562 0-1.125-.14-1.547-.562zm13.5-1.688c-.563-.281-.704-.843-.704-1.547 0-.562.14-1.125.703-1.547L58.422 27l-5.063-5.063c-.562-.28-.703-.843-.703-1.546 0-.563.14-1.125.703-1.547l1.547-1.688c.422-.281.985-.562 1.547-.562.563 0 1.125.281 1.688.562l8.156 8.297c.422.422.703.985.703 1.547 0 .703-.281 1.266-.703 1.547l-8.156 8.297a2.703 2.703 0 01-1.688.562c-.562 0-1.125-.14-1.547-.562l-1.547-1.688zM91.75 58.5c.563 0 1.125.281 1.547.703.422.422.703.984.703 1.547V63c0 2.531-.984 4.64-2.672 6.328C89.5 71.156 87.391 72 85 72H13c-2.531 0-4.64-.844-6.328-2.672C4.844 67.641 4 65.531 4 63v-2.25c0-.563.14-1.125.563-1.547A2.329 2.329 0 016.25 58.5h33.61c0 1.125.421 2.11 1.406 3.094.843.984 1.968 1.406 3.234 1.406h8.578c1.266 0 2.39-.281 3.234-1.125.844-.844 1.266-1.969 1.407-3.375H91.75zM85 6.75V54H13V6.75c0-1.828.563-3.375 1.969-4.781C16.234.703 17.78 0 19.75 0h58.5c1.828 0 3.375.703 4.781 1.969C84.297 3.375 85 4.922 85 6.75zM76 45V9H22v36h54z" fill="#fff" filter="url(#a)"/><defs><filter id="a" x="0" y="0" width="98" height="80" filterUnits="userSpaceOnUse" color-interpolation-filters="sRGB"><feFlood flood-opacity="0" result="BackgroundImageFix"/><feColorMatrix in="SourceAlpha" values="0 0 0 0 0 0 0 0 0 0 0 0 0 0 0 0 0 0 127 0"/><feOffset dy="4"/><feGaussianBlur stdDeviation="2"/><feColorMatrix values="0 0 0 0 0 0 0 0 0 0 0 0 0 0 0 0 0 0 0.25 0"/><feBlend in2="BackgroundImageFix" result="effect1_dropShadow"/><feBlend in="SourceGraphic" in2="effect1_dropShadow" result="shape"/></filter></defs></svg>