<svg width="171" height="39" fill="none" xmlns="http://www.w3.org/2000/svg"><path d="M2.941 25.008H0V11.549c0-1.096.316-1.977.947-2.641.632-.682 1.604-1.022 2.917-1.022 1.163 0 2.044.282 2.642.847.615.548 1.097 1.304 1.446 2.268l4.91 10.742c.1.2.233.365.4.498.165.133.39.2.672.2.316 0 .557-.083.723-.25a.945.945 0 00.274-.697V8.184h2.967v13.434c0 1.113-.324 2.01-.972 2.692-.632.664-1.596.997-2.892.997-.582 0-1.097-.075-1.545-.225a3.43 3.43 0 01-1.147-.598 4.39 4.39 0 01-.823-.997 6.661 6.661 0 01-.598-1.296L5.011 11.45c-.217-.482-.566-.723-1.048-.723-.332 0-.59.091-.772.274-.166.166-.25.399-.25.698v13.309zM31.207 8.185c2.46 0 4.337.698 5.633 2.093 1.313 1.396 1.97 3.514 1.97 6.356 0 2.824-.657 4.926-1.97 6.305-1.296 1.38-3.174 2.069-5.633 2.069h-2.294c-2.46 0-4.345-.69-5.658-2.069-1.296-1.379-1.944-3.48-1.944-6.305 0-2.842.648-4.96 1.944-6.356 1.313-1.395 3.199-2.093 5.658-2.093h2.294zm-2.294 2.94c-1.628 0-2.817.433-3.564 1.297-.732.864-1.097 2.268-1.097 4.212 0 1.927.366 3.314 1.097 4.162.73.847 1.92 1.27 3.564 1.27h2.294c1.612 0 2.783-.423 3.514-1.27.748-.864 1.122-2.26 1.122-4.187 0-1.928-.366-3.323-1.097-4.187-.73-.864-1.91-1.296-3.54-1.296h-2.293zm14.043-2.94l5.11 13.533c.15.382.424.573.823.573.382 0 .657-.191.823-.573l5.36-13.533h3.265l-5.933 14.953c-.316.798-.765 1.363-1.346 1.695-.565.316-1.288.474-2.169.474-.83 0-1.554-.15-2.169-.449-.598-.316-1.055-.889-1.37-1.72L39.715 8.185h3.24zm17.552 16.823h-3.24l5.907-14.954c.316-.798.756-1.354 1.321-1.67.582-.332 1.321-.498 2.219-.498.88 0 1.603.166 2.168.498.582.316 1.022.872 1.322 1.67l5.683 14.954h-3.266l-5.11-13.533c-.15-.383-.423-.574-.822-.574-.399 0-.681.191-.848.574l-5.334 13.533z" fill="#878787"/><path fill-rule="evenodd" clip-rule="evenodd" d="M97.56 3.115c-6.788 0-12.29 5.502-12.29 12.289v2.227c0 6.787 5.502 12.288 12.29 12.288h25.532l-.033 3.739 6.674-3.739h25.861c6.787 0 12.29-5.501 12.29-12.288v-2.227c0-6.787-5.503-12.289-12.29-12.289H97.56zM82.153 15.404C82.153 6.896 89.051 0 97.56 0h58.034C164.102 0 171 6.896 171 15.404v2.227c0 8.507-6.898 15.404-15.406 15.404h-25.047L119.895 39l.053-5.965H97.56c-8.509 0-15.407-6.897-15.407-15.404v-2.227z" fill="#C4C4C4"/><path d="M102.643 8.185c.997 0 1.844.116 2.542.349.715.216 1.296.532 1.745.947.465.399.806.88 1.022 1.446.216.565.324 1.188.324 1.869 0 .98-.208 1.77-.623 2.368-.399.598-.997 1.054-1.795 1.37.798.332 1.413.814 1.845 1.446.432.614.648 1.412.648 2.392a5.2 5.2 0 01-.324 1.87 3.743 3.743 0 01-1.022 1.47c-.449.399-1.03.714-1.745.947-.698.233-1.545.349-2.543.349h-7.478c-.93 0-1.396-.457-1.396-1.37V9.555c0-.914.466-1.37 1.396-1.37h7.404zm-5.908 13.633c0 .183.108.274.324.274h5.733c.898 0 1.554-.191 1.969-.573.416-.382.624-.922.624-1.62 0-1.446-.864-2.169-2.593-2.169h-6.057v4.088zm0-6.53h5.982c1.729 0 2.593-.673 2.593-2.019 0-.664-.208-1.196-.623-1.595-.399-.399-1.047-.598-1.945-.598h-5.683c-.216 0-.324.1-.324.3v3.912zm24.298-7.103c2.459 0 4.337.698 5.633 2.094 1.313 1.395 1.97 3.514 1.97 6.355 0 2.825-.657 4.926-1.97 6.305-1.296 1.38-3.174 2.069-5.633 2.069h-2.294c-2.459 0-4.345-.69-5.658-2.069-1.296-1.379-1.944-3.48-1.944-6.305 0-2.841.648-4.96 1.944-6.355 1.313-1.396 3.199-2.094 5.658-2.094h2.294zm-2.294 2.941c-1.628 0-2.816.432-3.564 1.296-.731.864-1.097 2.268-1.097 4.212 0 1.927.366 3.315 1.097 4.162s1.919 1.271 3.564 1.271h2.294c1.612 0 2.783-.424 3.514-1.271.748-.864 1.122-2.26 1.122-4.187 0-1.927-.365-3.323-1.097-4.187-.731-.864-1.911-1.296-3.539-1.296h-2.294zm24.351-2.941v2.941h-4.91v13.882h-2.967V11.126h-4.91v-2.94h12.787zm15.591 0v2.941h-8.625c-.764 0-1.321.191-1.67.573-.349.366-.523.84-.523 1.42 0 .25.033.5.099.748a1.9 1.9 0 00.399.648c.2.183.457.333.773.45.316.099.723.149 1.221.149h3.939c1.147 0 2.085.15 2.817.448.731.283 1.304.656 1.72 1.122.432.465.723.997.872 1.595a6.68 6.68 0 01.249 1.794c0 .715-.099 1.371-.299 1.97a4.101 4.101 0 01-.947 1.57c-.432.431-.989.772-1.67 1.021-.665.25-1.479.374-2.443.374h-9.373v-2.94h9.473c.797 0 1.379-.192 1.745-.574.382-.399.573-.906.573-1.52a2.43 2.43 0 00-.125-.773 1.506 1.506 0 00-.423-.673c-.2-.2-.474-.357-.823-.473-.332-.117-.756-.175-1.271-.175h-3.914c-1.13 0-2.052-.141-2.767-.424-.714-.282-1.279-.656-1.695-1.121a4.125 4.125 0 01-.847-1.57 6.96 6.96 0 01-.225-1.745 6.4 6.4 0 01.274-1.919 4.04 4.04 0 01.923-1.545c.432-.432.98-.764 1.645-.997.665-.25 1.462-.374 2.393-.374h8.525z" fill="#C4C4C4"/></svg>