<svg width="214" height="49" fill="none" xmlns="http://www.w3.org/2000/svg"><path d="M6.133 31H2.496V14.357c0-1.356.39-2.445 1.172-3.267.78-.843 1.982-1.264 3.606-1.264 1.438 0 2.527.35 3.267 1.048.76.678 1.356 1.613 1.787 2.805L18.4 26.962c.123.247.288.453.493.617.206.164.483.246.832.246.39 0 .689-.102.894-.308.226-.226.34-.513.34-.863V10.196h3.667v16.612c0 1.377-.4 2.487-1.202 3.329-.78.822-1.973 1.233-3.575 1.233-.72 0-1.357-.093-1.911-.277a4.241 4.241 0 01-1.418-.74c-.39-.35-.73-.76-1.017-1.233a8.238 8.238 0 01-.74-1.603L8.691 14.233c-.267-.595-.698-.893-1.294-.893-.41 0-.73.113-.955.339-.206.205-.309.493-.309.863V31zm34.948-20.804c3.041 0 5.363.863 6.966 2.589 1.623 1.726 2.435 4.346 2.435 7.86 0 3.492-.812 6.091-2.435 7.797C46.444 30.147 44.122 31 41.08 31h-2.835c-3.041 0-5.373-.853-6.997-2.558-1.602-1.706-2.403-4.305-2.403-7.798 0-3.513.8-6.133 2.404-7.86 1.623-1.725 3.955-2.588 6.996-2.588h2.835zm-2.835 3.637c-2.014 0-3.483.534-4.408 1.602-.904 1.069-1.356 2.805-1.356 5.21 0 2.383.452 4.098 1.356 5.146.904 1.048 2.374 1.572 4.408 1.572h2.835c1.993 0 3.442-.524 4.346-1.572.925-1.068 1.387-2.794 1.387-5.178 0-2.383-.452-4.11-1.356-5.178-.904-1.068-2.363-1.602-4.377-1.602h-2.835zm17.363-3.637l6.319 16.736c.184.472.524.709 1.017.709.472 0 .811-.237 1.017-.71l6.626-16.735h4.038L67.29 28.688c-.39.987-.945 1.685-1.664 2.096-.699.39-1.592.586-2.681.586-1.028 0-1.922-.185-2.682-.555-.74-.39-1.304-1.1-1.695-2.127l-6.965-18.492h4.006zM77.31 31h-4.006l7.304-18.492c.39-.987.935-1.675 1.634-2.065.719-.412 1.633-.617 2.743-.617 1.089 0 1.983.205 2.681.617.72.39 1.264 1.078 1.634 2.065L96.327 31h-4.038l-6.318-16.736c-.185-.472-.524-.709-1.017-.709-.493 0-.842.237-1.048.71L77.31 31z" fill="#000"/><path d="M123.123 2C113.666 2 106 9.666 106 19.123v2.754C106 31.334 113.666 39 123.123 39h29.625l-.054 6 10.712-6h31.471C204.334 39 212 31.334 212 21.877v-2.754C212 9.666 204.334 2 194.877 2h-71.754z" stroke="#01A0E4" stroke-width="3.853"/><path d="M129.407 10.196c1.233 0 2.281.144 3.144.431.883.268 1.602.658 2.157 1.172a4.377 4.377 0 011.264 1.787c.267.699.401 1.47.401 2.312 0 1.212-.257 2.188-.771 2.928-.493.74-1.233 1.305-2.219 1.695.986.41 1.746 1.007 2.281 1.787.534.76.801 1.747.801 2.96 0 .842-.133 1.612-.401 2.31a4.625 4.625 0 01-1.263 1.82c-.555.492-1.274.883-2.158 1.17-.863.288-1.911.432-3.143.432h-9.247c-1.15 0-1.726-.565-1.726-1.695V11.89c0-1.13.576-1.695 1.726-1.695h9.154zm-7.304 16.859c0 .226.133.339.4.339h7.089c1.11 0 1.921-.236 2.435-.709s.77-1.14.77-2.003c0-1.788-1.068-2.682-3.205-2.682h-7.489v5.055zm0-8.075h7.397c2.136 0 3.205-.832 3.205-2.497 0-.822-.257-1.479-.771-1.972-.493-.493-1.294-.74-2.404-.74h-7.027c-.267 0-.4.123-.4.37v4.839zm30.042-8.784c3.041 0 5.363.863 6.966 2.589 1.623 1.726 2.435 4.346 2.435 7.86 0 3.492-.812 6.091-2.435 7.797-1.603 1.705-3.925 2.558-6.966 2.558h-2.835c-3.041 0-5.373-.853-6.997-2.558-1.602-1.706-2.404-4.305-2.404-7.798 0-3.513.802-6.133 2.404-7.86 1.624-1.725 3.956-2.588 6.997-2.588h2.835zm-2.835 3.637c-2.014 0-3.483.534-4.408 1.602-.904 1.069-1.356 2.805-1.356 5.21 0 2.383.452 4.098 1.356 5.146.904 1.048 2.373 1.572 4.408 1.572h2.835c1.993 0 3.442-.524 4.346-1.572.925-1.068 1.387-2.794 1.387-5.178 0-2.383-.452-4.11-1.356-5.178-.904-1.068-2.363-1.602-4.377-1.602h-2.835zm30.108-3.637v3.637h-6.072V31h-3.668V13.833h-6.071v-3.637h15.811zm19.277 0v3.637h-10.664c-.945 0-1.634.236-2.065.709-.432.452-.647 1.037-.647 1.756 0 .309.041.617.123.925.103.288.267.555.493.801.247.226.565.411.955.555.391.123.894.185 1.511.185h4.869c1.418 0 2.579.185 3.483.555.904.35 1.613.812 2.127 1.387a4.436 4.436 0 011.078 1.972c.206.74.309 1.48.309 2.22a7.67 7.67 0 01-.37 2.434 5.085 5.085 0 01-1.171 1.942c-.535.534-1.223.956-2.065 1.264-.822.308-1.829.462-3.021.462h-11.588v-3.637h11.711c.987 0 1.706-.236 2.158-.709.473-.493.709-1.12.709-1.88 0-.329-.052-.647-.154-.955a1.867 1.867 0 00-.524-.832c-.247-.247-.586-.442-1.017-.586-.411-.144-.935-.216-1.572-.216h-4.839c-1.397 0-2.538-.174-3.421-.524-.884-.349-1.582-.811-2.096-1.387a5.117 5.117 0 01-1.048-1.941 8.628 8.628 0 01-.277-2.158c0-.863.113-1.654.339-2.373a4.982 4.982 0 011.14-1.91c.534-.535 1.212-.946 2.034-1.234.822-.308 1.808-.462 2.959-.462h10.541z" fill="#01A0E4"/></svg>