<svg width="233" height="49" fill="none" xmlns="http://www.w3.org/2000/svg"><path d="M6.133 31H2.496V14.357c0-1.356.39-2.445 1.172-3.267.78-.843 1.982-1.264 3.606-1.264 1.438 0 2.527.35 3.267 1.048.76.678 1.356 1.613 1.787 2.805L18.4 26.962c.123.247.288.453.493.617.206.164.483.246.832.246.39 0 .689-.102.894-.308.226-.226.34-.513.34-.863V10.196h3.667v16.612c0 1.377-.4 2.487-1.202 3.329-.78.822-1.973 1.233-3.575 1.233-.72 0-1.357-.093-1.911-.277a4.241 4.241 0 01-1.418-.74c-.39-.35-.73-.76-1.017-1.233a8.238 8.238 0 01-.74-1.603L8.691 14.233c-.267-.595-.698-.893-1.294-.893-.41 0-.73.113-.955.339-.206.205-.309.493-.309.863V31zm34.948-20.804c3.041 0 5.363.863 6.966 2.589 1.623 1.726 2.435 4.346 2.435 7.86 0 3.492-.812 6.091-2.435 7.797C46.444 30.147 44.122 31 41.08 31h-2.835c-3.041 0-5.373-.853-6.997-2.558-1.602-1.706-2.403-4.305-2.403-7.798 0-3.513.8-6.133 2.404-7.86 1.623-1.725 3.955-2.588 6.996-2.588h2.835zm-2.835 3.637c-2.014 0-3.483.534-4.408 1.602-.904 1.069-1.356 2.805-1.356 5.21 0 2.383.452 4.098 1.356 5.146.904 1.048 2.374 1.572 4.408 1.572h2.835c1.993 0 3.442-.524 4.346-1.572.925-1.068 1.387-2.794 1.387-5.178 0-2.383-.452-4.11-1.356-5.178-.904-1.068-2.363-1.602-4.377-1.602h-2.835zm17.363-3.637l6.319 16.736c.184.472.524.709 1.017.709.472 0 .811-.237 1.017-.71l6.626-16.735h4.038L67.29 28.688c-.39.987-.945 1.685-1.664 2.096-.699.39-1.592.586-2.681.586-1.028 0-1.922-.185-2.682-.555-.74-.39-1.304-1.1-1.695-2.127l-6.965-18.492h4.006zM77.31 31h-4.006l7.304-18.492c.39-.987.935-1.675 1.634-2.065.719-.412 1.633-.617 2.743-.617 1.089 0 1.983.205 2.681.617.72.39 1.264 1.078 1.634 2.065L96.327 31h-4.038l-6.318-16.736c-.185-.472-.524-.709-1.017-.709-.493 0-.842.237-1.048.71L77.31 31z" fill="#000"/><path d="M161.748 39l1.926.017.017-1.943h-1.943V39zm-.054 6l-1.926-.017-.029 3.32 2.897-1.622-.942-1.681zm10.712-6v-1.926h-.503l-.439.245.942 1.681zm-64.48-19.877c0-8.393 6.804-15.197 15.197-15.197V.074c-10.521 0-19.049 8.528-19.049 19.049h3.852zm0 2.754v-2.754h-3.852v2.754h3.852zm15.197 15.197c-8.393 0-15.197-6.804-15.197-15.197h-3.852c0 10.52 8.528 19.05 19.049 19.05v-3.853zm38.625 0h-38.625v3.852h38.625v-3.852zm-1.927 1.909l-.053 6 3.853.034.053-6-3.853-.034zm2.815 7.698l10.711-6-1.883-3.362-10.711 6 1.883 3.362zm51.241-9.607h-41.471v3.852h41.471v-3.852zm15.197-15.197c0 8.393-6.804 15.197-15.197 15.197v3.852c10.521 0 19.049-8.528 19.049-19.049h-3.852zm0-2.754v2.754h3.852v-2.754h-3.852zM213.877 3.926c8.393 0 15.197 6.804 15.197 15.197h3.852c0-10.52-8.528-19.05-19.049-19.05v3.853zm-90.754 0h90.754V.074h-90.754v3.852zm11.928 6.27v3.637h-8.045c-2.013 0-3.482.534-4.407 1.602-.904 1.048-1.356 2.774-1.356 5.178 0 2.384.452 4.11 1.356 5.178.904 1.048 2.373 1.572 4.407 1.572h8.045V31h-8.045c-3.041 0-5.373-.853-6.996-2.558-1.603-1.726-2.404-4.336-2.404-7.829 0-3.513.801-6.123 2.404-7.828 1.623-1.726 3.955-2.59 6.996-2.59h8.045zm7.971 0v8.476h10.633v-8.476h3.668V31h-3.668v-8.692h-10.633V31h-3.637V10.196h3.637zM164.415 31h-4.006l7.304-18.492c.391-.987.935-1.675 1.634-2.065.719-.412 1.633-.617 2.743-.617 1.089 0 1.983.205 2.681.617.719.39 1.264 1.078 1.634 2.065L183.432 31h-4.038l-6.318-16.736c-.185-.472-.524-.709-1.017-.709-.493 0-.842.237-1.048.71L164.415 31zm34.115-20.804v3.637h-6.072V31h-3.667V13.833h-6.072v-3.637h15.811zm19.277 0v3.637h-10.664c-.945 0-1.634.236-2.065.709-.432.452-.647 1.037-.647 1.756 0 .309.041.617.123.925.103.288.267.555.493.801.247.226.565.411.956.555.39.123.893.185 1.51.185h4.87c1.417 0 2.578.185 3.482.555.904.35 1.613.812 2.127 1.387a4.448 4.448 0 011.079 1.972c.205.74.308 1.48.308 2.22 0 .883-.123 1.695-.37 2.434a5.085 5.085 0 01-1.171 1.942c-.534.534-1.223.956-2.065 1.264-.822.308-1.829.462-3.021.462h-11.588v-3.637h11.712c.986 0 1.705-.236 2.157-.709.473-.493.709-1.12.709-1.88a2.99 2.99 0 00-.154-.955 1.867 1.867 0 00-.524-.832c-.247-.247-.586-.442-1.017-.586-.411-.144-.935-.216-1.572-.216h-4.839c-1.397 0-2.537-.174-3.421-.524-.884-.349-1.582-.811-2.096-1.387a5.117 5.117 0 01-1.048-1.941 8.628 8.628 0 01-.277-2.158c0-.863.113-1.654.339-2.373a4.994 4.994 0 011.14-1.91c.534-.535 1.213-.946 2.034-1.234.822-.308 1.809-.462 2.959-.462h10.541z" fill="#01A0E4"/><path stroke="#01A0E4" stroke-width="3.853" d="M163.891 24.927h14.626"/></svg>