<svg width="174" height="37" fill="none" xmlns="http://www.w3.org/2000/svg"><path d="M4.566 23.744H1.858V11.355c0-1.01.291-1.82.872-2.432.581-.627 1.476-.94 2.684-.94 1.071 0 1.882.26 2.432.78.566.504 1.01 1.2 1.331 2.087l4.52 9.889c.092.183.214.336.367.459.153.122.36.183.62.183.29 0 .512-.076.665-.23a.87.87 0 00.252-.642V8.258h2.73v12.366c0 1.025-.298 1.85-.895 2.478-.58.612-1.468.918-2.661.918-.535 0-1.01-.07-1.422-.207a3.156 3.156 0 01-1.056-.55 4.039 4.039 0 01-.757-.918 6.128 6.128 0 01-.55-1.193l-4.52-9.889c-.199-.443-.52-.665-.964-.665-.306 0-.543.084-.711.252-.153.153-.23.367-.23.643v12.251zM30.58 8.258c2.264 0 3.992.642 5.185 1.927 1.209 1.285 1.813 3.235 1.813 5.85 0 2.6-.604 4.535-1.813 5.805-1.193 1.27-2.921 1.904-5.185 1.904h-2.11c-2.264 0-4-.635-5.208-1.904-1.193-1.27-1.79-3.204-1.79-5.805 0-2.615.597-4.565 1.79-5.85C24.47 8.9 26.206 8.258 28.47 8.258h2.11zm-2.11 2.707c-1.5 0-2.593.398-3.281 1.193-.673.796-1.01 2.088-1.01 3.877 0 1.775.337 3.052 1.01 3.832.673.78 1.766 1.17 3.28 1.17h2.111c1.484 0 2.562-.39 3.235-1.17.689-.796 1.033-2.08 1.033-3.855 0-1.774-.337-3.059-1.01-3.854-.673-.795-1.759-1.193-3.258-1.193h-2.11zm12.925-2.707l4.703 12.458c.138.351.39.527.757.527.352 0 .604-.175.757-.527l4.933-12.458h3.005l-5.46 13.765c-.29.735-.704 1.255-1.239 1.56-.52.291-1.185.437-1.996.437-.765 0-1.43-.138-1.996-.413-.55-.291-.971-.819-1.262-1.584L38.412 8.258h2.983zm16.153 15.486h-2.982L60.003 9.98c.291-.735.696-1.247 1.216-1.538.536-.305 1.216-.458 2.042-.458.81 0 1.476.153 1.996.458.536.291.94.803 1.216 1.538l5.231 13.765H68.7l-4.704-12.458c-.137-.351-.39-.527-.757-.527s-.627.175-.78.527l-4.91 12.458z" fill="#878787"/><path d="M120.435 29.535l1.434.012.013-1.446h-1.447v1.434zM120.396 34l-1.434-.013-.022 2.471 2.156-1.207-.7-1.251zm7.975-4.465V28.1h-.374l-.326.183.7 1.25zm-48.01-14.79c0-6.247 5.064-11.311 11.311-11.311V.566c-7.831 0-14.18 6.349-14.18 14.18h2.868zm0 2.044v-2.043h-2.869v2.043h2.868zM91.671 28.1c-6.247 0-11.312-5.065-11.312-11.312h-2.868c0 7.831 6.349 14.18 14.18 14.18V28.1zm28.763 0H91.672v2.868h28.763V28.1zM119 29.521l-.039 4.465 2.867.026.04-4.466-2.868-.025zm2.095 5.73l7.976-4.466-1.401-2.503-7.976 4.466 1.401 2.502zm38.158-7.151H128.37v2.868h30.883V28.1zm11.312-11.312c0 6.247-5.064 11.312-11.312 11.312v2.868c7.831 0 14.18-6.349 14.18-14.18h-2.868zm0-2.043v2.043h2.868v-2.043h-2.868zM159.254 3.434c6.248 0 11.312 5.064 11.312 11.312h2.868c0-7.831-6.349-14.18-14.18-14.18v2.868zm-67.582 0h67.582V.566H91.672v2.868zm8.881 4.824v2.707h-5.988c-1.499 0-2.593.398-3.28 1.193-.674.78-1.01 2.065-1.01 3.854 0 1.775.336 3.06 1.01 3.855.672.78 1.766 1.17 3.28 1.17h5.988v2.707h-5.988c-2.264 0-4-.635-5.208-1.904-1.193-1.285-1.79-3.227-1.79-5.828 0-2.615.597-4.557 1.79-5.827 1.208-1.285 2.944-1.927 5.208-1.927h5.988zm5.934 0v6.31h7.915v-6.31h2.73v15.486h-2.73v-6.47h-7.915v6.47h-2.707V8.258h2.707zm15.925 15.486h-2.983l5.438-13.765c.29-.735.695-1.247 1.215-1.538.536-.305 1.216-.458 2.042-.458.811 0 1.476.153 1.996.458.536.291.941.803 1.216 1.538l5.231 13.765h-3.005l-4.703-12.458c-.138-.351-.39-.527-.758-.527-.367 0-.627.175-.78.527l-4.909 12.458zm25.394-15.486v2.707h-4.52v12.78h-2.73v-12.78h-4.519V8.258h11.769zm14.35 0v2.707h-7.939c-.703 0-1.216.176-1.537.528-.321.336-.482.772-.482 1.307 0 .23.031.46.092.689.077.214.199.413.367.596.184.169.421.306.712.413.29.092.665.138 1.124.138h3.625c1.055 0 1.919.138 2.592.413.673.26 1.201.604 1.583 1.032.398.429.666.918.803 1.469.153.55.23 1.1.23 1.651a5.69 5.69 0 01-.276 1.813 3.77 3.77 0 01-.872 1.445c-.397.398-.91.712-1.537.941-.611.23-1.361.344-2.248.344h-8.626v-2.707h8.718c.734 0 1.269-.176 1.606-.528.351-.367.527-.833.527-1.4 0-.244-.038-.481-.114-.71a1.393 1.393 0 00-.39-.62c-.184-.183-.436-.329-.757-.436-.306-.107-.696-.16-1.171-.16h-3.602c-1.04 0-1.888-.13-2.546-.39-.658-.26-1.178-.605-1.56-1.033a3.803 3.803 0 01-.78-1.445 6.41 6.41 0 01-.207-1.606c0-.643.084-1.232.253-1.767.183-.55.466-1.025.848-1.422.398-.398.903-.704 1.515-.918.612-.23 1.346-.344 2.202-.344h7.847z" fill="#C4C4C4"/><path stroke="#C4C4C4" stroke-width="2.868" d="M122.031 19.062h10.891"/></svg>