<svg width="72" height="48" fill="none" xmlns="http://www.w3.org/2000/svg"><path d="M66 0c1.625 0 3 .625 4.25 1.75C71.375 3 72 4.375 72 6v36c0 1.75-.625 3.125-1.75 4.25C69 47.5 67.625 48 66 48H6c-1.75 0-3.125-.5-4.25-1.75C.5 45.125 0 43.75 0 42V6c0-1.625.5-3 1.75-4.25C2.875.625 4.25 0 6 0h60zm2 42V6c0-.5-.25-1-.625-1.375S66.5 4 66 4H6a2.07 2.07 0 00-1.5.625C4.125 5 4 5.5 4 6v36c0 .625.125 1.125.5 1.5s.875.5 1.5.5h60c.5 0 1-.125 1.375-.5A2.07 2.07 0 0068 42zM21 25.5c0 .5-.25.875-.5 1.125s-.625.375-1 .375h-3c-.5 0-.875-.125-1.125-.375S15 26 15 25.5v-3c0-.375.125-.75.375-1S16 21 16.5 21h3c.375 0 .75.25 1 .5s.5.625.5 1v3zm12 0c0 .5-.25.875-.5 1.125s-.625.375-1 .375h-3c-.5 0-.875-.125-1.125-.375S27 26 27 25.5v-3c0-.375.125-.75.375-1S28 21 28.5 21h3c.375 0 .75.25 1 .5s.5.625.5 1v3zm12 0c0 .5-.25.875-.5 1.125s-.625.375-1 .375h-3c-.5 0-.875-.125-1.125-.375S39 26 39 25.5v-3c0-.375.125-.75.375-1S40 21 40.5 21h3c.375 0 .75.25 1 .5s.5.625.5 1v3zm12 0c0 .5-.25.875-.5 1.125s-.625.375-1 .375h-3c-.5 0-.875-.125-1.125-.375S51 26 51 25.5v-3c0-.375.125-.75.375-1S52 21 52.5 21h3c.375 0 .75.25 1 .5s.5.625.5 1v3zm-42 10c0 .5-.25.875-.5 1.125s-.625.375-1 .375h-3c-.5 0-.875-.125-1.125-.375S9 36 9 35.5v-3c0-.375.125-.75.375-1S10 31 10.5 31h3c.375 0 .75.25 1 .5s.5.625.5 1v3zm48 0c0 .5-.25.875-.5 1.125s-.625.375-1 .375h-3c-.5 0-.875-.125-1.125-.375S57 36 57 35.5v-3c0-.375.125-.75.375-1S58 31 58.5 31h3c.375 0 .75.25 1 .5s.5.625.5 1v3zm-48-20c0 .5-.25.875-.5 1.125s-.625.375-1 .375h-3c-.5 0-.875-.125-1.125-.375S9 16 9 15.5v-3c0-.375.125-.75.375-1S10 11 10.5 11h3c.375 0 .75.25 1 .5s.5.625.5 1v3zm12 0c0 .5-.25.875-.5 1.125s-.625.375-1 .375h-3c-.5 0-.875-.125-1.125-.375S21 16 21 15.5v-3c0-.375.125-.75.375-1S22 11 22.5 11h3c.375 0 .75.25 1 .5s.5.625.5 1v3zm12 0c0 .5-.25.875-.5 1.125s-.625.375-1 .375h-3c-.5 0-.875-.125-1.125-.375S33 16 33 15.5v-3c0-.375.125-.75.375-1S34 11 34.5 11h3c.375 0 .75.25 1 .5s.5.625.5 1v3zm12 0c0 .5-.25.875-.5 1.125s-.625.375-1 .375h-3c-.5 0-.875-.125-1.125-.375S45 16 45 15.5v-3c0-.375.125-.75.375-1S46 11 46.5 11h3c.375 0 .75.25 1 .5s.5.625.5 1v3zm12 0c0 .5-.25.875-.5 1.125s-.625.375-1 .375h-3c-.5 0-.875-.125-1.125-.375S57 16 57 15.5v-3c0-.375.125-.75.375-1S58 11 58.5 11h3c.375 0 .75.25 1 .5s.5.625.5 1v3zm-12 19c0 .5-.25.875-.5 1.125s-.625.375-1 .375h-27c-.5 0-.875-.125-1.125-.375S21 35 21 34.5v-1c0-.375.125-.75.375-1S22 32 22.5 32h27c.375 0 .75.25 1 .5s.5.625.5 1v1z" fill="#01A0E4"/></svg>