<svg width="60" height="69" fill="none" xmlns="http://www.w3.org/2000/svg"><path d="M48.195 25.469c1.594-.797 3.32-1.063 5.18-.664 1.86.398 3.32 1.328 4.516 2.656 1.195 1.46 1.859 3.187 1.859 5.047v11.554c0 .665-.133 1.329-.266 1.86l-3.718 16.336c-.532 1.86-1.461 3.453-2.79 4.515-1.46 1.196-3.054 1.727-4.913 1.727H23.358c-1.328 0-2.523-.266-3.586-.797-1.195-.531-2.125-1.46-2.789-2.523L1.711 44.062C.383 42.203-.016 40.212.383 38.087c.265-2.125 1.328-3.852 3.054-5.18a7.214 7.214 0 014.516-1.593c1.594 0 3.188.53 4.649 1.328V8.469c0-2.125.664-3.985 2.257-5.578C16.453 1.297 18.313.5 20.438.5c2.125 0 3.984.797 5.578 2.39 1.593 1.594 2.39 3.454 2.39 5.579v11.687a7.372 7.372 0 014.782 0c1.593.532 2.921 1.328 3.984 2.657 1.86-1.063 3.851-1.461 5.976-.93s3.72 1.726 5.047 3.586zM11.141 37.156c-.93-1.195-2.125-1.726-3.454-1.46-1.328.265-2.39.929-2.921 2.124-.664 1.196-.532 2.39.398 3.72l15.274 21.116c.664 1.063 1.593 1.594 2.921 1.594h24.703c.797 0 1.461-.266 2.126-.797.664-.531 1.195-1.195 1.46-2.125l3.72-16.336c0-.265.132-.531.132-.93V32.508c0-1.461-.664-2.524-1.86-3.188-1.328-.53-2.523-.53-3.718 0-1.195.664-1.727 1.727-1.727 3.188 0 .398-.133.664-.398.797-.266.265-.399.265-.664.265H46.07c-.265 0-.53 0-.797-.265-.265-.133-.265-.399-.265-.797v-2.79c0-1.593-.664-2.655-1.86-3.32-1.195-.53-2.39-.53-3.586 0-1.328.665-1.859 1.727-1.859 3.32v2.79c0 .398-.133.664-.398.797-.266.265-.399.265-.664.265h-.93c-.266 0-.531 0-.797-.265-.266-.133-.266-.399-.266-.797v-4.781c0-1.461-.664-2.524-1.859-3.188-1.328-.531-2.523-.531-3.719 0-1.328.664-1.86 1.727-1.86 3.188v4.78c0 .4-.132.665-.265.798-.265.265-.53.265-.797.265h-.93c-.265 0-.53 0-.796-.265-.266-.133-.266-.399-.266-.797V8.468c0-1.46-.664-2.523-1.86-3.187-1.194-.531-2.39-.531-3.585 0-1.328.664-1.86 1.727-1.86 3.188v33.203c.266.531.133.93-.132 1.328-.266.398-.664.531-1.196.398-.53-.132-.664-.53-.664-1.062l-3.718-5.18zm13.015 16.602c0 .265 0 .531.266.797.265.265.531.265.797.265h.93c.265 0 .53 0 .796-.265.133-.266.266-.532.266-.797V42.203c0-.266-.133-.398-.266-.664-.265-.266-.53-.398-.797-.398h-.93c-.265 0-.53.132-.796.398s-.266.398-.266.664v11.555zm10.492 0c0 .265 0 .531.266.797.266.265.531.265.797.265h.93c.265 0 .398 0 .664-.265.265-.266.398-.532.398-.797V42.203c0-.266-.133-.398-.398-.664-.266-.266-.399-.398-.664-.398h-.93c-.266 0-.531.132-.797.398s-.266.398-.266.664v11.555zm10.36 0c0 .265 0 .531.265.797.266.265.532.265.797.265h1.063c.265 0 .398 0 .664-.265.266-.266.398-.532.398-.797V42.203c0-.266-.133-.398-.398-.664-.266-.266-.399-.398-.664-.398H46.07c-.265 0-.53.132-.797.398-.265.266-.265.398-.265.664v11.555z" fill="#01A0E4"/></svg>