<svg width="108" height="56" fill="none" xmlns="http://www.w3.org/2000/svg"><path d="M58 8c1.625 0 3 .625 4.25 1.75C63.375 11 64 12.375 64 14v36c0 1.75-.625 3.125-1.75 4.25C61 55.5 59.625 56 58 56H6c-1.75 0-3.125-.5-4.25-1.75C.5 53.125 0 51.75 0 50V14c0-1.625.5-3 1.75-4.25C2.875 8.625 4.25 8 6 8h52zM6 12a2.07 2.07 0 00-1.5.625C4.125 13 4 13.5 4 14v5.125c2.875 2.5 9.125 7.625 18.875 15.25l1.125 1c1.625 1.5 3 2.5 4 3C29.5 39.5 30.875 40 32 40c1 0 2.375-.5 4-1.625.875-.5 2.125-1.5 3.875-3l1.25-1C50.75 26.75 57 21.625 60 19.125V14c0-.5-.25-1-.625-1.375S58.5 12 58 12H6zm52 40c.5 0 1-.125 1.375-.5A2.07 2.07 0 0060 50V24.375c-3 2.375-8.375 6.75-16.375 13.125l-1.25 1c-2 1.75-3.625 2.875-4.75 3.625C35.5 43.375 33.625 44 32 44c-1.75 0-3.625-.625-5.625-1.875-1.25-.75-2.875-1.875-4.75-3.625l-1.25-1c-8-6.375-13.5-10.75-16.375-13.125V50c0 .625.125 1.125.5 1.5s.875.5 1.5.5h52z" fill="#01A0E4"/><path stroke="#01A0E4" stroke-width="4" stroke-linecap="round" d="M78 16h28M78 31h16M78 46h7"/></svg>