<svg width="16" height="16" fill="none" xmlns="http://www.w3.org/2000/svg"><path fill-rule="evenodd" clip-rule="evenodd" d="M15.643.357c-.214-.214-.5-.357-.786-.357H1.143C.82 0 .536.143.32.357c-.213.214-.32.5-.32.786v13.714c0 .322.107.607.321.822.215.214.5.321.822.321h13.714c.286 0 .572-.107.786-.321.214-.215.357-.5.357-.822V1.143c0-.286-.143-.572-.357-.786zM9.477 5.435C9.01 5.175 8.518 5.02 8 5.02c-.544 0-1.036.156-1.503.415a2.75 2.75 0 00-1.088 1.088c-.26.466-.389.959-.389 1.477 0 .544.13 1.036.389 1.503.26.466.622.829 1.088 1.088.467.26.959.389 1.503.389a3 3 0 001.477-.389c.466-.26.829-.622 1.088-1.088.26-.467.415-.959.415-1.503 0-.518-.156-1.01-.415-1.477a2.748 2.748 0 00-1.088-1.088zm-.104 3.938A1.88 1.88 0 018 9.943c-.544 0-1.01-.181-1.373-.57-.389-.362-.57-.829-.57-1.373 0-.518.181-.985.57-1.373.362-.363.829-.57 1.373-.57.518 0 .985.207 1.373.57.363.388.57.855.57 1.373 0 .544-.207 1.01-.57 1.373zm2.229-4.975c.13.156.207.311.207.493a.802.802 0 01-.233.492.563.563 0 01-.467.207c-.207 0-.363-.051-.492-.207-.156-.13-.207-.285-.207-.492 0-.182.051-.337.207-.493a.664.664 0 01.492-.207c.182 0 .337.078.492.207zm2.185 1.93a47.252 47.252 0 01-.009-.738 7.78 7.78 0 00-.233-1.295 3.187 3.187 0 00-.726-1.114c-.31-.311-.7-.57-1.114-.726a5.895 5.895 0 00-1.295-.207A47.473 47.473 0 008 2.196c-1.14 0-1.943.026-2.436.052a5.645 5.645 0 00-1.27.207 3.07 3.07 0 00-1.14.726c-.31.31-.543.7-.699 1.114-.13.363-.207.803-.233 1.295-.026.493-.026 1.296-.026 2.41 0 1.14 0 1.943.026 2.436.026.492.104.906.233 1.27.156.44.389.828.7 1.14.31.31.7.543 1.14.673.363.155.777.233 1.27.259.492.026 1.295.026 2.435.026 1.114 0 1.917 0 2.41-.026a4.626 4.626 0 001.295-.233 3.122 3.122 0 001.114-.7c.311-.31.57-.7.726-1.14a5.63 5.63 0 00.207-1.27A47.68 47.68 0 0013.804 8c0-.67-.01-1.226-.017-1.671zm-1.045 3.693c-.052.648-.104 1.114-.208 1.4a1.964 1.964 0 01-1.114 1.113c-.285.104-.751.182-1.399.208-.363.025-.907.025-1.606.025h-.83c-.7 0-1.243 0-1.606-.025-.648-.026-1.114-.104-1.4-.208-.517-.207-.906-.57-1.113-1.114-.104-.285-.182-.751-.208-1.399-.026-.363-.026-.907-.026-1.606v-.83c0-.673 0-1.217.026-1.606.026-.648.104-1.114.208-1.4.207-.517.57-.906 1.114-1.113.285-.104.751-.156 1.399-.208.152 0 .335-.004.549-.01.297-.007.65-.016 1.057-.016h.83c.382 0 .723.009 1.018.016.223.006.42.01.588.01.648.052 1.114.104 1.4.208.517.207.906.596 1.113 1.114.104.285.156.751.208 1.399 0 .152.004.335.01.549.007.297.015.65.015 1.057v.83c0 .406-.008.76-.016 1.057-.005.214-.01.397-.01.549z" fill="#ACACAC"/></svg>