<svg width="16" height="16" fill="none" xmlns="http://www.w3.org/2000/svg"><path d="M14.286 0c.464 0 .857.179 1.214.5.321.357.5.75.5 1.214v12.572c0 .5-.179.893-.5 1.214-.357.357-.75.5-1.214.5H1.714c-.5 0-.893-.143-1.214-.5-.357-.321-.5-.714-.5-1.214V1.714C0 1.25.143.857.5.5.821.179 1.214 0 1.714 0h12.572zm-1.75 5.679a5.462 5.462 0 001.178-1.215 4.036 4.036 0 01-1.357.357c.5-.285.822-.714 1.036-1.285-.5.285-1 .5-1.5.571-.464-.5-1.036-.75-1.679-.75-.5 0-.928.143-1.321.393a2.494 2.494 0 00-.857 1.071c-.215.429-.25.929-.107 1.429a6.25 6.25 0 01-2.715-.714 6.421 6.421 0 01-2.143-1.75 2.25 2.25 0 00-.321 1.178c0 .429.071.786.286 1.143.178.357.428.607.785.822a1.89 1.89 0 01-1.071-.322v.036c0 .571.179 1.071.536 1.5.357.428.785.714 1.357.821-.357.072-.714.107-1.072.036.143.5.393.893.822 1.179.393.285.857.428 1.357.428a4.52 4.52 0 01-2.893 1h-.571c1.071.714 2.285 1.036 3.607 1.036 1.357 0 2.571-.322 3.643-1.036.928-.607 1.678-1.464 2.25-2.536.5-1 .75-2.035.75-3.107V5.68z" fill="#ACACAC"/></svg>