<svg width="16" height="16" fill="none" xmlns="http://www.w3.org/2000/svg"><path d="M14.857 0c.286 0 .572.143.786.357.214.214.357.5.357.786v13.714c0 .322-.143.607-.357.822-.214.214-.5.321-.786.321H1.143c-.322 0-.607-.107-.822-.321A1.131 1.131 0 010 14.857V1.143C0 .857.107.57.321.357.536.143.821 0 1.143 0h13.714zM4.821 13.714h.036V6.071H2.464v7.643h2.357zM3.643 5.036c.357 0 .678-.107.964-.393.286-.286.429-.607.429-.964 0-.358-.143-.679-.429-.965-.286-.285-.607-.428-.964-.428-.393 0-.714.143-.964.428a1.293 1.293 0 00-.393.965c0 .357.107.678.393.964.25.286.571.393.964.393zm10.071 8.678V9.536c0-1.179-.178-2.036-.5-2.607-.464-.679-1.25-1.036-2.321-1.036a2.8 2.8 0 00-1.464.393c-.358.214-.643.5-.786.821h-.036V6.071H6.321v7.643H8.68V9.93c0-.572.071-1.036.25-1.358.214-.392.607-.607 1.178-.607.536 0 .893.25 1.072.679.107.286.178.75.178 1.357v3.714h2.357z" fill="#ACACAC"/></svg>