<svg width="200" height="142" fill="none" xmlns="http://www.w3.org/2000/svg"><mask id="a" fill="#fff"><path fill-rule="evenodd" clip-rule="evenodd" d="M65.5 0C29.325 0 0 29.325 0 65.5c0 30.886 21.378 56.78 50.145 63.69l.027 12.746 12.797-10.984c.84.032 1.684.048 2.531.048h69c36.175 0 65.5-29.325 65.5-65.5S170.675 0 134.5 0h-69z"/></mask><path d="M50.145 129.19l.5-.001-.001-.393-.383-.092-.117.486zm.027 12.746l-.5.001.002 1.085.823-.707-.325-.379zm12.797-10.984l.019-.5-.196-.007-.149.127.326.38zM.5 65.5c0-35.898 29.102-65 65-65v-1c-36.45 0-66 29.55-66 66h1zm49.761 63.204C21.715 121.846.5 96.15.5 65.5h-1c0 31.123 21.542 57.213 50.528 64.176l.233-.972zm.41 13.231l-.026-12.746-1 .002.027 12.746 1-.002zm11.972-11.363l-12.797 10.985.651.758 12.798-10.984-.652-.759zm2.857-.072a65.46 65.46 0 01-2.512-.048l-.038 1c.846.032 1.696.048 2.55.048v-1zm69 0h-69v1h69v-1zm65-65c0 35.898-29.102 65-65 65v1c36.451 0 66-29.549 66-66h-1zm-65-65c35.898 0 65 29.102 65 65h1c0-36.45-29.549-66-66-66v1zm-69 0h69v-1h-69v1z" fill="#C4C4C4" mask="url(#a)"/><path d="M129.414 49.86c.703 3.046.703 6.093-.117 9.023-.82 3.047-2.344 5.625-4.57 7.851-2.227 2.227-4.805 3.75-7.852 4.57-3.047.821-5.977.821-9.023 0L85.234 93.923C83.36 95.68 81.25 96.5 78.79 96.5s-4.57-.82-6.21-2.578c-1.76-1.64-2.58-3.75-2.58-6.212 0-2.461.82-4.57 2.578-6.445l22.734-22.618c-.937-3.046-.937-5.976-.117-9.023.82-3.047 2.344-5.625 4.57-7.852 2.11-2.226 4.688-3.75 7.735-4.57 3.047-.82 5.977-.82 9.023-.117.469.117.938.352 1.407.82.468.469.703.938.937 1.407.235 1.171 0 2.226-.82 3.046l-7.5 7.5.937 5.157 5.157.937 7.5-7.5c.82-.82 1.875-1.055 3.047-.82 1.171.351 1.992 1.054 2.226 2.226zm-7.266 14.18c1.641-1.642 2.696-3.517 3.399-5.626.703-2.11.82-4.336.469-6.562l-8.086 8.086-9.727-1.641-1.641-9.727 8.086-8.086c-.82-.117-1.64-.234-2.343-.234-1.875 0-3.75.352-5.391 1.055s-3.164 1.758-4.453 3.047c-1.875 1.875-3.164 4.101-3.75 6.68-.586 2.577-.469 5.038.469 7.616l.351 1.055-24.258 24.258c-1.054 1.055-1.523 2.227-1.523 3.633 0 1.406.469 2.695 1.406 3.633.938 1.054 2.227 1.523 3.75 1.523 1.406 0 2.696-.469 3.633-1.523l24.258-24.258 1.055.351c2.578.938 5.039 1.055 7.617.47 2.578-.587 4.804-1.876 6.679-3.75zM79.375 85.25c.469 0 .938.234 1.29.586.35.352.585.82.585 1.289a1.94 1.94 0 01-.586 1.406c-.352.352-.82.469-1.289.469-.586 0-1.055-.117-1.406-.469-.352-.351-.469-.82-.469-1.406 0-.469.117-.938.469-1.29a1.94 1.94 0 011.406-.585z" fill="#01A0E4"/></svg>