<svg width="200" height="142" fill="none" xmlns="http://www.w3.org/2000/svg"><mask id="a" fill="#fff"><path fill-rule="evenodd" clip-rule="evenodd" d="M65.5 0C29.325 0 0 29.325 0 65.5c0 30.886 21.378 56.78 50.145 63.69l.027 12.746 12.797-10.984c.84.032 1.684.048 2.531.048h69c36.175 0 65.5-29.325 65.5-65.5S170.675 0 134.5 0h-69z"/></mask><path d="M50.145 129.19l.5-.001-.001-.393-.383-.092-.117.486zm.027 12.746l-.5.001.002 1.085.823-.707-.325-.379zm12.797-10.984l.019-.5-.196-.007-.149.127.326.38zM.5 65.5c0-35.898 29.102-65 65-65v-1c-36.45 0-66 29.55-66 66h1zm49.761 63.204C21.715 121.846.5 96.15.5 65.5h-1c0 31.123 21.542 57.213 50.528 64.176l.233-.972zm.41 13.231l-.026-12.746-1 .002.027 12.746 1-.002zm11.972-11.363l-12.797 10.985.651.758 12.798-10.984-.652-.759zm2.857-.072a65.46 65.46 0 01-2.512-.048l-.038 1c.846.032 1.696.048 2.55.048v-1zm69 0h-69v1h69v-1zm65-65c0 35.898-29.102 65-65 65v1c36.451 0 66-29.549 66-66h-1zm-65-65c35.898 0 65 29.102 65 65h1c0-36.45-29.549-66-66-66v1zm-69 0h69v-1h-69v1z" fill="#C4C4C4" mask="url(#a)"/><path d="M99 40.188c-4.688 0-8.906 1.171-12.773 3.398-3.868 2.344-6.915 5.39-9.141 9.258-2.344 3.867-3.398 8.086-3.398 12.656 0 4.688 1.054 8.906 3.398 12.773 2.227 3.868 5.273 6.915 9.14 9.141 3.868 2.344 8.087 3.398 12.774 3.398 4.57 0 8.789-1.054 12.656-3.398 3.867-2.227 6.914-5.273 9.258-9.14 2.227-3.868 3.398-8.087 3.398-12.774 0-4.57-1.171-8.79-3.398-12.656-2.344-3.867-5.391-6.914-9.258-9.258-3.984-2.227-8.203-3.398-12.656-3.398zm0-3.75c5.156 0 10.078 1.406 14.531 3.984 4.453 2.578 7.969 6.094 10.547 10.547 2.578 4.453 3.984 9.375 3.984 14.531 0 5.273-1.406 10.078-3.984 14.531-2.578 4.453-6.094 8.086-10.547 10.664-4.453 2.578-9.375 3.868-14.531 3.868-5.273 0-10.078-1.29-14.531-3.868a29.087 29.087 0 01-10.664-10.664c-2.578-4.453-3.868-9.258-3.868-14.531 0-5.156 1.29-10.078 3.868-14.531 2.578-4.453 6.21-7.969 10.664-10.547 4.453-2.578 9.258-3.984 14.531-3.984zM94.781 76.75c-.469 0-.82.234-1.054.469-.235.234-.352.586-.352.937v.938c0 .469.117.82.352 1.054.234.235.585.352 1.054.352h8.438c.351 0 .703-.117.937-.352.235-.234.469-.585.469-1.054v-.938c0-.351-.234-.703-.469-.937-.234-.235-.586-.469-.937-.469h-1.407V60.344c0-.352-.234-.703-.468-.938-.235-.234-.586-.468-.938-.468h-5.625c-.469 0-.82.234-1.054.468-.235.235-.352.586-.352.938v.937c0 .469.117.82.352 1.055.234.234.585.352 1.054.352h1.406V76.75h-1.406zM99 48.625c.938 0 1.875.469 2.578 1.172.703.703 1.172 1.64 1.172 2.578 0 1.055-.469 1.992-1.172 2.695A3.635 3.635 0 0199 56.125c-1.055 0-1.992-.352-2.695-1.055-.703-.703-1.055-1.64-1.055-2.695 0-.938.352-1.875 1.055-2.578.703-.703 1.64-1.172 2.695-1.172z" fill="#01A0E4"/></svg>