<svg width="200" height="142" fill="none" xmlns="http://www.w3.org/2000/svg"><mask id="a" fill="#fff"><path fill-rule="evenodd" clip-rule="evenodd" d="M65.5 0C29.325 0 0 29.325 0 65.5c0 30.886 21.378 56.78 50.145 63.69l.027 12.746 12.797-10.984c.84.032 1.684.048 2.531.048h69c36.175 0 65.5-29.325 65.5-65.5S170.675 0 134.5 0h-69z"/></mask><path d="M50.145 129.19l.5-.001-.001-.393-.383-.092-.117.486zm.027 12.746l-.5.001.002 1.085.823-.707-.325-.379zm12.797-10.984l.019-.5-.196-.007-.149.127.326.38zM.5 65.5c0-35.898 29.102-65 65-65v-1c-36.45 0-66 29.55-66 66h1zm49.761 63.204C21.715 121.846.5 96.15.5 65.5h-1c0 31.123 21.542 57.213 50.528 64.176l.233-.972zm.41 13.231l-.026-12.746-1 .002.027 12.746 1-.002zm11.972-11.363l-12.797 10.985.651.758 12.798-10.984-.652-.759zm2.857-.072a65.46 65.46 0 01-2.512-.048l-.038 1c.846.032 1.696.048 2.55.048v-1zm69 0h-69v1h69v-1zm65-65c0 35.898-29.102 65-65 65v1c36.451 0 66-29.549 66-66h-1zm-65-65c35.898 0 65 29.102 65 65h1c0-36.45-29.549-66-66-66v1zm-69 0h69v-1h-69v1z" fill="#C4C4C4" mask="url(#a)"/><path d="M126.938 44c.82 0 1.523.352 2.109 1.055.586.703.82 1.523.586 2.343l-5.039 24.375c-.235.704-.586 1.172-1.055 1.641-.469.469-1.055.586-1.641.586H82.992l1.406 7.5h34.688a2.88 2.88 0 011.758.586c.468.469.82.937 1.054 1.523 1.407 1.524 2.227 3.282 2.227 5.391a7.52 7.52 0 01-2.227 5.39c-1.406 1.407-3.164 2.11-5.273 2.11-2.109 0-3.984-.703-5.391-2.11-1.406-1.406-2.109-3.28-2.109-5.39a7.27 7.27 0 011.055-3.75H93.07A7.27 7.27 0 0194.125 89c0 2.11-.82 3.984-2.227 5.39-1.406 1.407-3.164 2.11-5.273 2.11-2.11 0-3.984-.703-5.39-2.11-1.407-1.406-2.11-3.163-2.11-5.273 0-1.992.586-3.75 1.992-5.156L72.914 40.25h-9.258c-.468 0-.82-.117-1.054-.352-.235-.234-.352-.586-.352-1.054v-.938c0-.351.117-.703.352-.937.234-.235.586-.469 1.054-.469h9.961c.703 0 1.29.234 1.758.703.469.469.82.938 1.055 1.64L77.367 44h49.571zM90.375 89c0-.938-.469-1.875-1.172-2.578-.703-.703-1.64-1.172-2.578-1.172-1.055 0-1.992.469-2.695 1.172A3.635 3.635 0 0082.875 89c0 1.055.352 1.992 1.055 2.695.703.703 1.64 1.055 2.695 1.055.938 0 1.875-.352 2.578-1.055.703-.703 1.172-1.64 1.172-2.695zm26.25 3.75c.937 0 1.875-.352 2.578-1.055.703-.703 1.172-1.64 1.172-2.695 0-.938-.469-1.875-1.172-2.578-.703-.703-1.641-1.172-2.578-1.172-1.055 0-1.992.469-2.695 1.172A3.636 3.636 0 00112.875 89c0 1.055.352 1.992 1.055 2.695.703.703 1.64 1.055 2.695 1.055zm4.453-22.5l4.688-22.5H78.07l4.22 22.5h38.788z" fill="#01A0E4"/></svg>