<svg width="200" height="142" fill="none" xmlns="http://www.w3.org/2000/svg"><mask id="a" fill="#fff"><path fill-rule="evenodd" clip-rule="evenodd" d="M65.5 0C29.325 0 0 29.325 0 65.5c0 30.886 21.378 56.78 50.145 63.69l.027 12.746 12.797-10.984c.84.032 1.683.048 2.531.048h69c36.175 0 65.5-29.325 65.5-65.5S170.675 0 134.5 0h-69z"/></mask><path d="M50.145 129.19l.5-.001-.001-.393-.383-.092-.117.486zm.027 12.746l-.5.001.002 1.085.824-.707-.326-.379zm12.797-10.984l.02-.5-.197-.007-.148.127.325.38zM.5 65.5c0-35.898 29.101-65 65-65v-1c-36.45 0-66 29.55-66 66h1zm49.761 63.204C21.714 121.846.5 96.15.5 65.5h-1c0 31.123 21.541 57.213 50.528 64.176l.233-.972zm.41 13.231l-.026-12.746-1 .002.027 12.746 1-.002zm11.973-11.363l-12.798 10.985.652.758 12.797-10.984-.651-.759zm2.856-.072c-.841 0-1.678-.016-2.512-.048l-.038 1c.846.032 1.696.048 2.55.048v-1zm69 0h-69v1h69v-1zm65-65c0 35.898-29.101 65-65 65v1c36.451 0 66-29.549 66-66h-1zm-65-65c35.899 0 65 29.102 65 65h1c0-36.45-29.549-66-66-66v1zm-69 0h69v-1h-69v1z" fill="#C4C4C4" mask="url(#a)"/><path d="M123.5 39.5c1.992 0 3.75.82 5.273 2.227C130.18 43.25 131 45.007 131 47v33.75c0 2.11-.82 3.867-2.227 5.273-1.523 1.524-3.281 2.227-5.273 2.227h-16.875L91.977 99.266c-.235.234-.586.234-.938.234s-.703-.117-.937-.352c-.235-.234-.352-.585-.352-1.054V88.25H78.5c-2.11 0-3.867-.703-5.273-2.227C71.703 84.617 71 82.86 71 80.75V47c0-1.992.703-3.75 2.227-5.273C74.633 40.32 76.39 39.5 78.5 39.5h45zm3.75 41.25V47c0-.938-.469-1.875-1.172-2.578-.703-.703-1.64-1.172-2.578-1.172h-45c-1.055 0-1.992.469-2.695 1.172A3.635 3.635 0 0074.75 47v33.75c0 1.055.352 1.992 1.055 2.695.703.703 1.64 1.055 2.695 1.055h15v8.906l11.836-8.906H123.5c.938 0 1.875-.352 2.578-1.055.703-.703 1.172-1.64 1.172-2.695z" fill="#01A0E4"/></svg>